if (_typeface_js && _typeface_js.loadFace) _typeface_js.loadFace({"glyphs":{"¦":{"x_min":83,"x_max":262,"ha":345,"o":"m 262 288 l 262 -263 l 83 -263 l 83 288 l 262 288 m 83 1079 l 262 1079 l 262 527 l 83 527 l 83 1079 "},"ǻ":{"x_min":41.671875,"x_max":1016.75,"ha":1058,"o":"m 589 1316 l 468 1316 l 607 1450 l 789 1450 l 589 1316 m 628 1162 q 597 1087 628 1117 q 522 1058 566 1058 q 447 1087 478 1058 q 417 1162 417 1117 q 447 1237 417 1206 q 522 1268 478 1268 q 597 1237 566 1268 q 628 1162 628 1206 m 612 0 l 612 74 l 669 74 l 619 242 l 320 242 l 269 74 l 326 74 l 326 0 l 41 0 l 41 74 l 98 74 l 354 926 l 280 926 l 280 1000 l 769 1000 l 769 926 l 695 926 l 959 74 l 1016 74 l 1016 0 l 612 0 m 468 752 l 371 414 l 568 414 l 468 752 "},"ȋ":{"x_min":-153.28125,"x_max":478.953125,"ha":548,"o":"m 478 1000 l 478 926 l 422 926 l 422 74 l 478 74 l 478 0 l 69 0 l 69 74 l 126 74 l 126 926 l 69 926 l 69 1000 l 478 1000 m 89 1072 l -153 1280 l 32 1280 l 218 1072 l 89 1072 m 316 1072 l 114 1280 l 289 1280 l 439 1072 l 316 1072 "},"Ő":{"x_min":51,"x_max":1015,"ha":1064,"o":"m 690 500 q 677 688 690 608 q 643 820 664 768 q 593 898 621 872 q 533 924 564 924 q 472 898 501 924 q 422 820 444 872 q 388 688 401 768 q 376 500 376 608 q 388 311 376 391 q 422 179 401 231 q 472 101 444 127 q 533 76 501 76 q 593 101 564 76 q 643 179 621 127 q 677 311 664 231 q 690 500 690 391 m 1015 500 q 976 279 1015 377 q 871 111 937 180 q 718 5 806 43 q 533 -32 630 -32 q 346 5 434 -32 q 194 111 259 43 q 89 279 128 180 q 51 500 51 377 q 89 720 51 622 q 194 888 128 819 q 346 994 259 957 q 533 1032 434 1032 q 718 994 630 1032 q 871 888 806 957 q 976 720 937 819 q 1015 500 1015 622 m 577 1072 l 763 1280 l 950 1280 l 706 1072 l 577 1072 m 356 1072 l 506 1280 l 681 1280 l 480 1072 l 356 1072 "},"ȏ":{"x_min":51,"x_max":1015,"ha":1064,"o":"m 690 500 q 677 688 690 608 q 643 820 664 768 q 593 898 621 872 q 533 924 564 924 q 472 898 501 924 q 422 820 444 872 q 388 688 401 768 q 376 500 376 608 q 388 311 376 391 q 422 179 401 231 q 472 101 444 127 q 533 76 501 76 q 593 101 564 76 q 643 179 621 127 q 677 311 664 231 q 690 500 690 391 m 1015 500 q 976 279 1015 377 q 871 111 937 180 q 718 5 806 43 q 533 -32 630 -32 q 346 5 434 -32 q 194 111 259 43 q 89 279 128 180 q 51 500 51 377 q 89 720 51 622 q 194 888 128 819 q 346 994 259 957 q 533 1032 434 1032 q 718 994 630 1032 q 871 888 806 957 q 976 720 937 819 q 1015 500 1015 622 m 633 1072 q 605 1151 633 1124 q 534 1179 578 1179 q 461 1151 491 1179 q 432 1072 432 1124 l 297 1072 q 362 1230 297 1173 q 534 1287 428 1287 q 628 1272 585 1287 q 703 1230 671 1257 q 751 1162 734 1202 q 769 1072 769 1121 l 633 1072 "},"Ž":{"x_min":32.0625,"x_max":901.125,"ha":955,"o":"m 865 0 l 32 0 l 534 889 q 416 876 473 889 q 309 832 358 864 q 225 746 261 801 q 172 607 189 691 l 79 607 l 79 1000 l 901 1000 l 398 112 q 451 111 425 109 q 493 115 477 112 q 633 186 573 126 q 732 343 693 247 q 757 426 743 375 q 771 548 771 477 l 865 548 l 865 0 m 238 1282 l 403 1282 l 478 1176 l 552 1282 l 716 1282 l 556 1074 l 399 1074 l 238 1282 "},"Á":{"x_min":41.671875,"x_max":1016.75,"ha":1058,"o":"m 612 0 l 612 74 l 669 74 l 619 242 l 320 242 l 269 74 l 326 74 l 326 0 l 41 0 l 41 74 l 98 74 l 354 926 l 280 926 l 280 1000 l 769 1000 l 769 926 l 695 926 l 959 74 l 1016 74 l 1016 0 l 612 0 m 468 752 l 370 414 l 568 414 l 468 752 m 599 1072 l 476 1072 l 637 1281 l 821 1281 l 599 1072 "},"е":{"x_min":69.046875,"x_max":843,"ha":933,"o":"m 69 0 l 69 73 l 126 73 l 126 926 l 69 926 l 69 1000 l 843 1000 l 843 607 l 749 607 q 711 720 741 666 q 637 813 681 775 q 536 873 593 852 q 418 888 480 894 l 418 639 l 627 639 l 627 492 l 418 492 l 418 111 q 532 132 476 106 q 633 204 588 158 q 707 311 677 249 q 739 441 736 373 l 843 441 l 843 0 l 69 0 "},"ĥ":{"x_min":69.046875,"x_max":995.9375,"ha":1065,"o":"m 995 0 l 585 0 l 585 74 l 642 74 l 642 492 l 423 492 l 423 74 l 479 74 l 479 0 l 69 0 l 69 74 l 126 74 l 126 926 l 69 926 l 69 1000 l 479 1000 l 479 926 l 423 926 l 423 639 l 642 639 l 642 926 l 585 926 l 585 1000 l 995 1000 l 995 926 l 939 926 l 939 74 l 995 74 l 995 0 m 771 1072 l 608 1072 l 534 1177 l 459 1072 l 294 1072 l 455 1280 l 612 1280 l 771 1072 "},"Κ":{"x_min":69.046875,"x_max":1047.0625,"ha":1071,"o":"m 663 0 l 567 495 l 422 315 l 422 74 l 478 74 l 478 0 l 69 0 l 69 74 l 126 74 l 126 926 l 69 926 l 69 1000 l 478 1000 l 478 926 l 422 926 l 422 537 l 734 926 l 677 926 l 677 1000 l 984 1000 l 984 926 l 912 926 l 747 748 l 990 74 l 1047 74 l 1047 0 l 663 0 "},"Î":{"x_min":36.171875,"x_max":513.984375,"ha":548,"o":"m 478 1000 l 478 926 l 422 926 l 422 74 l 478 74 l 478 0 l 69 0 l 69 74 l 126 74 l 126 926 l 69 926 l 69 1000 l 478 1000 m 513 1072 l 350 1072 l 276 1177 l 201 1072 l 36 1072 l 197 1280 l 354 1280 l 513 1072 "},"e":{"x_min":69.046875,"x_max":843,"ha":933,"o":"m 69 0 l 69 73 l 126 73 l 126 926 l 69 926 l 69 1000 l 843 1000 l 843 607 l 749 607 q 711 720 741 666 q 637 813 681 775 q 536 873 593 852 q 418 888 480 894 l 418 639 l 627 639 l 627 492 l 418 492 l 418 111 q 532 132 476 106 q 633 204 588 158 q 707 311 677 249 q 739 441 736 373 l 843 441 l 843 0 l 69 0 "},"»":{"x_min":69.453125,"x_max":766.734375,"ha":822,"o":"m 766 307 l 426 6 l 426 214 l 620 366 l 620 419 l 426 574 l 426 783 l 766 481 l 766 307 m 409 307 l 69 6 l 69 214 l 261 366 l 261 419 l 69 574 l 69 783 l 409 481 l 409 307 "},"∆":{"x_min":58.34375,"x_max":961.1875,"ha":1020,"o":"m 58 0 l 58 81 l 359 1000 l 657 1000 l 961 81 l 961 0 l 58 0 m 440 808 l 231 157 l 645 157 l 440 808 "},"ļ":{"x_min":70.046875,"x_max":835,"ha":902,"o":"m 835 0 l 70 0 l 70 73 l 127 73 l 127 926 l 70 926 l 70 1000 l 477 1000 l 477 926 l 421 926 l 421 118 q 541 143 483 118 q 641 227 598 169 q 706 379 683 286 q 725 606 730 472 l 835 606 l 835 0 m 587 -275 l 502 -411 l 442 -411 l 477 -275 l 355 -275 l 355 -71 l 587 -71 l 587 -275 "},"Ĕ":{"x_min":69.046875,"x_max":843,"ha":933,"o":"m 69 0 l 69 73 l 126 73 l 126 926 l 69 926 l 69 1000 l 843 1000 l 843 607 l 749 607 q 711 720 741 666 q 637 813 681 775 q 536 873 593 852 q 418 888 480 894 l 418 639 l 627 639 l 627 492 l 418 492 l 418 111 q 532 132 476 106 q 633 204 588 158 q 707 311 677 249 q 739 441 736 373 l 843 441 l 843 0 l 69 0 m 719 1280 q 701 1190 719 1230 q 653 1122 684 1149 q 579 1079 622 1094 q 484 1065 535 1065 q 313 1122 379 1065 q 247 1280 247 1179 l 381 1280 q 411 1200 381 1227 q 484 1173 441 1173 q 556 1200 529 1173 q 583 1280 583 1227 l 719 1280 "},"ò":{"x_min":51,"x_max":1015,"ha":1064,"o":"m 690 500 q 677 688 690 608 q 643 820 664 768 q 593 898 621 872 q 533 924 564 924 q 472 898 501 924 q 422 820 444 872 q 388 688 401 768 q 376 500 376 608 q 388 311 376 391 q 422 179 401 231 q 472 101 444 127 q 533 76 501 76 q 593 101 564 76 q 643 179 621 127 q 677 311 664 231 q 690 500 690 391 m 1015 500 q 976 279 1015 377 q 871 111 937 180 q 718 5 806 43 q 533 -32 630 -32 q 346 5 434 -32 q 194 111 259 43 q 89 279 128 180 q 51 500 51 377 q 89 720 51 622 q 194 888 128 819 q 346 994 259 957 q 533 1032 434 1032 q 718 994 630 1032 q 871 888 806 957 q 976 720 937 819 q 1015 500 1015 622 m 472 1072 l 249 1281 l 434 1281 l 595 1072 l 472 1072 "},"ţ":{"x_min":58,"x_max":954,"ha":1012,"o":"m 58 1000 l 954 1000 l 954 548 l 840 548 q 829 667 840 607 q 796 774 819 727 q 737 850 773 821 q 652 876 702 878 l 652 74 l 708 74 l 708 0 l 302 0 l 302 74 l 359 74 l 359 876 q 273 850 309 878 q 215 774 238 821 q 182 667 192 727 q 172 548 172 607 l 58 548 l 58 1000 m 626 -275 l 541 -411 l 481 -411 l 516 -275 l 394 -275 l 394 -71 l 626 -71 l 626 -275 "},"^":{"x_min":54.171875,"x_max":531.984375,"ha":586,"o":"m 531 772 l 368 772 l 294 877 l 219 772 l 54 772 l 215 980 l 372 980 l 531 772 "},"«":{"x_min":55.5625,"x_max":752.84375,"ha":822,"o":"m 55 481 l 395 783 l 395 574 l 201 419 l 201 366 l 395 214 l 395 6 l 55 307 l 55 481 m 412 481 l 752 783 l 752 574 l 561 419 l 561 366 l 752 214 l 752 6 l 412 307 l 412 481 "},"к":{"x_min":69.046875,"x_max":1047.0625,"ha":1075,"o":"m 422 560 q 522 632 483 587 q 590 729 562 677 q 642 835 619 781 q 697 933 666 889 q 774 1004 728 976 q 888 1032 819 1032 q 956 1024 923 1032 q 1012 1000 988 1016 l 1012 846 l 928 846 q 908 882 928 875 q 873 873 888 889 q 839 825 853 855 q 808 759 824 794 q 771 687 791 723 q 720 619 751 650 q 772 566 745 600 q 831 469 799 532 q 902 311 863 407 q 990 74 941 215 l 1047 74 l 1047 0 l 684 0 q 638 189 659 112 q 599 320 617 267 q 566 408 581 374 q 537 468 551 443 q 486 441 517 457 q 422 414 455 425 l 422 74 l 478 74 l 478 0 l 69 0 l 69 74 l 126 74 l 126 926 l 69 926 l 69 1000 l 478 1000 l 478 926 l 422 926 l 422 560 l 422 560 "},"í":{"x_min":69.046875,"x_max":564.984375,"ha":548,"o":"m 478 1000 l 478 926 l 422 926 l 422 74 l 478 74 l 478 0 l 69 0 l 69 74 l 126 74 l 126 926 l 69 926 l 69 1000 l 478 1000 m 342 1072 l 219 1072 l 380 1281 l 564 1281 l 342 1072 "},"ˆ":{"x_min":54.171875,"x_max":531.984375,"ha":586,"o":"m 531 772 l 368 772 l 294 877 l 219 772 l 54 772 l 215 980 l 372 980 l 531 772 "},"ū":{"x_min":56.046875,"x_max":959.953125,"ha":1016,"o":"m 745 344 l 745 926 l 688 926 l 688 1000 l 959 1000 l 959 926 l 903 926 l 903 342 q 871 164 903 235 q 788 49 840 92 q 669 -13 736 5 q 530 -32 601 -32 q 358 -10 435 -32 q 226 55 281 11 q 142 167 171 99 q 113 328 113 235 l 113 926 l 56 926 l 56 1000 l 469 1000 l 469 926 l 413 926 l 413 343 q 421 275 413 307 q 449 220 429 244 q 500 184 468 197 q 579 171 532 171 q 658 184 626 171 q 710 222 690 198 q 737 277 729 245 q 745 344 745 308 m 267 1192 l 777 1192 l 777 1081 l 267 1081 l 267 1192 "},"ȷ":{"x_min":65,"x_max":892.984375,"ha":917,"o":"m 187 546 q 202 361 187 444 q 247 218 218 277 q 313 127 275 159 q 392 96 350 96 q 454 120 431 96 q 489 179 477 144 q 504 254 501 215 q 508 325 508 294 l 508 926 l 451 926 l 451 1000 l 860 1000 l 860 926 l 804 926 l 804 313 q 776 165 804 230 q 699 54 748 99 q 583 -14 651 9 q 435 -39 516 -39 q 328 -27 371 -39 q 252 0 284 -16 q 196 39 220 18 q 146 82 171 61 l 146 0 l 65 0 l 65 546 l 187 546 m 892 1072 l 729 1072 l 655 1177 l 580 1072 l 415 1072 l 576 1280 l 733 1280 l 892 1072 "},"ņ":{"x_min":69.046875,"x_max":923.953125,"ha":982,"o":"m 867 926 l 867 0 l 702 0 l 261 676 l 261 74 l 317 74 l 317 0 l 69 0 l 69 74 l 126 74 l 126 926 l 69 926 l 69 1000 l 408 1000 l 718 530 l 718 926 l 661 926 l 661 1000 l 923 1000 l 923 926 l 867 926 m 633 -275 l 548 -411 l 488 -411 l 523 -275 l 401 -275 l 401 -71 l 633 -71 l 633 -275 "},"µ":{"x_min":14.171875,"x_max":1000.625,"ha":1015,"o":"m 592 708 l 535 708 l 535 782 l 908 782 l 908 708 l 852 708 l 852 182 q 855 129 852 150 q 865 96 858 108 q 882 80 872 84 q 904 75 892 75 q 943 85 922 73 q 986 132 964 97 l 1000 48 q 906 -7 963 12 q 795 -26 850 -27 q 743 -22 769 -26 q 691 -9 717 -19 q 643 19 665 0 q 605 68 621 37 q 422 -13 544 3 q 435 -83 429 -45 q 443 -156 440 -120 q 446 -224 446 -192 q 443 -274 446 -255 l 344 -333 l 193 -333 q 224 -137 219 -228 q 221 32 229 -47 q 198 177 214 111 q 171 297 183 243 l 71 708 l 14 708 l 14 782 l 440 782 l 440 708 l 383 708 l 415 342 q 464 162 426 214 q 592 128 503 109 l 592 708 "},"Ι":{"x_min":69.046875,"x_max":478.953125,"ha":548,"o":"m 478 1000 l 478 926 l 422 926 l 422 74 l 478 74 l 478 0 l 69 0 l 69 74 l 126 74 l 126 926 l 69 926 l 69 1000 l 478 1000 "},"č":{"x_min":51,"x_max":947.0625,"ha":993,"o":"m 535 77 q 630 126 589 88 q 698 218 671 163 q 736 336 724 272 q 744 466 748 401 l 947 366 q 915 202 948 276 q 824 77 883 129 q 689 -3 766 24 q 527 -32 612 -32 q 349 -2 435 -32 q 197 92 263 27 q 91 257 131 156 q 51 501 51 358 q 94 738 51 638 q 207 904 138 838 q 362 1000 277 969 q 533 1032 448 1032 q 627 1025 588 1032 q 694 1009 666 1019 q 742 984 721 998 q 784 955 763 970 l 824 1000 l 902 1000 l 902 610 l 756 610 q 745 713 760 658 q 701 815 730 768 q 630 893 671 862 q 542 924 589 924 q 478 903 510 924 q 418 835 445 883 q 374 705 391 786 q 358 501 358 623 q 371 309 358 387 q 407 183 384 231 q 462 110 430 134 q 535 77 495 86 m 293 1289 l 458 1289 l 533 1183 l 607 1289 l 771 1289 l 611 1081 l 454 1081 l 293 1289 "},"’":{"x_min":69,"x_max":283,"ha":352,"o":"m 206 667 l 152 667 l 184 789 l 69 789 l 69 1000 l 283 1000 l 283 789 l 206 667 "},"Ν":{"x_min":69.046875,"x_max":923.953125,"ha":986,"o":"m 867 926 l 867 0 l 702 0 l 261 676 l 261 74 l 317 74 l 317 0 l 69 0 l 69 74 l 126 74 l 126 926 l 69 926 l 69 1000 l 408 1000 l 718 530 l 718 926 l 661 926 l 661 1000 l 923 1000 l 923 926 l 867 926 "},"-":{"x_min":69.453125,"x_max":475.03125,"ha":544,"o":"m 475 348 l 69 348 l 69 554 l 475 554 l 475 348 "},"Q":{"x_min":51,"x_max":1064.0625,"ha":1064,"o":"m 1015 500 q 958 236 1015 348 q 809 55 902 123 q 848 -2 821 19 q 923 -25 874 -25 q 986 -3 956 -25 q 1019 56 1016 17 q 1050 9 1039 33 q 1063 -33 1062 -15 q 1056 -101 1066 -67 q 1023 -161 1046 -134 q 963 -204 1000 -187 q 874 -221 925 -221 q 715 -166 778 -221 q 631 -21 652 -112 q 532 -32 580 -32 q 346 5 434 -32 q 194 111 259 43 q 89 279 128 180 q 51 500 51 377 q 89 720 51 622 q 194 888 128 819 q 346 994 259 957 q 533 1032 434 1032 q 718 994 630 1032 q 871 888 806 957 q 976 720 937 819 q 1015 500 1015 622 m 460 218 q 558 262 505 253 q 669 251 612 272 q 685 362 680 300 q 690 500 690 425 q 677 688 690 608 q 643 820 664 768 q 593 898 621 872 q 533 924 564 924 q 472 898 501 924 q 422 820 444 872 q 388 688 401 768 q 376 500 376 608 q 388 311 376 391 q 422 176 401 230 q 472 97 444 123 q 532 72 500 72 q 606 112 574 72 q 564 189 595 159 q 460 218 532 219 "},"Ш":{"x_min":69.046875,"x_max":1509.953125,"ha":1579,"o":"m 423 74 l 641 74 l 641 926 l 584 926 l 584 1000 l 994 1000 l 994 926 l 938 926 l 938 74 l 1156 74 l 1156 926 l 1099 926 l 1099 1000 l 1509 1000 l 1509 926 l 1453 926 l 1453 74 l 1509 74 l 1509 0 l 69 0 l 69 74 l 126 74 l 126 926 l 69 926 l 69 1000 l 479 1000 l 479 926 l 423 926 l 423 74 "},"M":{"x_min":69.046875,"x_max":1142.9375,"ha":1212,"o":"m 1142 0 l 735 0 l 735 74 l 792 74 l 792 651 l 548 272 l 283 648 l 283 74 l 339 74 l 339 0 l 69 0 l 69 74 l 126 74 l 126 926 l 69 926 l 69 1000 l 389 1000 l 620 673 l 833 1000 l 1142 1000 l 1142 926 l 1086 926 l 1086 74 l 1142 74 l 1142 0 "},"Ψ":{"x_min":35.046875,"x_max":1336.953125,"ha":1372,"o":"m 883 1000 l 883 926 l 827 926 l 827 414 q 959 459 918 415 q 1001 607 1001 504 l 1001 1000 l 1336 1000 l 1336 926 l 1280 926 l 1280 622 q 1245 465 1280 530 q 1149 361 1210 401 q 1005 304 1088 320 q 827 293 922 288 l 827 74 l 883 74 l 883 0 l 488 0 l 488 74 l 545 74 l 545 293 q 366 304 449 288 q 222 361 283 320 q 126 465 161 401 q 92 622 92 530 l 92 926 l 35 926 l 35 1000 l 371 1000 l 371 607 q 412 459 371 504 q 545 414 453 415 l 545 926 l 488 926 l 488 1000 l 883 1000 "},"œ":{"x_min":43,"x_max":1246.1875,"ha":1313,"o":"m 1234 0 l 1159 0 l 1159 50 q 1113 13 1141 28 q 1052 -9 1084 0 q 988 -22 1020 -19 q 930 -26 955 -26 q 789 -3 856 -26 q 669 69 722 19 q 555 -1 619 22 q 420 -26 491 -26 q 274 3 342 -26 q 154 88 205 33 q 72 220 102 143 q 43 391 43 297 q 72 563 43 486 q 154 694 102 640 q 274 778 205 748 q 420 808 342 808 q 557 782 492 808 q 672 708 622 756 l 674 710 q 791 783 723 758 q 929 808 859 808 q 1061 782 998 809 q 1167 703 1123 755 q 1232 575 1211 651 q 1241 399 1254 498 l 811 399 q 815 273 805 331 q 847 173 824 215 q 900 106 869 131 q 970 80 931 81 q 1092 158 1044 92 q 1161 336 1141 224 l 1234 336 l 1234 0 m 542 392 q 532 509 542 453 q 505 607 522 565 q 467 675 489 650 q 421 700 446 700 q 374 675 395 700 q 336 607 352 650 q 309 509 319 565 q 300 392 300 453 q 309 274 300 331 q 336 175 319 218 q 374 107 352 132 q 421 82 395 82 q 467 108 446 82 q 505 177 489 134 q 532 275 522 220 q 542 392 542 331 m 1018 477 q 992 638 1020 578 q 920 698 964 698 q 850 638 879 698 q 814 477 820 578 l 1018 477 "},"ě":{"x_min":69.046875,"x_max":843,"ha":933,"o":"m 69 0 l 69 73 l 126 73 l 126 926 l 69 926 l 69 1000 l 843 1000 l 843 607 l 749 607 q 711 720 741 666 q 637 813 681 775 q 536 873 593 852 q 418 888 480 894 l 418 639 l 627 639 l 627 492 l 418 492 l 418 111 q 532 132 476 106 q 633 204 588 158 q 707 311 677 249 q 739 441 736 373 l 843 441 l 843 0 l 69 0 m 244 1289 l 409 1289 l 484 1183 l 558 1289 l 722 1289 l 562 1081 l 405 1081 l 244 1289 "},"ũ":{"x_min":56.046875,"x_max":959.953125,"ha":1016,"o":"m 745 344 l 745 926 l 688 926 l 688 1000 l 959 1000 l 959 926 l 903 926 l 903 342 q 871 164 903 235 q 788 49 840 92 q 669 -13 736 5 q 530 -32 601 -32 q 358 -10 435 -32 q 226 55 281 11 q 142 167 171 99 q 113 328 113 235 l 113 926 l 56 926 l 56 1000 l 469 1000 l 469 926 l 413 926 l 413 343 q 421 275 413 307 q 449 220 429 244 q 500 184 468 197 q 579 171 532 171 q 658 184 626 171 q 710 222 690 198 q 737 277 729 245 q 745 344 745 308 m 773 1288 q 782 1202 786 1242 q 761 1133 777 1162 q 720 1088 745 1104 q 661 1079 694 1073 l 379 1148 q 358 1144 365 1151 q 347 1126 351 1137 q 344 1101 344 1115 q 344 1076 344 1087 l 273 1076 q 267 1149 265 1109 q 282 1221 269 1188 q 321 1273 295 1254 q 384 1284 347 1292 l 666 1216 q 686 1220 679 1213 q 698 1237 694 1226 q 702 1262 701 1248 q 702 1288 702 1276 l 773 1288 "},"ŭ":{"x_min":56.046875,"x_max":959.953125,"ha":1016,"o":"m 745 344 l 745 926 l 688 926 l 688 1000 l 959 1000 l 959 926 l 903 926 l 903 342 q 871 164 903 235 q 788 49 840 92 q 669 -13 736 5 q 530 -32 601 -32 q 358 -10 435 -32 q 226 55 281 11 q 142 167 171 99 q 113 328 113 235 l 113 926 l 56 926 l 56 1000 l 469 1000 l 469 926 l 413 926 l 413 343 q 421 275 413 307 q 449 220 429 244 q 500 184 468 197 q 579 171 532 171 q 658 184 626 171 q 710 222 690 198 q 737 277 729 245 q 745 344 745 308 m 779 1280 q 761 1190 779 1230 q 713 1122 744 1149 q 639 1079 682 1094 q 544 1065 595 1065 q 373 1122 439 1065 q 307 1280 307 1179 l 441 1280 q 471 1200 441 1227 q 544 1173 501 1173 q 616 1200 589 1173 q 643 1280 643 1227 l 779 1280 "},"{":{"x_min":41.671875,"x_max":583.375,"ha":521,"o":"m 583 -144 q 412 -150 494 -159 q 273 -100 330 -140 q 191 13 216 -61 q 190 202 166 87 q 193 302 201 259 q 164 372 186 344 q 111 416 143 401 q 41 436 79 431 l 41 562 q 111 581 79 566 q 164 625 143 597 q 193 696 186 654 q 190 795 201 738 q 191 986 166 912 q 273 1099 216 1059 q 412 1148 330 1138 q 583 1143 494 1157 l 583 1055 q 464 1032 500 1055 q 420 967 429 1009 q 417 865 411 925 q 423 732 423 805 q 408 654 422 691 q 370 586 394 618 q 316 532 347 555 q 247 500 284 509 q 316 466 284 488 q 370 411 347 443 q 408 343 394 380 q 423 266 422 305 q 417 133 423 193 q 420 31 411 73 q 464 -32 429 -9 q 583 -55 500 -55 l 583 -144 "},"¼":{"x_min":70,"x_max":1718.515625,"ha":1756,"o":"m 1252 347 l 1252 680 l 1017 355 q 1072 346 1042 348 q 1133 341 1101 343 q 1195 341 1164 340 q 1252 347 1225 343 m 415 149 l 70 149 l 70 212 l 117 212 l 117 937 l 70 937 l 70 1000 l 367 1000 l 367 212 l 415 212 l 415 149 m 918 1039 l 625 -33 l 458 -33 l 751 1039 l 918 1039 m 1718 234 l 1646 208 l 1632 248 l 1499 214 l 1499 62 l 1547 62 l 1547 0 l 1203 0 l 1203 62 l 1252 62 l 1252 200 q 1186 202 1224 200 q 1106 212 1147 204 q 1026 236 1065 220 q 961 277 988 252 l 911 207 l 811 277 l 1227 850 l 1554 850 l 1554 788 l 1506 788 l 1506 376 l 1579 404 l 1568 440 l 1636 461 l 1718 234 "},"#":{"x_min":93.0625,"x_max":1057.03125,"ha":1106,"o":"m 162 718 l 372 718 l 420 1001 l 569 1001 l 520 718 l 704 718 l 751 1001 l 900 1001 l 852 718 l 1057 718 l 1029 578 l 830 578 l 804 435 l 1015 435 l 987 295 l 782 295 l 734 0 l 586 0 l 633 295 l 452 295 l 404 0 l 255 0 l 304 295 l 93 295 l 120 435 l 325 435 l 351 578 l 134 578 l 162 718 m 473 435 l 655 435 l 682 578 l 500 578 l 473 435 "},"ι":{"x_min":69.046875,"x_max":478.953125,"ha":548,"o":"m 478 1000 l 478 926 l 422 926 l 422 74 l 478 74 l 478 0 l 69 0 l 69 74 l 126 74 l 126 926 l 69 926 l 69 1000 l 478 1000 "},"Ĳ":{"x_min":69.046875,"x_max":1402.953125,"ha":1472,"o":"m 478 1000 l 478 926 l 422 926 l 422 74 l 478 74 l 478 0 l 69 0 l 69 74 l 126 74 l 126 926 l 69 926 l 69 1000 l 478 1000 m 729 546 q 744 361 729 444 q 789 218 760 277 q 855 127 817 159 q 934 96 892 96 q 996 120 973 96 q 1031 179 1019 144 q 1046 254 1043 215 q 1050 325 1050 294 l 1050 926 l 993 926 l 993 1000 l 1402 1000 l 1402 926 l 1346 926 l 1346 313 q 1318 165 1346 230 q 1241 54 1290 99 q 1125 -14 1193 9 q 977 -39 1058 -39 q 870 -27 913 -39 q 794 0 826 -16 q 738 39 762 18 q 688 82 713 61 l 688 0 l 607 0 l 607 546 l 729 546 "},"Ê":{"x_min":69.046875,"x_max":843,"ha":933,"o":"m 69 0 l 69 73 l 126 73 l 126 926 l 69 926 l 69 1000 l 843 1000 l 843 607 l 749 607 q 711 720 741 666 q 637 813 681 775 q 536 873 593 852 q 418 888 480 894 l 418 639 l 627 639 l 627 492 l 418 492 l 418 111 q 532 132 476 106 q 633 204 588 158 q 707 311 677 249 q 739 441 736 373 l 843 441 l 843 0 l 69 0 m 707 1072 l 544 1072 l 470 1177 l 395 1072 l 230 1072 l 391 1280 l 548 1280 l 707 1072 "},")":{"x_min":26.828125,"x_max":456,"ha":524,"o":"m 456 485 q 437 343 456 415 q 385 203 418 271 q 304 69 351 134 q 200 -56 257 3 l 26 -56 q 144 223 106 88 q 181 492 182 358 q 141 754 179 623 q 26 1025 103 886 l 200 1025 q 385 767 314 905 q 456 485 456 630 "},"ε":{"x_min":69.046875,"x_max":843,"ha":933,"o":"m 69 0 l 69 73 l 126 73 l 126 926 l 69 926 l 69 1000 l 843 1000 l 843 607 l 749 607 q 711 720 741 666 q 637 813 681 775 q 536 873 593 852 q 418 888 480 894 l 418 639 l 627 639 l 627 492 l 418 492 l 418 111 q 532 132 476 106 q 633 204 588 158 q 707 311 677 249 q 739 441 736 373 l 843 441 l 843 0 l 69 0 "},"э":{"x_min":90.28125,"x_max":942,"ha":993,"o":"m 470 -32 q 378 -24 418 -30 q 308 -7 338 -18 q 253 15 277 2 q 208 44 229 29 l 168 0 l 90 0 l 90 385 l 243 385 q 252 282 238 337 q 295 182 266 228 q 363 106 323 137 q 450 76 402 76 q 509 92 479 76 q 564 149 538 109 q 608 256 590 190 q 632 424 626 323 l 323 424 l 323 571 l 632 571 q 608 732 626 665 q 564 842 590 798 q 509 904 538 885 q 450 924 479 924 q 363 893 402 924 q 295 817 323 862 q 252 717 266 771 q 243 614 238 662 l 90 614 l 90 1000 l 168 1000 l 208 955 q 254 984 229 970 q 313 1009 280 998 q 388 1025 345 1019 q 487 1032 430 1032 q 653 1000 572 1032 q 798 903 734 969 q 902 737 862 837 q 942 500 942 637 q 899 265 942 363 q 789 100 857 166 q 638 2 722 34 q 470 -32 554 -30 "},"ș":{"x_min":65,"x_max":888.484375,"ha":936,"o":"m 886 333 q 867 182 895 250 q 785 67 838 115 q 658 -6 731 19 q 505 -32 585 -32 q 385 -22 440 -32 q 287 2 331 -12 q 208 38 242 18 q 148 77 173 58 l 148 0 l 65 0 l 65 484 l 154 484 l 154 459 q 182 340 154 401 q 252 230 210 280 q 341 145 294 180 q 426 104 388 111 q 529 99 491 91 q 583 127 566 106 q 601 177 601 148 q 592 236 601 206 q 538 322 577 286 q 448 386 498 358 q 345 436 398 413 q 251 479 292 458 q 120 585 166 520 q 69 720 74 650 q 102 859 64 791 q 220 972 139 926 q 363 1020 283 1007 q 516 1032 442 1034 q 594 1023 556 1032 q 663 1003 631 1015 q 721 977 695 991 q 762 951 747 964 l 762 1000 l 844 1000 l 844 604 l 751 604 q 712 722 738 666 q 647 819 686 778 q 561 885 609 861 q 458 910 513 910 q 383 891 413 910 q 345 845 352 873 q 361 782 338 816 q 448 715 384 747 q 531 673 485 694 q 622 629 576 652 q 713 576 669 605 q 794 511 758 547 q 854 432 830 476 q 886 333 879 387 m 600 -275 l 515 -411 l 455 -411 l 490 -275 l 368 -275 l 368 -71 l 600 -71 l 600 -275 "},"Å":{"x_min":41.671875,"x_max":1016.75,"ha":1058,"o":"m 612 0 l 612 74 l 669 74 l 619 242 l 320 242 l 269 74 l 326 74 l 326 0 l 41 0 l 41 74 l 98 74 l 354 926 l 280 926 l 280 1000 l 769 1000 l 769 926 l 695 926 l 959 74 l 1016 74 l 1016 0 l 612 0 m 468 752 l 370 414 l 568 414 l 468 752 m 629 1178 q 595 1097 629 1130 q 513 1065 562 1065 q 431 1097 464 1065 q 398 1178 398 1130 q 431 1260 398 1227 q 513 1294 464 1294 q 595 1260 562 1294 q 629 1178 629 1227 "},"ш":{"x_min":69.046875,"x_max":1509.953125,"ha":1579,"o":"m 423 74 l 641 74 l 641 926 l 584 926 l 584 1000 l 994 1000 l 994 926 l 938 926 l 938 74 l 1156 74 l 1156 926 l 1099 926 l 1099 1000 l 1509 1000 l 1509 926 l 1453 926 l 1453 74 l 1509 74 l 1509 0 l 69 0 l 69 74 l 126 74 l 126 926 l 69 926 l 69 1000 l 479 1000 l 479 926 l 423 926 l 423 74 "},"Я":{"x_min":34.390625,"x_max":1003.953125,"ha":1073,"o":"m 358 780 q 429 688 358 714 q 651 674 501 662 l 651 887 q 474 882 545 895 q 358 780 358 862 m 34 74 l 91 74 q 131 203 108 137 q 184 331 155 269 q 247 448 213 393 q 319 548 281 504 q 185 582 235 557 q 109 641 135 608 q 75 708 83 673 q 68 770 68 743 q 94 873 69 826 q 183 952 119 920 q 356 997 247 984 q 634 1000 465 1011 l 1003 1000 l 1003 926 l 947 926 l 947 74 l 1003 74 l 1003 0 l 594 0 l 594 74 l 651 74 l 651 532 l 552 532 q 459 270 498 409 q 409 0 420 131 l 34 0 l 34 74 "},"¸":{"x_min":68.15625,"x_max":428,"ha":496,"o":"m 428 -216 q 418 -271 428 -244 q 386 -321 409 -298 q 322 -358 362 -344 q 219 -372 282 -372 q 133 -356 170 -372 q 68 -320 95 -340 l 90 -238 q 161 -272 129 -265 q 216 -276 193 -280 q 251 -258 239 -271 q 264 -224 264 -244 q 234 -184 264 -196 q 135 -184 204 -171 l 135 24 l 256 24 l 256 -89 q 335 -94 303 -82 q 389 -127 368 -106 q 418 -173 409 -148 q 428 -216 428 -198 "},"a":{"x_min":41.671875,"x_max":1016.75,"ha":1058,"o":"m 612 0 l 612 74 l 669 74 l 619 242 l 320 242 l 269 74 l 326 74 l 326 0 l 41 0 l 41 74 l 98 74 l 354 926 l 280 926 l 280 1000 l 769 1000 l 769 926 l 695 926 l 959 74 l 1016 74 l 1016 0 l 612 0 m 468 752 l 370 414 l 568 414 l 468 752 "},"Ę":{"x_min":69.453125,"x_max":877.84375,"ha":933,"o":"m 843 0 q 797 -11 823 -2 q 747 -36 770 -20 q 709 -77 725 -52 q 697 -134 694 -101 q 719 -181 701 -168 q 761 -194 737 -194 q 809 -182 784 -194 q 851 -154 834 -170 l 877 -212 q 827 -263 859 -243 q 758 -294 795 -284 q 682 -301 720 -304 q 613 -283 644 -298 q 562 -238 581 -268 q 543 -165 543 -209 q 577 -65 543 -105 q 663 0 612 -25 l 69 0 l 69 73 l 126 73 l 126 926 l 69 926 l 69 1000 l 843 1000 l 843 607 l 750 607 q 711 720 741 666 q 637 813 682 775 q 536 873 593 852 q 418 888 480 894 l 418 638 l 627 638 l 627 491 l 418 491 l 418 111 q 532 132 476 106 q 633 204 588 158 q 707 311 677 250 q 738 441 736 373 l 843 441 l 843 0 l 843 0 "},"=":{"x_min":68.0625,"x_max":597.265625,"ha":665,"o":"m 597 268 l 68 268 l 68 440 l 597 440 l 597 268 m 597 563 l 68 563 l 68 735 l 597 735 l 597 563 "},"ρ":{"x_min":69.046875,"x_max":1004,"ha":1025,"o":"m 725 744 q 698 820 725 790 q 629 866 672 850 q 531 888 586 883 q 422 889 477 893 l 422 608 q 555 604 498 595 q 649 634 612 612 q 706 685 687 655 q 725 744 725 715 m 1004 740 q 957 603 1004 661 q 831 513 910 546 q 645 474 751 480 q 422 491 540 468 l 422 74 l 478 74 l 478 0 l 69 0 l 69 74 l 126 74 l 126 926 l 69 926 l 69 1000 l 433 1000 q 676 998 570 1011 q 856 952 783 986 q 966 864 928 918 q 1004 740 1004 811 "},"˚":{"x_min":301,"x_max":532,"ha":842,"o":"m 532 1002 q 498 921 532 954 q 416 889 465 889 q 334 921 367 889 q 301 1002 301 954 q 334 1084 301 1051 q 416 1118 367 1118 q 498 1084 465 1118 q 532 1002 532 1051 "},"ú":{"x_min":56.046875,"x_max":959.953125,"ha":1016,"o":"m 745 344 l 745 926 l 688 926 l 688 1000 l 959 1000 l 959 926 l 903 926 l 903 342 q 871 164 903 235 q 788 49 840 92 q 669 -13 736 5 q 530 -32 601 -32 q 358 -10 435 -32 q 226 55 281 11 q 142 167 171 99 q 113 328 113 235 l 113 926 l 56 926 l 56 1000 l 469 1000 l 469 926 l 413 926 l 413 343 q 421 275 413 307 q 449 220 429 244 q 500 184 468 197 q 579 171 532 171 q 658 184 626 171 q 710 222 690 198 q 737 277 729 245 q 745 344 745 308 m 634 1072 l 511 1072 l 672 1281 l 856 1281 l 634 1072 "},"д":{"x_min":42,"x_max":1182,"ha":1224,"o":"m 268 926 l 268 1000 l 1112 1000 l 1112 926 l 1056 926 l 1056 74 l 1182 73 l 1182 -253 l 1068 -253 q 1059 -163 1068 -208 q 1032 -82 1051 -118 q 985 -22 1013 -45 q 918 0 956 0 l 305 0 q 237 -22 265 0 q 191 -82 210 -45 q 164 -163 172 -118 q 156 -253 156 -208 l 42 -253 l 42 74 l 154 74 q 203 153 179 98 q 248 278 227 207 q 286 434 269 350 q 313 605 302 519 q 329 774 325 691 q 332 926 334 856 l 268 926 m 759 74 l 759 926 l 615 926 q 605 703 612 820 q 581 473 598 587 q 536 256 565 359 q 465 74 508 153 l 759 74 "},"Ȓ":{"x_min":69.046875,"x_max":1038.59375,"ha":1073,"o":"m 715 780 q 598 881 715 860 q 519 889 563 888 q 422 887 474 889 l 422 674 q 715 780 715 655 m 1038 0 l 659 0 l 520 532 l 422 532 l 422 74 l 478 74 l 478 0 l 69 0 l 69 74 l 126 74 l 126 926 l 69 926 l 69 1000 l 445 1000 q 723 997 614 1011 q 893 952 831 984 q 980 873 956 920 q 1005 770 1003 826 q 997 708 1005 743 q 963 641 989 673 q 887 582 937 608 q 753 548 837 557 l 981 74 l 1038 74 l 1038 0 m 621 1072 q 593 1151 621 1124 q 522 1179 566 1179 q 449 1151 479 1179 q 420 1072 420 1124 l 285 1072 q 350 1230 285 1173 q 522 1287 416 1287 q 616 1272 573 1287 q 691 1230 659 1257 q 739 1162 722 1202 q 757 1072 757 1121 l 621 1072 "},"¯":{"x_min":41.671875,"x_max":551.4375,"ha":593,"o":"m 41 1193 l 551 1193 l 551 1082 l 41 1082 l 41 1193 "},"Z":{"x_min":32.0625,"x_max":901.125,"ha":955,"o":"m 865 0 l 32 0 l 534 889 q 416 876 473 889 q 309 832 358 864 q 225 746 261 801 q 172 607 189 691 l 79 607 l 79 1000 l 901 1000 l 398 112 q 451 111 425 109 q 493 115 477 112 q 633 186 573 126 q 732 343 693 247 q 757 426 743 375 q 771 548 771 477 l 865 548 l 865 0 "},"Ȍ":{"x_min":51,"x_max":1015,"ha":1064,"o":"m 690 500 q 677 688 690 608 q 643 820 664 768 q 593 898 621 872 q 533 924 564 924 q 472 898 501 924 q 422 820 444 872 q 388 688 401 768 q 376 500 376 608 q 388 311 376 391 q 422 179 401 231 q 472 101 444 127 q 533 76 501 76 q 593 101 564 76 q 643 179 621 127 q 677 311 664 231 q 690 500 690 391 m 1015 500 q 976 279 1015 377 q 871 111 937 180 q 718 5 806 43 q 533 -32 630 -32 q 346 5 434 -32 q 194 111 259 43 q 89 279 128 180 q 51 500 51 377 q 89 720 51 622 q 194 888 128 819 q 346 994 259 957 q 533 1032 434 1032 q 718 994 630 1032 q 871 888 806 957 q 976 720 937 819 q 1015 500 1015 622 m 355 1072 l 112 1280 l 298 1280 l 484 1072 l 355 1072 m 582 1072 l 380 1280 l 555 1280 l 705 1072 l 582 1072 "},"u":{"x_min":56.046875,"x_max":959.953125,"ha":1016,"o":"m 745 344 l 745 926 l 688 926 l 688 1000 l 959 1000 l 959 926 l 903 926 l 903 342 q 871 164 903 235 q 788 49 840 92 q 669 -13 736 5 q 530 -32 601 -32 q 358 -10 435 -32 q 226 55 281 11 q 142 167 171 99 q 113 328 113 235 l 113 926 l 56 926 l 56 1000 l 469 1000 l 469 926 l 413 926 l 413 343 q 421 275 413 307 q 449 220 429 244 q 500 184 468 197 q 579 171 532 171 q 658 184 626 171 q 710 222 690 198 q 737 277 729 245 q 745 344 745 308 "},"k":{"x_min":69.046875,"x_max":1047.0625,"ha":1071,"o":"m 663 0 l 567 495 l 422 315 l 422 74 l 478 74 l 478 0 l 69 0 l 69 74 l 126 74 l 126 926 l 69 926 l 69 1000 l 478 1000 l 478 926 l 422 926 l 422 537 l 734 926 l 677 926 l 677 1000 l 984 1000 l 984 926 l 912 926 l 747 748 l 990 74 l 1047 74 l 1047 0 l 663 0 "},"ȇ":{"x_min":69.046875,"x_max":843,"ha":933,"o":"m 69 0 l 69 73 l 126 73 l 126 926 l 69 926 l 69 1000 l 843 1000 l 843 607 l 749 607 q 711 720 741 666 q 637 813 681 775 q 536 873 593 852 q 418 888 480 894 l 418 639 l 627 639 l 627 492 l 418 492 l 418 111 q 532 132 476 106 q 633 204 588 158 q 707 311 677 249 q 739 441 736 373 l 843 441 l 843 0 l 69 0 m 571 1072 q 543 1151 571 1124 q 472 1179 516 1179 q 399 1151 429 1179 q 370 1072 370 1124 l 235 1072 q 300 1230 235 1173 q 472 1287 366 1287 q 566 1272 523 1287 q 641 1230 609 1257 q 689 1162 672 1202 q 707 1072 707 1121 l 571 1072 "},"Ù":{"x_min":56.046875,"x_max":959.953125,"ha":1016,"o":"m 745 344 l 745 926 l 688 926 l 688 1000 l 959 1000 l 959 926 l 903 926 l 903 342 q 871 164 903 235 q 788 49 840 92 q 669 -13 736 5 q 530 -32 601 -32 q 358 -10 435 -32 q 226 55 281 11 q 142 167 171 99 q 113 328 113 235 l 113 926 l 56 926 l 56 1000 l 469 1000 l 469 926 l 413 926 l 413 343 q 421 275 413 307 q 449 220 429 244 q 500 184 468 197 q 579 171 532 171 q 658 184 626 171 q 710 222 690 198 q 737 277 729 245 q 745 344 745 308 m 514 1072 l 291 1281 l 476 1281 l 637 1072 l 514 1072 "},"З":{"x_min":83,"x_max":894,"ha":943,"o":"m 208 689 l 94 689 l 94 1000 l 186 1000 l 186 941 q 325 1013 251 994 q 483 1032 399 1032 q 602 1020 538 1032 q 721 981 666 1008 q 816 907 775 954 q 864 793 856 861 q 860 705 870 746 q 825 634 849 665 q 764 582 800 603 q 685 554 728 561 q 765 531 727 550 q 832 480 803 512 q 877 405 860 448 q 894 309 894 362 q 858 150 894 215 q 761 45 823 86 q 617 -13 699 4 q 442 -32 535 -32 q 362 -27 402 -32 q 288 -11 323 -22 q 222 13 252 -1 q 174 50 192 29 l 174 0 l 83 0 l 83 416 l 181 416 q 212 270 189 333 q 268 166 235 208 q 342 103 301 125 q 430 82 384 82 q 483 97 455 82 q 535 140 512 112 q 573 208 557 168 q 587 297 588 248 q 571 381 585 346 q 537 438 557 415 q 492 472 517 461 q 444 484 467 484 l 349 484 l 349 592 l 434 592 q 544 630 512 592 q 576 751 576 669 q 563 820 576 789 q 531 874 551 851 q 488 910 512 897 q 442 924 464 924 q 353 903 392 924 q 285 850 315 883 q 238 776 256 818 q 208 689 219 734 "},"Α":{"x_min":41.671875,"x_max":1016.75,"ha":1058,"o":"m 612 0 l 612 74 l 669 74 l 619 242 l 320 242 l 269 74 l 326 74 l 326 0 l 41 0 l 41 74 l 98 74 l 354 926 l 280 926 l 280 1000 l 769 1000 l 769 926 l 695 926 l 959 74 l 1016 74 l 1016 0 l 612 0 m 468 752 l 370 414 l 568 414 l 468 752 "},"Ů":{"x_min":56.046875,"x_max":959.953125,"ha":1016,"o":"m 745 344 l 745 926 l 688 926 l 688 1000 l 959 1000 l 959 926 l 903 926 l 903 342 q 871 164 903 235 q 788 49 840 92 q 669 -13 736 5 q 530 -32 601 -32 q 358 -10 435 -32 q 226 55 281 11 q 142 167 171 99 q 113 328 113 235 l 113 926 l 56 926 l 56 1000 l 469 1000 l 469 926 l 413 926 l 413 343 q 421 275 413 307 q 449 220 429 244 q 500 184 468 197 q 579 171 532 171 q 658 184 626 171 q 710 222 690 198 q 737 277 729 245 q 745 344 745 308 m 671 1178 q 637 1097 671 1130 q 555 1065 604 1065 q 473 1097 506 1065 q 440 1178 440 1130 q 473 1260 440 1227 q 555 1294 506 1294 q 637 1260 604 1294 q 671 1178 671 1227 "},"¢":{"x_min":69,"x_max":677.40625,"ha":743,"o":"m 503 55 q 476 -8 503 17 q 412 -35 450 -35 q 348 -8 374 -35 q 322 55 322 17 q 348 119 322 93 q 412 146 374 146 q 476 119 450 146 q 503 55 503 93 m 677 313 q 579 228 645 263 q 424 194 513 194 q 289 217 353 194 q 175 285 224 239 q 97 401 125 331 q 69 562 69 470 q 99 726 69 656 q 178 840 130 795 q 288 907 227 885 q 410 930 349 930 q 524 916 480 930 q 605 871 568 902 l 674 917 l 674 580 l 605 580 q 586 680 603 637 q 546 754 570 724 q 496 799 523 784 q 446 815 469 815 q 361 752 401 815 q 318 564 322 689 q 326 455 315 502 q 354 376 337 409 q 392 323 372 342 q 430 295 412 303 q 476 290 448 287 q 533 308 505 294 q 586 348 562 323 q 619 406 610 373 l 677 313 "},"Ş":{"x_min":65,"x_max":888.625,"ha":936,"o":"m 886 333 q 869 187 894 252 q 794 75 843 122 q 676 0 744 27 q 531 -30 607 -26 l 531 -104 q 610 -108 578 -97 q 664 -141 643 -120 q 693 -187 684 -162 q 703 -230 703 -212 q 693 -285 703 -258 q 661 -335 684 -312 q 597 -372 637 -358 q 494 -386 557 -386 q 408 -370 445 -386 q 343 -334 370 -354 l 365 -252 q 436 -286 404 -279 q 491 -290 468 -294 q 526 -272 513 -286 q 539 -238 539 -258 q 509 -198 539 -211 q 410 -198 479 -186 l 410 -24 q 253 16 318 -13 q 148 77 188 45 l 148 0 l 65 0 l 65 484 l 154 484 l 154 459 q 182 340 154 401 q 252 230 211 280 q 341 145 294 180 q 426 104 389 111 q 529 99 492 91 q 584 127 567 106 q 601 177 601 148 q 593 236 601 206 q 538 322 578 286 q 448 386 499 358 q 345 436 398 413 q 251 479 293 458 q 120 585 166 520 q 69 720 74 650 q 102 859 65 791 q 220 972 140 926 q 363 1020 283 1007 q 517 1032 443 1034 q 594 1023 557 1032 q 664 1003 632 1015 q 721 977 696 991 q 762 951 747 964 l 762 1000 l 844 1000 l 844 604 l 751 604 q 712 722 739 666 q 648 819 686 778 q 562 885 610 861 q 458 910 514 910 q 383 891 414 910 q 345 845 352 873 q 361 782 339 816 q 448 715 384 747 q 531 673 486 694 q 623 629 576 653 q 714 576 669 605 q 794 512 758 547 q 855 432 831 476 q 886 333 879 387 "},"é":{"x_min":69.046875,"x_max":843,"ha":933,"o":"m 69 0 l 69 73 l 126 73 l 126 926 l 69 926 l 69 1000 l 843 1000 l 843 607 l 749 607 q 711 720 741 666 q 637 813 681 775 q 536 873 593 852 q 418 888 480 894 l 418 639 l 627 639 l 627 492 l 418 492 l 418 111 q 532 132 476 106 q 633 204 588 158 q 707 311 677 249 q 739 441 736 373 l 843 441 l 843 0 l 69 0 m 509 1072 l 386 1072 l 547 1281 l 731 1281 l 509 1072 "},"B":{"x_min":69.046875,"x_max":1028,"ha":1064,"o":"m 422 116 q 548 121 492 109 q 642 161 604 133 q 700 230 680 189 q 721 321 721 271 q 704 407 721 359 q 643 487 687 455 q 590 513 618 504 q 533 525 562 522 q 476 528 505 528 q 422 528 448 528 l 422 116 m 422 668 q 504 667 458 668 q 591 675 550 666 q 660 709 632 684 q 688 781 688 733 q 660 852 688 829 q 591 885 632 876 q 505 892 551 894 q 422 889 459 890 l 422 668 m 1028 322 q 983 156 1028 225 q 861 49 939 88 q 679 -2 783 9 q 454 0 574 -15 l 69 0 l 69 73 l 126 73 l 126 926 l 69 926 l 69 1000 l 602 1000 q 739 990 675 1002 q 854 952 804 977 q 935 886 904 926 q 970 795 965 847 q 962 739 971 768 q 931 684 953 711 q 876 637 910 658 q 794 604 842 616 q 889 563 846 590 q 962 499 932 536 q 1010 417 993 462 q 1028 322 1028 372 "},"…":{"x_min":104,"x_max":1094,"ha":1198,"o":"m 342 0 l 104 0 l 104 235 l 342 235 l 342 0 m 718 0 l 480 0 l 480 235 l 718 235 l 718 0 m 1094 0 l 856 0 l 856 235 l 1094 235 l 1094 0 "},"В":{"x_min":69.046875,"x_max":1028,"ha":1064,"o":"m 422 116 q 548 121 492 109 q 642 161 604 133 q 700 230 680 189 q 721 321 721 271 q 704 407 721 359 q 643 487 687 455 q 590 513 618 504 q 533 525 562 522 q 476 528 505 528 q 422 528 448 528 l 422 116 m 422 668 q 504 667 458 668 q 591 675 550 666 q 660 709 632 684 q 688 781 688 733 q 660 852 688 829 q 591 885 632 876 q 505 892 551 894 q 422 889 459 890 l 422 668 m 1028 322 q 983 156 1028 225 q 861 49 939 88 q 679 -2 783 9 q 454 0 574 -15 l 69 0 l 69 73 l 126 73 l 126 926 l 69 926 l 69 1000 l 602 1000 q 739 990 675 1002 q 854 952 804 977 q 935 886 904 926 q 970 795 965 847 q 962 739 971 768 q 931 684 953 711 q 876 637 910 658 q 794 604 842 616 q 889 563 846 590 q 962 499 932 536 q 1010 417 993 462 q 1028 322 1028 372 "},"ē":{"x_min":69.046875,"x_max":843,"ha":933,"o":"m 69 0 l 69 73 l 126 73 l 126 926 l 69 926 l 69 1000 l 843 1000 l 843 607 l 749 607 q 711 720 741 666 q 637 813 681 775 q 536 873 593 852 q 418 888 480 894 l 418 639 l 627 639 l 627 492 l 418 492 l 418 111 q 532 132 476 106 q 633 204 588 158 q 707 311 677 249 q 739 441 736 373 l 843 441 l 843 0 l 69 0 m 227 1192 l 737 1192 l 737 1081 l 227 1081 l 227 1192 "},"H":{"x_min":69.046875,"x_max":995.9375,"ha":1065,"o":"m 995 0 l 585 0 l 585 74 l 642 74 l 642 492 l 423 492 l 423 74 l 479 74 l 479 0 l 69 0 l 69 74 l 126 74 l 126 926 l 69 926 l 69 1000 l 479 1000 l 479 926 l 423 926 l 423 639 l 642 639 l 642 926 l 585 926 l 585 1000 l 995 1000 l 995 926 l 939 926 l 939 74 l 995 74 l 995 0 "},"ν":{"x_min":69.046875,"x_max":923.953125,"ha":986,"o":"m 867 926 l 867 0 l 702 0 l 261 676 l 261 74 l 317 74 l 317 0 l 69 0 l 69 74 l 126 74 l 126 926 l 69 926 l 69 1000 l 408 1000 l 718 530 l 718 926 l 661 926 l 661 1000 l 923 1000 l 923 926 l 867 926 "},"î":{"x_min":36.171875,"x_max":513.984375,"ha":548,"o":"m 478 1000 l 478 926 l 422 926 l 422 74 l 478 74 l 478 0 l 69 0 l 69 74 l 126 74 l 126 926 l 69 926 l 69 1000 l 478 1000 m 513 1072 l 350 1072 l 276 1177 l 201 1072 l 36 1072 l 197 1280 l 354 1280 l 513 1072 "},"ư":{"x_min":56.046875,"x_max":1238,"ha":1280,"o":"m 745 926 l 688 926 l 688 1000 l 959 1000 l 959 926 l 903 926 l 903 698 q 971 707 934 699 q 1041 730 1008 715 q 1097 766 1073 746 q 1125 812 1121 787 l 1021 812 l 1021 1000 l 1238 1000 l 1238 861 q 1222 784 1238 825 q 1167 709 1206 744 q 1063 648 1128 673 q 903 617 998 622 l 903 343 q 871 164 903 236 q 788 49 840 93 q 669 -13 736 5 q 530 -32 601 -32 q 358 -10 435 -32 q 226 55 281 11 q 142 167 171 99 q 113 328 113 235 l 113 926 l 56 926 l 56 1000 l 469 1000 l 469 926 l 413 926 l 413 343 q 421 275 413 307 q 449 220 429 244 q 500 184 468 197 q 579 171 532 171 q 658 184 626 171 q 710 222 690 198 q 737 277 729 245 q 745 344 745 308 l 745 926 "},"β":{"x_min":69.046875,"x_max":1028,"ha":1064,"o":"m 422 116 q 548 121 492 109 q 642 161 604 133 q 700 230 680 189 q 721 321 721 271 q 704 407 721 359 q 643 487 687 455 q 590 513 618 504 q 533 525 562 522 q 476 528 505 528 q 422 528 448 528 l 422 116 m 422 668 q 504 667 458 668 q 591 675 550 666 q 660 709 632 684 q 688 781 688 733 q 660 852 688 829 q 591 885 632 876 q 505 892 551 894 q 422 889 459 890 l 422 668 m 1028 322 q 983 156 1028 225 q 861 49 939 88 q 679 -2 783 9 q 454 0 574 -15 l 69 0 l 69 73 l 126 73 l 126 926 l 69 926 l 69 1000 l 602 1000 q 739 990 675 1002 q 854 952 804 977 q 935 886 904 926 q 970 795 965 847 q 962 739 971 768 q 931 684 953 711 q 876 637 910 658 q 794 604 842 616 q 889 563 846 590 q 962 499 932 536 q 1010 417 993 462 q 1028 322 1028 372 "},"−":{"x_min":68.0625,"x_max":611.15625,"ha":678,"o":"m 611 410 l 68 410 l 68 596 l 611 596 l 611 410 "},"¥":{"x_min":39.6875,"x_max":1104.140625,"ha":1145,"o":"m 1104 926 l 1045 926 l 816 546 l 993 546 l 993 411 l 743 411 l 743 311 l 993 311 l 993 176 l 743 176 l 743 74 l 798 74 l 798 0 l 373 0 l 373 74 l 430 74 l 430 176 l 185 176 l 185 311 l 430 311 l 430 411 l 185 411 l 185 546 l 350 545 l 98 926 l 39 926 l 39 1000 l 531 1000 l 531 926 l 473 926 l 647 551 l 840 926 l 784 926 l 784 1000 l 1104 1000 l 1104 926 "},"Ĥ":{"x_min":69.046875,"x_max":995.9375,"ha":1065,"o":"m 995 0 l 585 0 l 585 74 l 642 74 l 642 492 l 423 492 l 423 74 l 479 74 l 479 0 l 69 0 l 69 74 l 126 74 l 126 926 l 69 926 l 69 1000 l 479 1000 l 479 926 l 423 926 l 423 639 l 642 639 l 642 926 l 585 926 l 585 1000 l 995 1000 l 995 926 l 939 926 l 939 74 l 995 74 l 995 0 m 771 1072 l 608 1072 l 534 1177 l 459 1072 l 294 1072 l 455 1280 l 612 1280 l 771 1072 "},"U":{"x_min":56.046875,"x_max":959.953125,"ha":1016,"o":"m 745 344 l 745 926 l 688 926 l 688 1000 l 959 1000 l 959 926 l 903 926 l 903 342 q 871 164 903 235 q 788 49 840 92 q 669 -13 736 5 q 530 -32 601 -32 q 358 -10 435 -32 q 226 55 281 11 q 142 167 171 99 q 113 328 113 235 l 113 926 l 56 926 l 56 1000 l 469 1000 l 469 926 l 413 926 l 413 343 q 421 275 413 307 q 449 220 429 244 q 500 184 468 197 q 579 171 532 171 q 658 184 626 171 q 710 222 690 198 q 737 277 729 245 q 745 344 745 308 "},"Ñ":{"x_min":69.046875,"x_max":923.953125,"ha":982,"o":"m 867 926 l 867 0 l 702 0 l 261 676 l 261 74 l 317 74 l 317 0 l 69 0 l 69 74 l 126 74 l 126 926 l 69 926 l 69 1000 l 408 1000 l 718 530 l 718 926 l 661 926 l 661 1000 l 923 1000 l 923 926 l 867 926 m 749 1290 q 758 1204 762 1244 q 737 1135 753 1164 q 696 1090 721 1106 q 637 1081 670 1075 l 355 1150 q 334 1146 341 1153 q 323 1128 327 1139 q 320 1103 320 1117 q 320 1078 320 1089 l 249 1078 q 243 1151 241 1111 q 258 1223 245 1190 q 297 1275 271 1256 q 360 1286 323 1294 l 642 1218 q 662 1222 655 1215 q 674 1239 670 1228 q 678 1264 677 1250 q 678 1290 678 1278 l 749 1290 "},"F":{"x_min":69.046875,"x_max":851.203125,"ha":907,"o":"m 758 607 q 718 721 748 668 q 644 814 688 775 q 542 873 599 852 q 422 889 485 893 l 422 639 l 641 639 l 641 492 l 422 492 l 422 74 l 478 74 l 478 0 l 69 0 l 69 74 l 126 74 l 126 926 l 69 926 l 69 1000 l 851 1000 l 851 607 l 758 607 "},"ĵ":{"x_min":69.453125,"x_max":513.9375,"ha":549,"o":"m 479 1000 l 479 926 l 422 926 l 422 73 l 479 73 l 479 0 q 433 -11 459 -2 q 384 -36 406 -20 q 345 -77 361 -52 q 333 -134 330 -101 q 355 -181 337 -168 q 397 -194 373 -194 q 445 -182 420 -194 q 487 -154 470 -170 l 513 -212 q 463 -263 495 -243 q 394 -294 431 -284 q 318 -301 356 -304 q 249 -283 280 -298 q 198 -238 218 -268 q 179 -165 179 -209 q 213 -65 179 -105 q 300 0 248 -25 l 69 0 l 69 73 l 126 73 l 126 926 l 69 926 l 69 1000 l 479 1000 "},"ā":{"x_min":41.671875,"x_max":1016.75,"ha":1058,"o":"m 612 0 l 612 74 l 669 74 l 619 242 l 320 242 l 269 74 l 326 74 l 326 0 l 41 0 l 41 74 l 98 74 l 354 926 l 280 926 l 280 1000 l 769 1000 l 769 926 l 695 926 l 959 74 l 1016 74 l 1016 0 l 612 0 m 468 752 l 370 414 l 568 414 l 468 752 m 266 1192 l 776 1192 l 776 1081 l 266 1081 l 266 1192 "},"Ĩ":{"x_min":18,"x_max":534.09375,"ha":548,"o":"m 478 1000 l 478 926 l 422 926 l 422 74 l 478 74 l 478 0 l 69 0 l 69 74 l 126 74 l 126 926 l 69 926 l 69 1000 l 478 1000 m 524 1288 q 533 1202 537 1242 q 512 1133 528 1162 q 471 1088 496 1104 q 412 1079 445 1073 l 130 1148 q 109 1144 116 1151 q 98 1126 102 1137 q 95 1101 95 1115 q 95 1076 95 1087 l 24 1076 q 18 1149 16 1109 q 33 1221 20 1188 q 72 1273 46 1254 q 135 1284 98 1292 l 417 1216 q 437 1220 430 1213 q 449 1237 445 1226 q 453 1262 452 1248 q 453 1288 453 1276 l 524 1288 "},"Χ":{"x_min":48.609375,"x_max":962.578125,"ha":1011,"o":"m 641 555 l 905 74 l 962 74 l 962 0 l 513 0 l 513 74 l 570 74 l 452 290 l 298 74 l 355 74 l 355 0 l 48 0 l 48 74 l 105 74 l 372 437 l 105 926 l 48 926 l 48 1000 l 497 1000 l 497 926 l 440 926 l 563 698 l 730 926 l 673 926 l 673 1000 l 962 1000 l 962 926 l 905 926 l 641 555 "},"ă":{"x_min":41.671875,"x_max":1016.75,"ha":1058,"o":"m 612 0 l 612 74 l 669 74 l 619 242 l 320 242 l 269 74 l 326 74 l 326 0 l 41 0 l 41 74 l 98 74 l 354 926 l 280 926 l 280 1000 l 769 1000 l 769 926 l 695 926 l 959 74 l 1016 74 l 1016 0 l 612 0 m 468 752 l 370 414 l 568 414 l 468 752 m 761 1280 q 743 1190 761 1230 q 695 1122 726 1149 q 621 1079 664 1094 q 526 1065 577 1065 q 355 1122 421 1065 q 289 1280 289 1179 l 423 1280 q 453 1200 423 1227 q 526 1173 483 1173 q 598 1200 571 1173 q 625 1280 625 1227 l 761 1280 "},"*":{"x_min":55.5625,"x_max":616.71875,"ha":672,"o":"m 616 760 l 518 603 l 387 737 l 433 547 l 240 547 l 284 737 l 155 603 l 55 760 l 263 819 l 55 862 l 147 1019 l 284 885 l 240 1076 l 433 1076 l 387 885 l 525 1019 l 616 862 l 406 819 l 616 760 "},"†":{"x_min":56.578125,"x_max":673,"ha":729,"o":"m 425 645 q 443 254 436 443 q 456 -125 450 65 q 362 -132 408 -131 q 267 -125 317 -133 q 284 252 275 65 q 306 645 293 440 q 182 625 249 634 q 60 609 115 616 q 56 684 55 651 q 61 761 57 716 q 89 757 75 759 q 128 751 103 755 q 196 739 153 747 q 312 719 239 732 q 296 886 305 797 q 281 1052 288 976 q 367 1060 325 1059 q 453 1054 408 1061 q 439 894 447 975 q 422 720 431 813 l 666 762 q 672 686 672 719 q 666 609 673 652 l 425 645 "},"°":{"x_min":58,"x_max":415,"ha":473,"o":"m 415 883 q 401 814 415 847 q 362 758 387 782 q 305 720 338 734 q 235 707 273 707 q 167 720 199 707 q 110 758 134 734 q 71 814 85 782 q 58 883 58 847 q 71 953 58 921 q 110 1010 85 986 q 167 1049 134 1035 q 235 1063 199 1063 q 305 1049 273 1063 q 362 1010 338 1035 q 401 953 387 986 q 415 883 415 921 m 308 885 q 286 935 308 914 q 235 956 264 956 q 185 935 206 956 q 165 885 165 914 q 185 834 165 855 q 235 814 206 814 q 286 834 264 814 q 308 885 308 855 "},"Ξ":{"x_min":90.28125,"x_max":862.5625,"ha":953,"o":"m 493 139 q 603 147 555 139 q 685 177 651 155 q 740 238 719 200 q 769 338 761 276 l 862 338 l 862 0 l 90 0 l 90 338 l 183 338 q 212 238 191 276 q 267 177 233 200 q 349 147 301 155 q 459 139 397 139 l 493 139 m 459 861 q 349 852 397 861 q 267 822 301 844 q 212 760 233 799 q 183 662 191 721 l 90 662 l 90 1000 l 862 1000 l 862 662 l 769 662 q 740 760 761 721 q 685 822 719 799 q 603 852 651 844 q 493 861 555 861 l 459 861 m 719 372 l 641 372 l 641 413 l 308 413 l 308 372 l 230 372 l 230 628 l 308 628 l 308 588 l 641 588 l 641 628 l 719 628 l 719 372 "},"å":{"x_min":41.671875,"x_max":1016.75,"ha":1058,"o":"m 612 0 l 612 74 l 669 74 l 619 242 l 320 242 l 269 74 l 326 74 l 326 0 l 41 0 l 41 74 l 98 74 l 354 926 l 280 926 l 280 1000 l 769 1000 l 769 926 l 695 926 l 959 74 l 1016 74 l 1016 0 l 612 0 m 468 752 l 370 414 l 568 414 l 468 752 m 629 1178 q 595 1097 629 1130 q 513 1065 562 1065 q 431 1097 464 1065 q 398 1178 398 1130 q 431 1260 398 1227 q 513 1294 464 1294 q 595 1260 562 1294 q 629 1178 629 1227 "},"0":{"x_min":56,"x_max":948,"ha":1004,"o":"m 362 500 q 373 322 362 401 q 403 189 384 244 q 447 105 422 134 q 502 76 472 76 q 556 104 531 76 q 600 187 581 133 q 630 321 619 242 q 642 500 642 399 q 630 677 642 598 q 600 810 619 755 q 556 894 581 865 q 502 924 531 924 q 447 894 472 924 q 403 810 422 865 q 373 677 384 755 q 362 500 362 598 m 56 500 q 92 725 56 626 q 190 893 129 825 q 333 996 251 961 q 502 1032 414 1032 q 670 996 589 1032 q 813 893 752 961 q 911 727 874 826 q 948 500 948 627 q 911 274 948 373 q 813 106 874 174 q 670 3 752 38 q 502 -32 589 -32 q 333 3 414 -32 q 190 106 251 38 q 92 274 129 174 q 56 500 56 373 "},"ō":{"x_min":51,"x_max":1015,"ha":1064,"o":"m 690 500 q 677 688 690 608 q 643 820 664 768 q 593 898 621 872 q 533 924 564 924 q 472 898 501 924 q 422 820 444 872 q 388 688 401 768 q 376 500 376 608 q 388 311 376 391 q 422 179 401 231 q 472 101 444 127 q 533 76 501 76 q 593 101 564 76 q 643 179 621 127 q 677 311 664 231 q 690 500 690 391 m 1015 500 q 976 279 1015 377 q 871 111 937 180 q 718 5 806 43 q 533 -32 630 -32 q 346 5 434 -32 q 194 111 259 43 q 89 279 128 180 q 51 500 51 377 q 89 720 51 622 q 194 888 128 819 q 346 994 259 957 q 533 1032 434 1032 q 718 994 630 1032 q 871 888 806 957 q 976 720 937 819 q 1015 500 1015 622 m 281 1192 l 791 1192 l 791 1081 l 281 1081 l 281 1192 "},"”":{"x_min":69,"x_max":567,"ha":636,"o":"m 490 667 l 436 667 l 468 789 l 353 789 l 353 1000 l 567 1000 l 567 789 l 490 667 m 206 667 l 152 667 l 184 789 l 69 789 l 69 1000 l 283 1000 l 283 789 l 206 667 "},"ŵ":{"x_min":45.84375,"x_max":1448.734375,"ha":1493,"o":"m 1391 926 l 1090 74 l 1163 74 l 1163 0 l 862 0 l 862 74 l 936 74 l 757 565 l 575 74 l 648 74 l 648 0 l 347 0 l 347 74 l 420 74 l 102 926 l 45 926 l 45 1000 l 479 1000 l 479 926 l 422 926 l 575 509 l 723 926 l 666 926 l 666 1000 l 1015 1000 l 1015 926 l 958 926 l 1111 509 l 1262 926 l 1205 926 l 1205 1000 l 1448 1000 l 1448 926 l 1391 926 m 1074 1072 l 911 1072 l 837 1177 l 762 1072 l 597 1072 l 758 1280 l 915 1280 l 1074 1072 "},"Ķ":{"x_min":69.046875,"x_max":1047.0625,"ha":1071,"o":"m 663 0 l 567 495 l 422 315 l 422 74 l 478 74 l 478 0 l 69 0 l 69 74 l 126 74 l 126 926 l 69 926 l 69 1000 l 478 1000 l 478 926 l 422 926 l 422 537 l 734 926 l 677 926 l 677 1000 l 984 1000 l 984 926 l 912 926 l 747 748 l 990 74 l 1047 74 l 1047 0 l 663 0 m 679 -275 l 594 -411 l 534 -411 l 569 -275 l 447 -275 l 447 -71 l 679 -71 l 679 -275 "},"ö":{"x_min":51,"x_max":1015,"ha":1064,"o":"m 690 500 q 677 688 690 608 q 643 820 664 768 q 593 898 621 872 q 533 924 564 924 q 472 898 501 924 q 422 820 444 872 q 388 688 401 768 q 376 500 376 608 q 388 311 376 391 q 422 179 401 231 q 472 101 444 127 q 533 76 501 76 q 593 101 564 76 q 643 179 621 127 q 677 311 664 231 q 690 500 690 391 m 1015 500 q 976 279 1015 377 q 871 111 937 180 q 718 5 806 43 q 533 -32 630 -32 q 346 5 434 -32 q 194 111 259 43 q 89 279 128 180 q 51 500 51 377 q 89 720 51 622 q 194 888 128 819 q 346 994 259 957 q 533 1032 434 1032 q 718 994 630 1032 q 871 888 806 957 q 976 720 937 819 q 1015 500 1015 622 m 498 1173 q 469 1097 498 1129 q 389 1065 441 1065 q 312 1097 341 1065 q 283 1173 283 1129 q 312 1246 283 1215 q 389 1278 341 1278 q 469 1246 441 1278 q 498 1173 498 1215 m 783 1173 q 755 1097 783 1129 q 676 1065 727 1065 q 597 1097 626 1065 q 568 1173 568 1129 q 597 1246 568 1215 q 676 1278 626 1278 q 755 1246 727 1278 q 783 1173 783 1215 "},"Β":{"x_min":69.046875,"x_max":1028,"ha":1064,"o":"m 422 116 q 548 121 492 109 q 642 161 604 133 q 700 230 680 189 q 721 321 721 271 q 704 407 721 359 q 643 487 687 455 q 590 513 618 504 q 533 525 562 522 q 476 528 505 528 q 422 528 448 528 l 422 116 m 422 668 q 504 667 458 668 q 591 675 550 666 q 660 709 632 684 q 688 781 688 733 q 660 852 688 829 q 591 885 632 876 q 505 892 551 894 q 422 889 459 890 l 422 668 m 1028 322 q 983 156 1028 225 q 861 49 939 88 q 679 -2 783 9 q 454 0 574 -15 l 69 0 l 69 73 l 126 73 l 126 926 l 69 926 l 69 1000 l 602 1000 q 739 990 675 1002 q 854 952 804 977 q 935 886 904 926 q 970 795 965 847 q 962 739 971 768 q 931 684 953 711 q 876 637 910 658 q 794 604 842 616 q 889 563 846 590 q 962 499 932 536 q 1010 417 993 462 q 1028 322 1028 372 "},"ǽ":{"x_min":55.78125,"x_max":1431,"ha":1514,"o":"m 710 414 l 710 752 l 512 414 l 710 414 m 1431 0 l 1044 0 l 657 0 l 657 74 l 710 74 l 710 242 l 397 242 l 297 74 l 354 74 l 354 0 l 55 0 l 55 74 l 112 74 l 641 926 l 540 926 l 540 1000 l 1431 1000 l 1431 607 l 1337 607 q 1299 720 1329 666 q 1225 813 1269 775 q 1124 873 1181 852 q 1006 888 1068 894 l 1006 639 l 1215 639 l 1215 492 l 1006 492 l 1006 111 q 1120 132 1064 106 q 1221 204 1176 158 q 1295 311 1265 249 q 1327 441 1324 373 l 1431 441 l 1431 0 m 1030 1072 l 907 1072 l 1068 1281 l 1252 1281 l 1030 1072 "},"Ļ":{"x_min":70.046875,"x_max":835,"ha":902,"o":"m 835 0 l 70 0 l 70 73 l 127 73 l 127 926 l 70 926 l 70 1000 l 477 1000 l 477 926 l 421 926 l 421 118 q 541 143 483 118 q 641 227 598 169 q 706 379 683 286 q 725 606 730 472 l 835 606 l 835 0 m 587 -275 l 502 -411 l 442 -411 l 477 -275 l 355 -275 l 355 -71 l 587 -71 l 587 -275 "},"Õ":{"x_min":51,"x_max":1015,"ha":1064,"o":"m 690 500 q 677 688 690 608 q 643 820 664 768 q 593 898 621 872 q 533 924 564 924 q 472 898 501 924 q 422 820 444 872 q 388 688 401 768 q 376 500 376 608 q 388 311 376 391 q 422 179 401 231 q 472 101 444 127 q 533 76 501 76 q 593 101 564 76 q 643 179 621 127 q 677 311 664 231 q 690 500 690 391 m 1015 500 q 976 279 1015 377 q 871 111 937 180 q 718 5 806 43 q 533 -32 630 -32 q 346 5 434 -32 q 194 111 259 43 q 89 279 128 180 q 51 500 51 377 q 89 720 51 622 q 194 888 128 819 q 346 994 259 957 q 533 1032 434 1032 q 718 994 630 1032 q 871 888 806 957 q 976 720 937 819 q 1015 500 1015 622 m 779 1288 q 788 1202 792 1242 q 767 1133 783 1162 q 726 1088 751 1104 q 667 1079 700 1073 l 385 1148 q 364 1144 371 1151 q 353 1126 357 1137 q 350 1101 350 1115 q 350 1076 350 1087 l 279 1076 q 273 1149 271 1109 q 288 1221 275 1188 q 327 1273 301 1254 q 390 1284 353 1292 l 672 1216 q 692 1220 685 1213 q 704 1237 700 1226 q 708 1262 707 1248 q 708 1288 708 1276 l 779 1288 "},"ć":{"x_min":51,"x_max":947.0625,"ha":993,"o":"m 535 77 q 630 126 589 88 q 698 218 671 163 q 736 336 724 272 q 744 466 748 401 l 947 366 q 915 202 948 276 q 824 77 883 129 q 689 -3 766 24 q 527 -32 612 -32 q 349 -2 435 -32 q 197 92 263 27 q 91 257 131 156 q 51 501 51 358 q 94 738 51 638 q 207 904 138 838 q 362 1000 277 969 q 533 1032 448 1032 q 627 1025 588 1032 q 694 1009 666 1019 q 742 984 721 998 q 784 955 763 970 l 824 1000 l 902 1000 l 902 610 l 756 610 q 745 713 760 658 q 701 815 730 768 q 630 893 671 862 q 542 924 589 924 q 478 903 510 924 q 418 835 445 883 q 374 705 391 786 q 358 501 358 623 q 371 309 358 387 q 407 183 384 231 q 462 110 430 134 q 535 77 495 86 m 601 1072 l 478 1072 l 639 1281 l 823 1281 l 601 1072 "},"þ":{"x_min":69.046875,"x_max":1004,"ha":1025,"o":"m 725 493 q 699 568 725 538 q 631 613 673 597 q 534 635 588 630 q 422 634 480 640 l 422 354 q 555 350 498 341 q 649 380 612 358 q 706 433 687 402 q 725 493 725 463 m 478 926 l 422 926 l 422 747 q 672 753 563 763 q 854 708 780 742 q 966 620 929 674 q 1004 495 1004 566 q 957 357 1004 416 q 831 264 910 298 q 645 221 751 229 q 422 237 540 214 l 422 74 l 478 74 l 478 0 l 69 0 l 69 74 l 126 74 l 126 926 l 69 926 l 69 1000 l 478 1000 l 478 926 "},"]":{"x_min":-14,"x_max":280,"ha":350,"o":"m 280 -150 l -14 -150 l -14 -69 l 77 -69 l 77 1070 l -14 1070 l -14 1153 l 280 1153 l 280 -150 "},"А":{"x_min":40.671875,"x_max":1015.75,"ha":1053,"o":"m 611 0 l 611 74 l 668 74 l 618 242 l 319 242 l 268 74 l 325 74 l 325 0 l 40 0 l 40 74 l 97 74 l 353 926 l 279 926 l 279 1000 l 768 1000 l 768 926 l 694 926 l 958 74 l 1015 74 l 1015 0 l 611 0 m 467 752 l 369 414 l 567 414 l 467 752 "},"Ы":{"x_min":69.046875,"x_max":1526.953125,"ha":1596,"o":"m 422 607 q 652 605 556 616 q 814 569 748 594 q 919 509 880 544 q 979 434 958 473 q 1006 358 1000 395 q 1013 290 1013 320 q 976 151 1013 211 q 873 52 940 91 q 688 -2 798 9 q 449 0 577 -13 l 69 0 l 69 74 l 126 74 l 126 926 l 69 926 l 69 1000 l 478 1000 l 478 926 l 422 926 l 422 607 m 422 102 q 546 107 492 95 q 635 145 599 119 q 688 209 670 172 q 707 292 707 247 q 690 371 707 328 q 629 442 673 413 q 526 476 579 473 q 422 479 474 479 l 422 102 m 1526 1000 l 1526 926 l 1470 926 l 1470 74 l 1526 74 l 1526 0 l 1117 0 l 1117 74 l 1174 74 l 1174 926 l 1117 926 l 1117 1000 l 1526 1000 "},"χ":{"x_min":48.609375,"x_max":962.578125,"ha":1011,"o":"m 641 555 l 905 74 l 962 74 l 962 0 l 513 0 l 513 74 l 570 74 l 452 290 l 298 74 l 355 74 l 355 0 l 48 0 l 48 74 l 105 74 l 372 437 l 105 926 l 48 926 l 48 1000 l 497 1000 l 497 926 l 440 926 l 563 698 l 730 926 l 673 926 l 673 1000 l 962 1000 l 962 926 l 905 926 l 641 555 "},"ĭ":{"x_min":37.0625,"x_max":509.3125,"ha":548,"o":"m 478 1000 l 478 926 l 422 926 l 422 74 l 478 74 l 478 0 l 69 0 l 69 74 l 126 74 l 126 926 l 69 926 l 69 1000 l 478 1000 m 509 1280 q 491 1190 509 1230 q 443 1122 474 1149 q 369 1079 412 1094 q 274 1065 325 1065 q 103 1122 169 1065 q 37 1280 37 1179 l 171 1280 q 201 1200 171 1227 q 274 1173 231 1173 q 346 1200 319 1173 q 373 1280 373 1227 l 509 1280 "},"8":{"x_min":55,"x_max":1000,"ha":1056,"o":"m 681 329 q 663 440 678 394 q 626 514 648 485 q 577 555 604 542 q 525 569 550 569 q 476 555 501 569 q 429 514 451 542 q 392 440 408 485 q 376 329 377 394 q 387 216 373 263 q 425 138 402 169 q 474 92 448 107 q 525 78 501 78 q 577 92 550 78 q 628 138 605 107 q 666 216 651 169 q 681 329 681 263 m 628 805 q 595 898 625 872 q 525 925 565 925 q 459 898 488 925 q 429 805 430 872 q 435 750 427 773 q 457 712 444 727 q 488 689 470 697 q 525 682 506 682 q 564 689 545 682 q 598 712 583 697 q 621 750 612 727 q 628 805 629 773 m 1000 316 q 959 158 1000 224 q 851 50 918 92 q 699 -11 784 8 q 524 -32 613 -32 q 354 -11 438 -32 q 203 50 270 8 q 96 158 137 92 q 55 316 55 224 q 75 426 55 376 q 131 517 96 477 q 212 587 166 558 q 307 634 257 616 q 191 700 236 654 q 148 808 145 747 q 182 901 150 859 q 266 972 214 943 q 385 1016 319 1001 q 524 1032 452 1032 q 664 1016 597 1032 q 784 972 731 1001 q 868 901 836 943 q 903 808 900 859 q 859 700 905 747 q 747 634 814 654 q 843 587 797 616 q 923 517 888 558 q 979 426 958 477 q 1000 316 1000 376 "},"Ζ":{"x_min":32.0625,"x_max":901.125,"ha":957,"o":"m 865 0 l 32 0 l 534 889 q 416 876 473 889 q 309 832 358 864 q 225 746 261 801 q 172 607 189 691 l 79 607 l 79 1000 l 901 1000 l 398 112 q 451 111 425 109 q 493 115 477 112 q 633 186 573 126 q 732 343 693 247 q 757 426 743 375 q 771 548 771 477 l 865 548 l 865 0 "},"R":{"x_min":69.046875,"x_max":1038.59375,"ha":1073,"o":"m 715 780 q 598 881 715 860 q 519 889 563 888 q 422 887 474 889 l 422 674 q 715 780 715 655 m 1038 0 l 659 0 l 520 532 l 422 532 l 422 74 l 478 74 l 478 0 l 69 0 l 69 74 l 126 74 l 126 926 l 69 926 l 69 1000 l 445 1000 q 723 997 614 1011 q 893 952 831 984 q 980 873 956 920 q 1005 770 1003 826 q 997 708 1005 743 q 963 641 989 673 q 887 582 937 608 q 753 548 837 557 l 981 74 l 1038 74 l 1038 0 "},"ť":{"x_min":58,"x_max":954,"ha":1012,"o":"m 58 1000 l 954 1000 l 954 548 l 840 548 q 829 667 840 607 q 796 774 819 727 q 737 850 773 821 q 652 876 702 878 l 652 74 l 708 74 l 708 0 l 302 0 l 302 74 l 359 74 l 359 876 q 273 850 309 878 q 215 774 238 821 q 182 667 192 727 q 172 548 172 607 l 58 548 l 58 1000 m 269 1289 l 434 1289 l 509 1183 l 583 1289 l 747 1289 l 587 1081 l 430 1081 l 269 1289 "},"Ľ":{"x_min":70.046875,"x_max":835,"ha":902,"o":"m 835 0 l 70 0 l 70 73 l 127 73 l 127 926 l 70 926 l 70 1000 l 477 1000 l 477 926 l 421 926 l 421 118 q 541 143 483 118 q 641 227 598 169 q 706 379 683 286 q 725 606 730 472 l 835 606 l 835 0 m 717 681 l 663 681 l 695 803 l 580 803 l 580 1014 l 794 1014 l 794 803 l 717 681 "},"Ż":{"x_min":32.0625,"x_max":901.125,"ha":955,"o":"m 865 0 l 32 0 l 534 889 q 416 876 473 889 q 309 832 358 864 q 225 746 261 801 q 172 607 189 691 l 79 607 l 79 1000 l 901 1000 l 398 112 q 451 111 425 109 q 493 115 477 112 q 633 186 573 126 q 732 343 693 247 q 757 426 743 375 q 771 548 771 477 l 865 548 l 865 0 m 586 1072 l 397 1072 l 397 1258 l 586 1258 l 586 1072 "},"o":{"x_min":51,"x_max":1015,"ha":1064,"o":"m 690 500 q 677 688 690 608 q 643 820 664 768 q 593 898 621 872 q 533 924 564 924 q 472 898 501 924 q 422 820 444 872 q 388 688 401 768 q 376 500 376 608 q 388 311 376 391 q 422 179 401 231 q 472 101 444 127 q 533 76 501 76 q 593 101 564 76 q 643 179 621 127 q 677 311 664 231 q 690 500 690 391 m 1015 500 q 976 279 1015 377 q 871 111 937 180 q 718 5 806 43 q 533 -32 630 -32 q 346 5 434 -32 q 194 111 259 43 q 89 279 128 180 q 51 500 51 377 q 89 720 51 622 q 194 888 128 819 q 346 994 259 957 q 533 1032 434 1032 q 718 994 630 1032 q 871 888 806 957 q 976 720 937 819 q 1015 500 1015 622 "},"5":{"x_min":90,"x_max":891.0625,"ha":949,"o":"m 891 329 q 860 163 892 231 q 773 52 828 95 q 644 -11 718 8 q 487 -32 570 -32 q 317 -10 396 -32 q 174 70 237 10 l 174 0 l 90 0 l 90 415 l 200 415 q 214 294 200 355 q 258 183 229 233 q 329 103 287 134 q 426 72 372 72 q 471 81 445 72 q 519 110 497 90 q 556 162 541 130 q 572 244 572 195 q 559 347 572 297 q 519 435 547 397 q 449 497 492 473 q 342 520 405 520 q 256 509 302 520 q 191 480 210 498 l 116 480 l 90 505 l 90 1000 l 788 1000 l 843 714 l 788 714 l 754 760 l 236 760 l 236 606 q 296 632 248 618 q 408 656 344 647 q 544 664 473 665 q 673 643 614 663 q 777 584 735 619 q 843 508 818 549 q 879 420 868 466 q 891 329 891 374 "},"ħ":{"x_min":55.15625,"x_max":1009.828125,"ha":1065,"o":"m 995 0 l 585 0 l 585 74 l 642 74 l 642 436 l 423 436 l 423 74 l 479 74 l 479 0 l 69 0 l 69 74 l 126 74 l 126 703 l 55 703 l 55 806 l 126 806 l 126 926 l 69 926 l 69 1000 l 479 1000 l 479 926 l 423 926 l 423 806 l 642 806 l 642 926 l 585 926 l 585 1000 l 995 1000 l 995 926 l 939 926 l 939 806 l 1009 806 l 1009 703 l 939 703 l 939 74 l 995 74 l 995 0 m 642 583 l 642 703 l 423 703 l 423 583 l 642 583 "},"õ":{"x_min":51,"x_max":1015,"ha":1064,"o":"m 690 500 q 677 688 690 608 q 643 820 664 768 q 593 898 621 872 q 533 924 564 924 q 472 898 501 924 q 422 820 444 872 q 388 688 401 768 q 376 500 376 608 q 388 311 376 391 q 422 179 401 231 q 472 101 444 127 q 533 76 501 76 q 593 101 564 76 q 643 179 621 127 q 677 311 664 231 q 690 500 690 391 m 1015 500 q 976 279 1015 377 q 871 111 937 180 q 718 5 806 43 q 533 -32 630 -32 q 346 5 434 -32 q 194 111 259 43 q 89 279 128 180 q 51 500 51 377 q 89 720 51 622 q 194 888 128 819 q 346 994 259 957 q 533 1032 434 1032 q 718 994 630 1032 q 871 888 806 957 q 976 720 937 819 q 1015 500 1015 622 m 779 1288 q 788 1202 792 1242 q 767 1133 783 1162 q 726 1088 751 1104 q 667 1079 700 1073 l 385 1148 q 364 1144 371 1151 q 353 1126 357 1137 q 350 1101 350 1115 q 350 1076 350 1087 l 279 1076 q 273 1149 271 1109 q 288 1221 275 1188 q 327 1273 301 1254 q 390 1284 353 1292 l 672 1216 q 692 1220 685 1213 q 704 1237 700 1226 q 708 1262 707 1248 q 708 1288 708 1276 l 779 1288 "},",":{"x_min":69,"x_max":307,"ha":376,"o":"m 307 0 l 222 -136 l 162 -136 l 197 0 l 69 0 l 69 235 l 307 235 l 307 0 "},"d":{"x_min":69.046875,"x_max":1029,"ha":1071,"o":"m 722 497 q 696 643 722 572 q 630 768 671 713 q 535 855 589 822 q 423 889 481 889 l 423 111 q 535 142 481 111 q 630 227 589 174 q 696 350 671 280 q 722 497 722 420 m 1029 501 q 981 277 1029 372 q 857 121 934 183 q 683 29 780 59 q 489 0 587 0 l 69 0 l 69 73 l 126 73 l 126 926 l 69 926 l 69 1000 l 452 1000 q 658 969 555 1000 q 843 877 760 938 q 977 721 926 815 q 1029 501 1029 627 "},"\"":{"x_min":69.453125,"x_max":541.703125,"ha":611,"o":"m 269 1035 l 230 656 l 104 656 l 69 1035 l 269 1035 m 541 1035 l 502 656 l 376 656 l 341 1035 l 541 1035 "},"˙":{"x_min":93,"x_max":282,"ha":376,"o":"m 282 1072 l 93 1072 l 93 1258 l 282 1258 l 282 1072 "},"ê":{"x_min":69.046875,"x_max":843,"ha":933,"o":"m 69 0 l 69 73 l 126 73 l 126 926 l 69 926 l 69 1000 l 843 1000 l 843 607 l 749 607 q 711 720 741 666 q 637 813 681 775 q 536 873 593 852 q 418 888 480 894 l 418 639 l 627 639 l 627 492 l 418 492 l 418 111 q 532 132 476 106 q 633 204 588 158 q 707 311 677 249 q 739 441 736 373 l 843 441 l 843 0 l 69 0 m 707 1072 l 544 1072 l 470 1177 l 395 1072 l 230 1072 l 391 1280 l 548 1280 l 707 1072 "},"„":{"x_min":69,"x_max":684,"ha":753,"o":"m 684 0 l 599 -136 l 539 -136 l 574 0 l 446 0 l 446 235 l 684 235 l 684 0 m 307 0 l 222 -136 l 162 -136 l 197 0 l 69 0 l 69 235 l 307 235 l 307 0 "},"ч":{"x_min":62.046875,"x_max":994.953125,"ha":1064,"o":"m 119 926 l 62 926 l 62 1000 l 471 1000 l 471 926 l 415 926 l 415 612 q 446 507 415 534 q 526 480 477 481 q 581 483 550 478 q 642 498 612 488 l 642 926 l 585 926 l 585 1000 l 994 1000 l 994 926 l 938 926 l 938 74 l 994 74 l 994 0 l 585 0 l 585 74 l 642 74 l 642 381 q 578 363 615 370 q 502 351 541 355 q 424 345 462 347 q 358 347 386 344 q 289 358 330 350 q 210 390 248 366 q 146 460 173 415 q 119 580 119 505 l 119 926 "},"ľ":{"x_min":70.046875,"x_max":835,"ha":902,"o":"m 835 0 l 70 0 l 70 73 l 127 73 l 127 926 l 70 926 l 70 1000 l 477 1000 l 477 926 l 421 926 l 421 118 q 541 143 483 118 q 641 227 598 169 q 706 379 683 286 q 725 606 730 472 l 835 606 l 835 0 m 717 681 l 663 681 l 695 803 l 580 803 l 580 1014 l 794 1014 l 794 803 l 717 681 "},"δ":{"x_min":58.34375,"x_max":961.1875,"ha":1020,"o":"m 58 0 l 58 81 l 359 1000 l 657 1000 l 961 81 l 961 0 l 58 0 m 440 808 l 231 157 l 645 157 l 440 808 "},"Â":{"x_min":41.671875,"x_max":1016.75,"ha":1058,"o":"m 612 0 l 612 74 l 669 74 l 619 242 l 320 242 l 269 74 l 326 74 l 326 0 l 41 0 l 41 74 l 98 74 l 354 926 l 280 926 l 280 1000 l 769 1000 l 769 926 l 695 926 l 959 74 l 1016 74 l 1016 0 l 612 0 m 468 752 l 370 414 l 568 414 l 468 752 m 763 1072 l 600 1072 l 526 1177 l 451 1072 l 286 1072 l 447 1280 l 604 1280 l 763 1072 "},"Į":{"x_min":69.453125,"x_max":513.9375,"ha":549,"o":"m 479 1000 l 479 926 l 422 926 l 422 73 l 479 73 l 479 0 q 433 -11 459 -2 q 384 -36 406 -20 q 345 -77 361 -52 q 333 -134 330 -101 q 355 -181 337 -168 q 397 -194 373 -194 q 445 -182 420 -194 q 487 -154 470 -170 l 513 -212 q 463 -263 495 -243 q 394 -294 431 -284 q 318 -301 356 -304 q 249 -283 280 -298 q 198 -238 218 -268 q 179 -165 179 -209 q 213 -65 179 -105 q 300 0 248 -25 l 69 0 l 69 73 l 126 73 l 126 926 l 69 926 l 69 1000 l 479 1000 "},"ė":{"x_min":69.046875,"x_max":843,"ha":933,"o":"m 69 0 l 69 73 l 126 73 l 126 926 l 69 926 l 69 1000 l 843 1000 l 843 607 l 749 607 q 711 720 741 666 q 637 813 681 775 q 536 873 593 852 q 418 888 480 894 l 418 639 l 627 639 l 627 492 l 418 492 l 418 111 q 532 132 476 106 q 633 204 588 158 q 707 311 677 249 q 739 441 736 373 l 843 441 l 843 0 l 69 0 m 574 1072 l 385 1072 l 385 1258 l 574 1258 l 574 1072 "},"ω":{"x_min":55.5625,"x_max":1157.03125,"ha":1213,"o":"m 607 1036 q 802 1011 704 1036 q 979 937 900 987 q 1107 812 1058 887 q 1157 634 1157 737 q 1127 502 1157 564 q 1047 389 1097 440 q 930 300 997 337 q 791 240 863 262 l 791 163 l 876 163 q 985 197 948 163 q 1040 307 1022 232 l 1129 307 l 1129 0 l 661 0 l 661 342 q 708 377 687 355 q 744 435 729 399 q 768 520 759 470 q 776 638 776 570 q 761 783 776 726 q 722 873 747 839 q 668 919 698 906 q 605 933 637 933 q 543 919 573 933 q 488 871 512 905 q 450 781 465 838 q 436 638 436 724 q 467 435 436 502 q 551 342 498 367 l 551 0 l 83 0 l 83 307 l 172 307 q 227 197 190 232 q 336 163 263 163 l 420 163 l 420 240 q 281 300 347 262 q 165 389 215 337 q 85 502 115 440 q 55 634 55 564 q 104 813 55 737 q 233 938 154 888 q 410 1011 312 987 q 607 1036 508 1036 "},"Ţ":{"x_min":58,"x_max":954,"ha":1012,"o":"m 58 1000 l 954 1000 l 954 548 l 840 548 q 829 667 840 607 q 796 774 819 727 q 737 850 773 821 q 652 876 702 878 l 652 74 l 708 74 l 708 0 l 302 0 l 302 74 l 359 74 l 359 876 q 273 850 309 878 q 215 774 238 821 q 182 667 192 727 q 172 548 172 607 l 58 548 l 58 1000 m 626 -275 l 541 -411 l 481 -411 l 516 -275 l 394 -275 l 394 -71 l 626 -71 l 626 -275 "},"Í":{"x_min":69.046875,"x_max":564.984375,"ha":548,"o":"m 478 1000 l 478 926 l 422 926 l 422 74 l 478 74 l 478 0 l 69 0 l 69 74 l 126 74 l 126 926 l 69 926 l 69 1000 l 478 1000 m 342 1072 l 219 1072 l 380 1281 l 564 1281 l 342 1072 "},"´":{"x_min":136.125,"x_max":481.984375,"ha":521,"o":"m 259 1072 l 136 1072 l 297 1281 l 481 1281 l 259 1072 "},"Ơ":{"x_min":51,"x_max":1220,"ha":1262,"o":"m 1015 499 q 976 279 1015 377 q 871 111 937 180 q 718 5 806 43 q 533 -32 630 -32 q 346 5 434 -32 q 194 111 259 43 q 89 279 128 180 q 51 500 51 377 q 89 720 51 622 q 194 888 128 819 q 347 994 259 957 q 533 1032 434 1032 q 673 1011 605 1032 q 799 949 741 990 q 902 851 857 909 q 975 721 947 793 q 1062 755 1025 731 q 1105 812 1098 780 l 1003 812 l 1003 1000 l 1220 1000 l 1220 858 q 1213 815 1220 844 q 1184 755 1207 787 q 1117 694 1161 723 q 996 648 1073 665 q 1010 577 1005 613 q 1015 499 1015 540 m 690 500 q 677 688 690 608 q 643 820 664 768 q 593 898 621 872 q 533 924 564 924 q 472 898 501 924 q 422 820 444 872 q 388 688 401 768 q 376 500 376 608 q 388 311 376 391 q 422 179 401 231 q 472 101 444 127 q 533 76 501 76 q 593 101 564 76 q 643 179 621 127 q 677 311 664 231 q 690 500 690 391 "},"Ú":{"x_min":56.046875,"x_max":959.953125,"ha":1016,"o":"m 745 344 l 745 926 l 688 926 l 688 1000 l 959 1000 l 959 926 l 903 926 l 903 342 q 871 164 903 235 q 788 49 840 92 q 669 -13 736 5 q 530 -32 601 -32 q 358 -10 435 -32 q 226 55 281 11 q 142 167 171 99 q 113 328 113 235 l 113 926 l 56 926 l 56 1000 l 469 1000 l 469 926 l 413 926 l 413 343 q 421 275 413 307 q 449 220 429 244 q 500 184 468 197 q 579 171 532 171 q 658 184 626 171 q 710 222 690 198 q 737 277 729 245 q 745 344 745 308 m 634 1072 l 511 1072 l 672 1281 l 856 1281 l 634 1072 "},"Ŷ":{"x_min":41.078125,"x_max":1102.75,"ha":1145,"o":"m 1102 926 l 1045 926 l 743 423 l 743 74 l 799 74 l 799 0 l 373 0 l 373 74 l 430 74 l 430 423 l 98 926 l 41 926 l 41 1000 l 531 1000 l 531 926 l 474 926 l 647 550 l 840 926 l 783 926 l 783 1000 l 1102 1000 l 1102 926 m 859 1072 l 696 1072 l 622 1177 l 547 1072 l 382 1072 l 543 1280 l 700 1280 l 859 1072 "},"ŝ":{"x_min":65,"x_max":888.484375,"ha":936,"o":"m 886 333 q 867 182 895 250 q 785 67 838 115 q 658 -6 731 19 q 505 -32 585 -32 q 385 -22 440 -32 q 287 2 331 -12 q 208 38 242 18 q 148 77 173 58 l 148 0 l 65 0 l 65 484 l 154 484 l 154 459 q 182 340 154 401 q 252 230 210 280 q 341 145 294 180 q 426 104 388 111 q 529 99 491 91 q 583 127 566 106 q 601 177 601 148 q 592 236 601 206 q 538 322 577 286 q 448 386 498 358 q 345 436 398 413 q 251 479 292 458 q 120 585 166 520 q 69 720 74 650 q 102 859 64 791 q 220 972 139 926 q 363 1020 283 1007 q 516 1032 442 1034 q 594 1023 556 1032 q 663 1003 631 1015 q 721 977 695 991 q 762 951 747 964 l 762 1000 l 844 1000 l 844 604 l 751 604 q 712 722 738 666 q 647 819 686 778 q 561 885 609 861 q 458 910 513 910 q 383 891 413 910 q 345 845 352 873 q 361 782 338 816 q 448 715 384 747 q 531 673 485 694 q 622 629 576 652 q 713 576 669 605 q 794 511 758 547 q 854 432 830 476 q 886 333 879 387 m 719 1072 l 556 1072 l 482 1177 l 407 1072 l 242 1072 l 403 1280 l 560 1280 l 719 1072 "},"Ý":{"x_min":41.078125,"x_max":1102.75,"ha":1145,"o":"m 1102 926 l 1045 926 l 743 423 l 743 74 l 799 74 l 799 0 l 373 0 l 373 74 l 430 74 l 430 423 l 98 926 l 41 926 l 41 1000 l 531 1000 l 531 926 l 474 926 l 647 550 l 840 926 l 783 926 l 783 1000 l 1102 1000 l 1102 926 m 607 1072 l 384 1281 l 569 1281 l 730 1072 l 607 1072 "},"Ĉ":{"x_min":51,"x_max":947.0625,"ha":993,"o":"m 535 77 q 630 126 589 88 q 698 218 671 163 q 736 336 724 272 q 744 466 748 401 l 947 366 q 915 202 948 276 q 824 77 883 129 q 689 -3 766 24 q 527 -32 612 -32 q 349 -2 435 -32 q 197 92 263 27 q 91 257 131 156 q 51 501 51 358 q 94 738 51 638 q 207 904 138 838 q 362 1000 277 969 q 533 1032 448 1032 q 627 1025 588 1032 q 694 1009 666 1019 q 742 984 721 998 q 784 955 763 970 l 824 1000 l 902 1000 l 902 610 l 756 610 q 745 713 760 658 q 701 815 730 768 q 630 893 671 862 q 542 924 589 924 q 478 903 510 924 q 418 835 445 883 q 374 705 391 786 q 358 501 358 623 q 371 309 358 387 q 407 183 384 231 q 462 110 430 134 q 535 77 495 86 m 777 1072 l 614 1072 l 540 1177 l 465 1072 l 300 1072 l 461 1280 l 618 1280 l 777 1072 "},"И":{"x_min":69.046875,"x_max":1009.9375,"ha":1079,"o":"m 423 406 l 656 844 l 656 926 l 599 926 l 599 1000 l 1009 1000 l 1009 926 l 953 926 l 953 74 l 1009 74 l 1009 0 l 599 0 l 599 74 l 656 74 l 655 593 l 423 155 l 423 74 l 479 74 l 479 0 l 69 0 l 69 74 l 126 74 l 126 926 l 69 926 l 69 1000 l 479 1000 l 479 926 l 423 926 l 423 406 "},"ą":{"x_min":41.671875,"x_max":1051.46875,"ha":1058,"o":"m 1016 0 q 970 -11 997 -2 q 921 -36 944 -20 q 883 -77 898 -52 q 870 -134 868 -101 q 893 -181 875 -168 q 934 -194 911 -194 q 983 -182 958 -194 q 1025 -154 1008 -170 l 1051 -212 q 1001 -263 1033 -243 q 932 -294 969 -284 q 856 -301 894 -304 q 786 -283 818 -298 q 736 -238 755 -268 q 716 -165 716 -209 q 751 -65 716 -105 q 837 0 786 -25 l 612 0 l 612 73 l 669 73 l 619 241 l 320 241 l 269 73 l 326 73 l 326 0 l 41 0 l 41 73 l 98 73 l 354 926 l 280 926 l 280 1000 l 769 1000 l 769 926 l 695 926 l 959 73 l 1016 73 l 1016 0 m 468 752 l 370 413 l 568 413 l 468 752 "},"р":{"x_min":69.046875,"x_max":1004,"ha":1025,"o":"m 725 744 q 698 820 725 790 q 629 866 672 850 q 531 888 586 883 q 422 889 477 893 l 422 608 q 555 604 498 595 q 649 634 612 612 q 706 685 687 655 q 725 744 725 715 m 1004 740 q 957 603 1004 661 q 831 513 910 546 q 645 474 751 480 q 422 491 540 468 l 422 74 l 478 74 l 478 0 l 69 0 l 69 74 l 126 74 l 126 926 l 69 926 l 69 1000 l 433 1000 q 676 998 570 1011 q 856 952 783 986 q 966 864 928 918 q 1004 740 1004 811 "},"Ω":{"x_min":55.5625,"x_max":1157.03125,"ha":1213,"o":"m 607 1036 q 802 1011 704 1036 q 979 937 900 987 q 1107 812 1058 887 q 1157 634 1157 737 q 1127 502 1157 564 q 1047 389 1097 440 q 930 300 997 337 q 791 240 863 262 l 791 163 l 876 163 q 985 197 948 163 q 1040 307 1022 232 l 1129 307 l 1129 0 l 661 0 l 661 342 q 708 377 687 355 q 744 435 729 399 q 768 520 759 470 q 776 638 776 570 q 761 783 776 726 q 722 873 747 839 q 668 919 698 906 q 605 933 637 933 q 543 919 573 933 q 488 871 512 905 q 450 781 465 838 q 436 638 436 724 q 467 435 436 502 q 551 342 498 367 l 551 0 l 83 0 l 83 307 l 172 307 q 227 197 190 232 q 336 163 263 163 l 420 163 l 420 240 q 281 300 347 262 q 165 389 215 337 q 85 502 115 440 q 55 634 55 564 q 104 813 55 737 q 233 938 154 888 q 410 1011 312 987 q 607 1036 508 1036 "},"Ȇ":{"x_min":69.046875,"x_max":843,"ha":933,"o":"m 69 0 l 69 73 l 126 73 l 126 926 l 69 926 l 69 1000 l 843 1000 l 843 607 l 749 607 q 711 720 741 666 q 637 813 681 775 q 536 873 593 852 q 418 888 480 894 l 418 639 l 627 639 l 627 492 l 418 492 l 418 111 q 532 132 476 106 q 633 204 588 158 q 707 311 677 249 q 739 441 736 373 l 843 441 l 843 0 l 69 0 m 571 1072 q 543 1151 571 1124 q 472 1179 516 1179 q 399 1151 429 1179 q 370 1072 370 1124 l 235 1072 q 300 1230 235 1173 q 472 1287 366 1287 q 566 1272 523 1287 q 641 1230 609 1257 q 689 1162 672 1202 q 707 1072 707 1121 l 571 1072 "},"т":{"x_min":58,"x_max":954,"ha":1012,"o":"m 58 1000 l 954 1000 l 954 548 l 840 548 q 829 667 840 607 q 796 774 819 727 q 737 850 773 821 q 652 876 702 878 l 652 74 l 708 74 l 708 0 l 302 0 l 302 74 l 359 74 l 359 876 q 273 850 309 878 q 215 774 238 821 q 182 667 192 727 q 172 548 172 607 l 58 548 l 58 1000 "},"П":{"x_min":69.046875,"x_max":995.9375,"ha":1065,"o":"m 423 74 l 479 74 l 479 0 l 69 0 l 69 74 l 126 74 l 126 926 l 69 926 l 69 1000 l 995 1000 l 995 926 l 939 926 l 939 74 l 995 74 l 995 0 l 585 0 l 585 74 l 642 74 l 642 926 l 423 926 l 423 74 "},"Ö":{"x_min":51,"x_max":1015,"ha":1064,"o":"m 690 500 q 677 688 690 608 q 643 820 664 768 q 593 898 621 872 q 533 924 564 924 q 472 898 501 924 q 422 820 444 872 q 388 688 401 768 q 376 500 376 608 q 388 311 376 391 q 422 179 401 231 q 472 101 444 127 q 533 76 501 76 q 593 101 564 76 q 643 179 621 127 q 677 311 664 231 q 690 500 690 391 m 1015 500 q 976 279 1015 377 q 871 111 937 180 q 718 5 806 43 q 533 -32 630 -32 q 346 5 434 -32 q 194 111 259 43 q 89 279 128 180 q 51 500 51 377 q 89 720 51 622 q 194 888 128 819 q 346 994 259 957 q 533 1032 434 1032 q 718 994 630 1032 q 871 888 806 957 q 976 720 937 819 q 1015 500 1015 622 m 498 1173 q 469 1097 498 1129 q 389 1065 441 1065 q 312 1097 341 1065 q 283 1173 283 1129 q 312 1246 283 1215 q 389 1278 341 1278 q 469 1246 441 1278 q 498 1173 498 1215 m 783 1173 q 755 1097 783 1129 q 676 1065 727 1065 q 597 1097 626 1065 q 568 1173 568 1129 q 597 1246 568 1215 q 676 1278 626 1278 q 755 1246 727 1278 q 783 1173 783 1215 "},"z":{"x_min":32.0625,"x_max":901.125,"ha":955,"o":"m 865 0 l 32 0 l 534 889 q 416 876 473 889 q 309 832 358 864 q 225 746 261 801 q 172 607 189 691 l 79 607 l 79 1000 l 901 1000 l 398 112 q 451 111 425 109 q 493 115 477 112 q 633 186 573 126 q 732 343 693 247 q 757 426 743 375 q 771 548 771 477 l 865 548 l 865 0 "},"™":{"x_min":41.9375,"x_max":878,"ha":920,"o":"m 360 939 l 245 939 l 245 499 l 160 499 l 160 939 l 41 939 l 41 1007 l 360 1007 l 360 939 m 616 509 l 497 859 l 497 499 l 414 499 l 414 1007 l 526 1007 l 647 653 l 766 1007 l 878 1007 l 878 499 l 797 499 l 797 859 l 677 509 l 616 509 "},"ȁ":{"x_min":41.671875,"x_max":1016.75,"ha":1058,"o":"m 612 0 l 612 74 l 669 74 l 619 242 l 320 242 l 269 74 l 326 74 l 326 0 l 41 0 l 41 74 l 98 74 l 354 926 l 280 926 l 280 1000 l 769 1000 l 769 926 l 695 926 l 959 74 l 1016 74 l 1016 0 l 612 0 m 468 752 l 370 414 l 568 414 l 468 752 m 337 1072 l 94 1280 l 280 1280 l 466 1072 l 337 1072 m 564 1072 l 362 1280 l 537 1280 l 687 1072 l 564 1072 "},"Θ":{"x_min":51,"x_max":1029,"ha":1080,"o":"m 667 406 l 603 406 l 603 433 l 477 433 l 477 406 l 414 406 l 414 600 l 477 600 l 477 572 l 603 572 l 603 600 l 667 600 l 667 406 m 732 500 q 713 688 732 608 q 668 820 695 768 q 606 898 640 872 q 540 924 572 924 q 473 898 508 924 q 412 820 439 872 q 366 688 384 768 q 348 500 348 608 q 366 311 348 391 q 412 179 384 231 q 473 101 439 127 q 540 76 508 76 q 606 101 572 76 q 668 179 640 127 q 713 311 695 231 q 732 500 732 391 m 1029 500 q 989 279 1029 377 q 882 111 949 180 q 726 5 815 43 q 540 -32 637 -32 q 353 5 441 -32 q 197 111 264 43 q 90 279 130 180 q 51 500 51 377 q 90 720 51 622 q 197 888 130 819 q 353 994 264 957 q 540 1032 441 1032 q 726 994 637 1032 q 882 888 815 957 q 989 720 949 819 q 1029 500 1029 622 "},"ȍ":{"x_min":51,"x_max":1015,"ha":1064,"o":"m 690 500 q 677 688 690 608 q 643 820 664 768 q 593 898 621 872 q 533 924 564 924 q 472 898 501 924 q 422 820 444 872 q 388 688 401 768 q 376 500 376 608 q 388 311 376 391 q 422 179 401 231 q 472 101 444 127 q 533 76 501 76 q 593 101 564 76 q 643 179 621 127 q 677 311 664 231 q 690 500 690 391 m 1015 500 q 976 279 1015 377 q 871 111 937 180 q 718 5 806 43 q 533 -32 630 -32 q 346 5 434 -32 q 194 111 259 43 q 89 279 128 180 q 51 500 51 377 q 89 720 51 622 q 194 888 128 819 q 346 994 259 957 q 533 1032 434 1032 q 718 994 630 1032 q 871 888 806 957 q 976 720 937 819 q 1015 500 1015 622 m 355 1072 l 112 1280 l 298 1280 l 484 1072 l 355 1072 m 582 1072 l 380 1280 l 555 1280 l 705 1072 l 582 1072 "},"Ř":{"x_min":69.046875,"x_max":1038.59375,"ha":1073,"o":"m 715 780 q 598 881 715 860 q 519 889 563 888 q 422 887 474 889 l 422 674 q 715 780 715 655 m 1038 0 l 659 0 l 520 532 l 422 532 l 422 74 l 478 74 l 478 0 l 69 0 l 69 74 l 126 74 l 126 926 l 69 926 l 69 1000 l 445 1000 q 723 997 614 1011 q 893 952 831 984 q 980 873 956 920 q 1005 770 1003 826 q 997 708 1005 743 q 963 641 989 673 q 887 582 937 608 q 753 548 837 557 l 981 74 l 1038 74 l 1038 0 m 277 1289 l 442 1289 l 517 1183 l 591 1289 l 755 1289 l 595 1081 l 438 1081 l 277 1289 "},"ã":{"x_min":41.671875,"x_max":1016.75,"ha":1058,"o":"m 612 0 l 612 74 l 669 74 l 619 242 l 320 242 l 269 74 l 326 74 l 326 0 l 41 0 l 41 74 l 98 74 l 354 926 l 280 926 l 280 1000 l 769 1000 l 769 926 l 695 926 l 959 74 l 1016 74 l 1016 0 l 612 0 m 468 752 l 370 414 l 568 414 l 468 752 m 773 1288 q 782 1202 786 1242 q 761 1133 777 1162 q 720 1088 745 1104 q 661 1079 694 1073 l 379 1148 q 358 1144 365 1151 q 347 1126 351 1137 q 344 1101 344 1115 q 344 1076 344 1087 l 273 1076 q 267 1149 265 1109 q 282 1221 269 1188 q 321 1273 295 1254 q 384 1284 347 1292 l 666 1216 q 686 1220 679 1213 q 698 1237 694 1226 q 702 1262 701 1248 q 702 1288 702 1276 l 773 1288 "},"Ň":{"x_min":69.046875,"x_max":923.953125,"ha":982,"o":"m 867 926 l 867 0 l 702 0 l 261 676 l 261 74 l 317 74 l 317 0 l 69 0 l 69 74 l 126 74 l 126 926 l 69 926 l 69 1000 l 408 1000 l 718 530 l 718 926 l 661 926 l 661 1000 l 923 1000 l 923 926 l 867 926 m 273 1289 l 438 1289 l 513 1183 l 587 1289 l 751 1289 l 591 1081 l 434 1081 l 273 1289 "},"æ":{"x_min":55.78125,"x_max":1431,"ha":1514,"o":"m 710 414 l 710 752 l 512 414 l 710 414 m 1431 0 l 1044 0 l 657 0 l 657 74 l 710 74 l 710 242 l 397 242 l 297 74 l 354 74 l 354 0 l 55 0 l 55 74 l 112 74 l 641 926 l 540 926 l 540 1000 l 1431 1000 l 1431 607 l 1337 607 q 1299 720 1329 666 q 1225 813 1269 775 q 1124 873 1181 852 q 1006 888 1068 894 l 1006 639 l 1215 639 l 1215 492 l 1006 492 l 1006 111 q 1120 132 1064 106 q 1221 204 1176 158 q 1295 311 1265 249 q 1327 441 1324 373 l 1431 441 l 1431 0 "},"ĩ":{"x_min":18,"x_max":534.09375,"ha":548,"o":"m 478 1000 l 478 926 l 422 926 l 422 74 l 478 74 l 478 0 l 69 0 l 69 74 l 126 74 l 126 926 l 69 926 l 69 1000 l 478 1000 m 524 1288 q 533 1202 537 1242 q 512 1133 528 1162 q 471 1088 496 1104 q 412 1079 445 1073 l 130 1148 q 109 1144 116 1151 q 98 1126 102 1137 q 95 1101 95 1115 q 95 1076 95 1087 l 24 1076 q 18 1149 16 1109 q 33 1221 20 1188 q 72 1273 46 1254 q 135 1284 98 1292 l 417 1216 q 437 1220 430 1213 q 449 1237 445 1226 q 453 1262 452 1248 q 453 1288 453 1276 l 524 1288 "},"É":{"x_min":69.046875,"x_max":843,"ha":933,"o":"m 69 0 l 69 73 l 126 73 l 126 926 l 69 926 l 69 1000 l 843 1000 l 843 607 l 749 607 q 711 720 741 666 q 637 813 681 775 q 536 873 593 852 q 418 888 480 894 l 418 639 l 627 639 l 627 492 l 418 492 l 418 111 q 532 132 476 106 q 633 204 588 158 q 707 311 677 249 q 739 441 736 373 l 843 441 l 843 0 l 69 0 m 509 1072 l 386 1072 l 547 1281 l 731 1281 l 509 1072 "},"и":{"x_min":69.046875,"x_max":1009.9375,"ha":1079,"o":"m 423 406 l 656 844 l 656 926 l 599 926 l 599 1000 l 1009 1000 l 1009 926 l 953 926 l 953 74 l 1009 74 l 1009 0 l 599 0 l 599 74 l 656 74 l 655 593 l 423 155 l 423 74 l 479 74 l 479 0 l 69 0 l 69 74 l 126 74 l 126 926 l 69 926 l 69 1000 l 479 1000 l 479 926 l 423 926 l 423 406 "},"ŀ":{"x_min":70.046875,"x_max":835,"ha":902,"o":"m 835 0 l 70 0 l 70 73 l 127 73 l 127 926 l 70 926 l 70 1000 l 477 1000 l 477 926 l 421 926 l 421 118 q 541 143 483 118 q 641 227 598 169 q 706 379 683 286 q 725 606 730 472 l 835 606 l 835 0 m 700 639 l 511 639 l 511 825 l 700 825 l 700 639 "},"~":{"x_min":60,"x_max":576.09375,"ha":635,"o":"m 566 984 q 575 898 579 938 q 554 829 570 858 q 513 784 538 800 q 454 775 487 769 l 172 844 q 151 840 158 847 q 140 822 144 833 q 137 797 137 811 q 137 772 137 783 l 66 772 q 60 845 58 805 q 75 917 62 884 q 114 969 88 950 q 177 980 140 988 l 459 912 q 479 916 472 909 q 491 933 487 922 q 495 958 494 944 q 495 984 495 972 l 566 984 "},"Ċ":{"x_min":51,"x_max":947.0625,"ha":1006,"o":"m 535 77 q 630 126 589 88 q 698 218 671 163 q 736 336 724 272 q 744 466 748 401 l 947 366 q 915 202 948 276 q 824 77 883 129 q 689 -3 766 24 q 527 -32 612 -32 q 349 -2 435 -32 q 197 92 263 27 q 91 257 131 156 q 51 501 51 358 q 94 738 51 638 q 207 904 138 838 q 362 1000 277 969 q 533 1032 448 1032 q 627 1025 588 1032 q 694 1009 666 1019 q 742 984 721 998 q 784 955 763 970 l 824 1000 l 902 1000 l 902 610 l 756 610 q 745 713 760 658 q 701 815 730 768 q 630 893 671 862 q 542 924 589 924 q 478 903 510 924 q 418 835 445 883 q 374 705 391 786 q 358 501 358 623 q 371 309 358 387 q 407 183 384 231 q 462 110 430 134 q 535 77 495 86 m 626 1079 l 437 1079 l 437 1265 l 626 1265 l 626 1079 "},"³":{"x_min":83,"x_max":772,"ha":828,"o":"m 772 413 q 741 279 772 334 q 658 189 710 223 q 537 139 606 154 q 388 124 467 124 q 256 141 320 124 q 161 193 192 158 l 161 151 l 83 151 l 83 505 l 166 505 q 240 291 181 362 q 377 221 298 221 q 423 234 399 221 q 467 270 447 247 q 499 327 487 294 q 511 402 512 361 q 498 474 509 444 q 469 523 487 504 q 431 551 452 542 q 389 561 410 561 l 309 561 l 309 654 l 381 654 q 474 686 448 654 q 501 788 501 719 q 490 847 501 820 q 463 894 480 874 q 426 924 446 913 q 388 936 406 936 q 311 918 345 936 q 254 873 278 901 q 214 810 229 845 q 188 735 198 774 l 91 735 l 91 1001 l 169 1001 l 169 951 q 287 1011 224 995 q 421 1028 350 1028 q 523 1018 469 1028 q 624 984 577 1008 q 705 922 671 961 q 746 825 739 883 q 742 750 752 784 q 712 690 733 716 q 662 645 692 663 q 595 622 631 627 q 662 602 630 619 q 719 558 695 586 q 757 495 742 531 q 772 413 772 458 "},"¡":{"x_min":69.453125,"x_max":422.25,"ha":492,"o":"m 126 712 l 126 947 l 364 947 l 364 712 l 126 712 m 69 -53 l 69 20 l 144 597 l 347 597 l 422 20 l 422 -53 l 69 -53 "},"[":{"x_min":69,"x_max":363,"ha":350,"o":"m 69 1153 l 363 1153 l 363 1070 l 272 1070 l 272 -69 l 363 -69 l 363 -150 l 69 -150 l 69 1153 "},"ζ":{"x_min":32.0625,"x_max":901.125,"ha":957,"o":"m 865 0 l 32 0 l 534 889 q 416 876 473 889 q 309 832 358 864 q 225 746 261 801 q 172 607 189 691 l 79 607 l 79 1000 l 901 1000 l 398 112 q 451 111 425 109 q 493 115 477 112 q 633 186 573 126 q 732 343 693 247 q 757 426 743 375 q 771 548 771 477 l 865 548 l 865 0 "},"К":{"x_min":69.046875,"x_max":1047.0625,"ha":1075,"o":"m 422 560 q 522 632 483 587 q 590 729 562 677 q 642 835 619 781 q 697 933 666 889 q 774 1004 728 976 q 888 1032 819 1032 q 956 1024 923 1032 q 1012 1000 988 1016 l 1012 846 l 928 846 q 908 882 928 875 q 873 873 888 889 q 839 825 853 855 q 808 759 824 794 q 771 687 791 723 q 720 619 751 650 q 772 566 745 600 q 831 469 799 532 q 902 311 863 407 q 990 74 941 215 l 1047 74 l 1047 0 l 684 0 q 638 189 659 112 q 599 320 617 267 q 566 408 581 374 q 537 468 551 443 q 486 441 517 457 q 422 414 455 425 l 422 74 l 478 74 l 478 0 l 69 0 l 69 74 l 126 74 l 126 926 l 69 926 l 69 1000 l 478 1000 l 478 926 l 422 926 l 422 560 l 422 560 "},"Γ":{"x_min":69.046875,"x_max":851.203125,"ha":907,"o":"m 758 607 q 718 721 748 668 q 644 814 688 775 q 542 873 599 852 q 422 889 485 893 l 422 74 l 478 74 l 478 0 l 69 0 l 69 74 l 126 74 l 126 926 l 69 926 l 69 1000 l 851 1000 l 851 607 l 758 607 "},"Ȑ":{"x_min":69.046875,"x_max":1038.59375,"ha":1073,"o":"m 715 780 q 598 881 715 860 q 519 889 563 888 q 422 887 474 889 l 422 674 q 715 780 715 655 m 1038 0 l 659 0 l 520 532 l 422 532 l 422 74 l 478 74 l 478 0 l 69 0 l 69 74 l 126 74 l 126 926 l 69 926 l 69 1000 l 445 1000 q 723 997 614 1011 q 893 952 831 984 q 980 873 956 920 q 1005 770 1003 826 q 997 708 1005 743 q 963 641 989 673 q 887 582 937 608 q 753 548 837 557 l 981 74 l 1038 74 l 1038 0 m 345 1072 l 102 1280 l 288 1280 l 474 1072 l 345 1072 m 572 1072 l 370 1280 l 545 1280 l 695 1072 l 572 1072 "},"%":{"x_min":68,"x_max":1025,"ha":1093,"o":"m 894 198 q 872 250 894 228 q 819 273 851 273 q 765 250 787 273 q 743 198 743 228 q 765 144 743 166 q 819 122 787 122 q 872 144 851 122 q 894 198 894 166 m 350 811 q 327 864 350 842 q 273 886 305 886 q 219 864 241 886 q 197 811 197 842 q 219 758 197 780 q 273 736 241 736 q 327 758 305 736 q 350 811 350 780 m 1025 197 q 1009 116 1025 153 q 965 50 993 78 q 900 5 937 21 q 819 -10 862 -10 q 738 5 776 -10 q 673 50 701 21 q 629 116 645 78 q 614 197 614 153 q 629 277 614 240 q 673 342 645 315 q 738 387 701 370 q 819 404 776 404 q 900 387 862 404 q 965 342 937 370 q 1009 277 993 315 q 1025 197 1025 240 m 804 1015 l 445 -10 l 274 -10 l 647 1015 l 804 1015 m 479 811 q 463 730 479 767 q 419 664 447 692 q 354 621 391 637 q 273 605 316 605 q 192 621 230 605 q 127 664 155 637 q 83 730 99 692 q 68 811 68 767 q 83 891 68 854 q 127 957 99 929 q 192 1000 155 984 q 273 1017 230 1017 q 354 1000 316 1017 q 419 957 391 984 q 463 891 447 929 q 479 811 479 854 "},"P":{"x_min":69.046875,"x_max":1004,"ha":1025,"o":"m 725 744 q 698 820 725 790 q 629 866 672 850 q 531 888 586 883 q 422 889 477 893 l 422 608 q 555 604 498 595 q 649 634 612 612 q 706 685 687 655 q 725 744 725 715 m 1004 740 q 957 603 1004 661 q 831 513 910 546 q 645 474 751 480 q 422 491 540 468 l 422 74 l 478 74 l 478 0 l 69 0 l 69 74 l 126 74 l 126 926 l 69 926 l 69 1000 l 433 1000 q 676 998 570 1011 q 856 952 783 986 q 966 864 928 918 q 1004 740 1004 811 "},"_":{"x_min":68.0625,"x_max":736.171875,"ha":803,"o":"m 736 -144 l 68 -144 l 68 0 l 736 0 l 736 -144 "},"Ŕ":{"x_min":69.046875,"x_max":1038.59375,"ha":1073,"o":"m 715 780 q 598 881 715 860 q 519 889 563 888 q 422 887 474 889 l 422 674 q 715 780 715 655 m 1038 0 l 659 0 l 520 532 l 422 532 l 422 74 l 478 74 l 478 0 l 69 0 l 69 74 l 126 74 l 126 926 l 69 926 l 69 1000 l 445 1000 q 723 997 614 1011 q 893 952 831 984 q 980 873 956 920 q 1005 770 1003 826 q 997 708 1005 743 q 963 641 989 673 q 887 582 937 608 q 753 548 837 557 l 981 74 l 1038 74 l 1038 0 m 585 1072 l 462 1072 l 623 1281 l 807 1281 l 585 1072 "},"ñ":{"x_min":69.046875,"x_max":923.953125,"ha":982,"o":"m 867 926 l 867 0 l 702 0 l 261 676 l 261 74 l 317 74 l 317 0 l 69 0 l 69 74 l 126 74 l 126 926 l 69 926 l 69 1000 l 408 1000 l 718 530 l 718 926 l 661 926 l 661 1000 l 923 1000 l 923 926 l 867 926 m 749 1290 q 758 1204 762 1244 q 737 1135 753 1164 q 696 1090 721 1106 q 637 1081 670 1075 l 355 1150 q 334 1146 341 1153 q 323 1128 327 1139 q 320 1103 320 1117 q 320 1078 320 1089 l 249 1078 q 243 1151 241 1111 q 258 1223 245 1190 q 297 1275 271 1256 q 360 1286 323 1294 l 642 1218 q 662 1222 655 1215 q 674 1239 670 1228 q 678 1264 677 1250 q 678 1290 678 1278 l 749 1290 "},"‚":{"x_min":69,"x_max":307,"ha":376,"o":"m 307 0 l 222 -136 l 162 -136 l 197 0 l 69 0 l 69 235 l 307 235 l 307 0 "},"Ρ":{"x_min":69.046875,"x_max":1004,"ha":1025,"o":"m 725 744 q 698 820 725 790 q 629 866 672 850 q 531 888 586 883 q 422 889 477 893 l 422 608 q 555 604 498 595 q 649 634 612 612 q 706 685 687 655 q 725 744 725 715 m 1004 740 q 957 603 1004 661 q 831 513 910 546 q 645 474 751 480 q 422 491 540 468 l 422 74 l 478 74 l 478 0 l 69 0 l 69 74 l 126 74 l 126 926 l 69 926 l 69 1000 l 433 1000 q 676 998 570 1011 q 856 952 783 986 q 966 864 928 918 q 1004 740 1004 811 "},"Æ":{"x_min":55.78125,"x_max":1431,"ha":1514,"o":"m 710 414 l 710 752 l 512 414 l 710 414 m 1431 0 l 1044 0 l 657 0 l 657 74 l 710 74 l 710 242 l 397 242 l 297 74 l 354 74 l 354 0 l 55 0 l 55 74 l 112 74 l 641 926 l 540 926 l 540 1000 l 1431 1000 l 1431 607 l 1337 607 q 1299 720 1329 666 q 1225 813 1269 775 q 1124 873 1181 852 q 1006 888 1068 894 l 1006 639 l 1215 639 l 1215 492 l 1006 492 l 1006 111 q 1120 132 1064 106 q 1221 204 1176 158 q 1295 311 1265 249 q 1327 441 1324 373 l 1431 441 l 1431 0 "},"ğ":{"x_min":51,"x_max":972.71875,"ha":1017,"o":"m 972 472 l 913 472 l 913 201 q 884 117 913 159 q 805 42 856 75 q 688 -10 755 9 q 543 -31 621 -31 q 341 3 431 -31 q 186 104 251 37 q 86 271 121 171 q 51 502 51 371 q 94 740 51 640 q 208 904 138 840 q 363 1000 277 969 q 534 1032 449 1032 q 691 1008 633 1032 q 786 955 748 984 l 825 1000 l 903 1000 l 903 610 l 756 610 q 746 713 761 658 q 701 815 731 768 q 631 893 672 862 q 542 924 589 924 q 478 903 510 924 q 419 835 446 883 q 375 706 392 787 q 359 502 359 624 q 369 310 359 388 q 400 184 379 233 q 450 111 420 135 q 517 78 480 87 q 553 78 534 76 q 588 87 572 80 q 616 108 605 95 q 628 141 628 121 l 628 472 l 540 472 l 540 546 l 972 546 l 972 472 m 771 1280 q 753 1190 771 1230 q 705 1122 736 1149 q 631 1079 674 1094 q 536 1065 587 1065 q 365 1122 431 1065 q 299 1280 299 1179 l 433 1280 q 463 1200 433 1227 q 536 1173 493 1173 q 608 1200 581 1173 q 635 1280 635 1227 l 771 1280 "},"":{"x_min":9.71875,"x_max":602.828125,"ha":624,"o":"m 252 1072 l 9 1280 l 195 1280 l 381 1072 l 252 1072 m 479 1072 l 277 1280 l 452 1280 l 602 1072 l 479 1072 "},"ы":{"x_min":69.046875,"x_max":1526.953125,"ha":1596,"o":"m 422 607 q 652 605 556 616 q 814 569 748 594 q 919 509 880 544 q 979 434 958 473 q 1006 358 1000 395 q 1013 290 1013 320 q 976 151 1013 211 q 873 52 940 91 q 688 -2 798 9 q 449 0 577 -13 l 69 0 l 69 74 l 126 74 l 126 926 l 69 926 l 69 1000 l 478 1000 l 478 926 l 422 926 l 422 607 m 422 102 q 546 107 492 95 q 635 145 599 119 q 688 209 670 172 q 707 292 707 247 q 690 371 707 328 q 629 442 673 413 q 526 476 579 473 q 422 479 474 479 l 422 102 m 1526 1000 l 1526 926 l 1470 926 l 1470 74 l 1526 74 l 1526 0 l 1117 0 l 1117 74 l 1174 74 l 1174 926 l 1117 926 l 1117 1000 l 1526 1000 "},"Ū":{"x_min":56.046875,"x_max":959.953125,"ha":1016,"o":"m 745 344 l 745 926 l 688 926 l 688 1000 l 959 1000 l 959 926 l 903 926 l 903 342 q 871 164 903 235 q 788 49 840 92 q 669 -13 736 5 q 530 -32 601 -32 q 358 -10 435 -32 q 226 55 281 11 q 142 167 171 99 q 113 328 113 235 l 113 926 l 56 926 l 56 1000 l 469 1000 l 469 926 l 413 926 l 413 343 q 421 275 413 307 q 449 220 429 244 q 500 184 468 197 q 579 171 532 171 q 658 184 626 171 q 710 222 690 198 q 737 277 729 245 q 745 344 745 308 m 267 1192 l 777 1192 l 777 1081 l 267 1081 l 267 1192 "},"ª":{"x_min":41.6875,"x_max":671.234375,"ha":713,"o":"m 407 545 l 407 725 q 303 663 340 706 q 256 575 266 620 q 261 496 247 530 q 313 462 276 462 q 344 466 327 462 q 375 480 361 470 q 397 505 388 489 q 407 545 407 521 m 671 344 l 434 344 q 412 380 418 359 q 407 425 407 402 q 333 349 383 377 q 219 322 283 322 q 86 369 131 322 q 41 499 41 416 q 63 599 41 551 q 131 689 86 648 q 246 762 177 730 q 407 811 315 794 l 407 851 q 381 923 407 896 q 306 937 355 950 q 259 914 283 932 q 215 871 236 896 q 177 818 194 845 q 151 765 161 790 l 90 765 l 90 1010 l 154 1010 l 154 964 q 268 1018 212 1005 q 387 1032 325 1032 q 469 1019 427 1032 q 546 981 511 1006 q 602 918 580 956 q 624 827 624 879 l 624 473 q 625 449 624 462 q 631 426 626 437 q 646 409 636 416 q 671 402 655 402 l 671 344 "},"Œ":{"x_min":51,"x_max":1428,"ha":1518,"o":"m 704 0 q 533 -32 623 -32 q 346 5 434 -32 q 194 111 259 43 q 89 279 128 180 q 51 500 51 377 q 89 720 51 622 q 194 888 128 819 q 346 994 259 957 q 533 1032 434 1032 q 704 1000 623 1032 l 1428 1000 l 1428 607 l 1334 607 q 1296 720 1326 666 q 1222 813 1266 775 q 1121 873 1178 852 q 1003 888 1065 894 l 1003 639 l 1212 639 l 1212 492 l 1003 492 l 1003 111 q 1117 132 1061 106 q 1218 204 1173 158 q 1292 311 1262 249 q 1324 441 1321 373 l 1428 441 l 1428 0 l 704 0 m 690 500 q 677 688 690 608 q 643 820 664 768 q 593 898 621 872 q 533 924 564 924 q 472 898 501 924 q 422 820 444 872 q 388 688 401 768 q 376 500 376 608 q 388 311 376 391 q 422 179 401 231 q 472 101 444 127 q 533 76 501 76 q 593 101 564 76 q 643 179 621 127 q 677 311 664 231 q 690 500 690 391 "},"Ą":{"x_min":41.671875,"x_max":1051.46875,"ha":1058,"o":"m 1016 0 q 970 -11 997 -2 q 921 -36 944 -20 q 883 -77 898 -52 q 870 -134 868 -101 q 893 -181 875 -168 q 934 -194 911 -194 q 983 -182 958 -194 q 1025 -154 1008 -170 l 1051 -212 q 1001 -263 1033 -243 q 932 -294 969 -284 q 856 -301 894 -304 q 786 -283 818 -298 q 736 -238 755 -268 q 716 -165 716 -209 q 751 -65 716 -105 q 837 0 786 -25 l 612 0 l 612 73 l 669 73 l 619 241 l 320 241 l 269 73 l 326 73 l 326 0 l 41 0 l 41 73 l 98 73 l 354 926 l 280 926 l 280 1000 l 769 1000 l 769 926 l 695 926 l 959 73 l 1016 73 l 1016 0 m 468 752 l 370 413 l 568 413 l 468 752 "},"T":{"x_min":58,"x_max":954,"ha":1012,"o":"m 58 1000 l 954 1000 l 954 548 l 840 548 q 829 667 840 607 q 796 774 819 727 q 737 850 773 821 q 652 876 702 878 l 652 74 l 708 74 l 708 0 l 302 0 l 302 74 l 359 74 l 359 876 q 273 850 309 878 q 215 774 238 821 q 182 667 192 727 q 172 548 172 607 l 58 548 l 58 1000 "},"š":{"x_min":58,"x_max":695.9375,"ha":732,"o":"m 657 776 l 657 472 l 582 472 q 559 561 579 518 q 509 636 540 603 q 438 688 479 668 q 354 709 398 709 q 311 697 326 709 q 293 666 295 685 q 297 636 291 650 q 313 610 304 623 q 335 588 323 598 q 358 571 347 578 q 474 493 411 535 q 593 398 537 452 q 662 308 637 353 q 693 220 687 263 q 689 138 699 177 q 654 69 679 100 q 551 0 620 29 q 376 -29 483 -29 q 251 -6 313 -29 q 129 50 188 15 l 95 0 l 58 0 l 58 407 l 129 407 q 143 290 129 346 q 187 192 158 235 q 260 124 216 149 q 362 99 304 99 q 401 108 384 99 q 429 132 419 117 q 442 169 440 148 q 434 211 444 189 q 400 257 424 233 q 344 305 376 280 q 276 354 312 329 q 205 407 240 380 q 153 446 179 427 q 108 486 127 465 q 76 535 88 508 q 64 598 64 562 q 88 687 64 648 q 152 753 112 726 q 245 794 193 780 q 351 808 297 808 q 454 797 401 808 q 548 776 508 787 l 657 776 m 135 1067 l 300 1067 l 374 961 l 448 1067 l 612 1067 l 452 859 l 296 859 l 135 1067 "},"Þ":{"x_min":69.046875,"x_max":1004,"ha":1025,"o":"m 725 493 q 699 568 725 538 q 631 613 673 597 q 534 635 588 630 q 422 634 480 640 l 422 354 q 555 350 498 341 q 649 380 612 358 q 706 433 687 402 q 725 493 725 463 m 478 926 l 422 926 l 422 747 q 672 753 563 763 q 854 708 780 742 q 966 620 929 674 q 1004 495 1004 566 q 957 357 1004 416 q 831 264 910 298 q 645 221 751 229 q 422 237 540 214 l 422 74 l 478 74 l 478 0 l 69 0 l 69 74 l 126 74 l 126 926 l 69 926 l 69 1000 l 478 1000 l 478 926 "},"j":{"x_min":65,"x_max":860.953125,"ha":917,"o":"m 187 546 q 202 361 187 444 q 247 218 218 277 q 313 127 275 159 q 392 96 350 96 q 454 120 431 96 q 489 179 477 144 q 504 254 501 215 q 508 325 508 294 l 508 926 l 451 926 l 451 1000 l 860 1000 l 860 926 l 804 926 l 804 313 q 776 165 804 230 q 699 54 748 99 q 583 -14 651 9 q 435 -39 516 -39 q 328 -27 371 -39 q 252 0 284 -16 q 196 39 220 18 q 146 82 171 61 l 146 0 l 65 0 l 65 546 l 187 546 "},"Σ":{"x_min":34.3125,"x_max":833,"ha":923,"o":"m 34 0 l 34 112 l 344 441 l 34 837 l 34 1000 l 833 1000 l 833 648 l 743 648 q 656 834 732 779 q 455 889 581 889 l 323 889 l 579 559 l 579 491 l 280 181 l 497 181 q 600 206 556 181 q 672 269 643 232 q 716 350 701 307 q 732 428 730 393 l 833 428 l 833 0 l 34 0 "},"1":{"x_min":62.15625,"x_max":482.84375,"ha":540,"o":"m 482 0 l 62 0 l 62 74 l 133 74 l 133 884 l 62 884 l 62 958 q 167 968 121 958 q 253 1000 213 977 l 412 1000 l 412 74 l 482 74 l 482 0 "},"›":{"x_min":69.453125,"x_max":409.75,"ha":465,"o":"m 409 307 l 69 6 l 69 214 l 263 366 l 263 419 l 69 574 l 69 783 l 409 481 l 409 307 "},"<":{"x_min":68.0625,"x_max":608.375,"ha":675,"o":"m 608 124 l 68 428 l 68 576 l 608 882 l 608 683 l 231 503 l 608 321 l 608 124 "},"Ц":{"x_min":70.046875,"x_max":1065,"ha":1107,"o":"m 127 74 l 127 926 l 70 926 l 70 1000 l 480 1000 l 480 926 l 424 926 l 424 74 l 642 74 l 642 926 l 585 926 l 585 1000 l 995 1000 l 995 926 l 939 926 l 939 74 l 1065 74 l 1065 -252 l 951 -252 q 942 -162 951 -207 q 915 -81 934 -117 q 868 -22 896 -45 q 801 0 840 0 l 70 0 l 70 74 l 127 74 "},"t":{"x_min":58,"x_max":954,"ha":1012,"o":"m 58 1000 l 954 1000 l 954 548 l 840 548 q 829 667 840 607 q 796 774 819 727 q 737 850 773 821 q 652 876 702 878 l 652 74 l 708 74 l 708 0 l 302 0 l 302 74 l 359 74 l 359 876 q 273 850 309 878 q 215 774 238 821 q 182 667 192 727 q 172 548 172 607 l 58 548 l 58 1000 "},"¬":{"x_min":69.578125,"x_max":690,"ha":759,"o":"m 69 608 l 690 608 l 690 213 l 521 213 l 521 455 l 69 455 l 69 608 "},"Ȳ":{"x_min":41.078125,"x_max":1102.75,"ha":1145,"o":"m 1102 926 l 1045 926 l 743 423 l 743 74 l 799 74 l 799 0 l 373 0 l 373 74 l 430 74 l 430 423 l 98 926 l 41 926 l 41 1000 l 531 1000 l 531 926 l 474 926 l 647 550 l 840 926 l 783 926 l 783 1000 l 1102 1000 l 1102 926 m 334 1192 l 844 1192 l 844 1081 l 334 1081 l 334 1192 "},"ù":{"x_min":56.046875,"x_max":959.953125,"ha":1016,"o":"m 745 344 l 745 926 l 688 926 l 688 1000 l 959 1000 l 959 926 l 903 926 l 903 342 q 871 164 903 235 q 788 49 840 92 q 669 -13 736 5 q 530 -32 601 -32 q 358 -10 435 -32 q 226 55 281 11 q 142 167 171 99 q 113 328 113 235 l 113 926 l 56 926 l 56 1000 l 469 1000 l 469 926 l 413 926 l 413 343 q 421 275 413 307 q 449 220 429 244 q 500 184 468 197 q 579 171 532 171 q 658 184 626 171 q 710 222 690 198 q 737 277 729 245 q 745 344 745 308 m 514 1072 l 291 1281 l 476 1281 l 637 1072 l 514 1072 "},"Ф":{"x_min":37,"x_max":1319,"ha":1350,"o":"m 882 1000 l 882 926 l 826 926 l 826 855 q 1010 823 921 851 q 1168 749 1099 795 q 1278 640 1237 703 q 1319 500 1319 576 q 1278 359 1319 422 q 1168 250 1237 296 q 1010 176 1099 204 q 826 144 921 148 l 826 74 l 882 74 l 882 0 l 473 0 l 473 74 l 530 74 l 530 144 q 345 176 434 148 q 187 250 256 204 q 77 359 118 296 q 37 500 37 422 q 77 640 37 576 q 187 749 118 703 q 345 823 256 795 q 530 855 434 851 l 530 926 l 473 926 l 473 1000 l 882 1000 m 530 766 q 475 736 503 756 q 423 684 446 716 q 384 606 399 652 q 369 500 369 561 q 384 393 369 438 q 423 315 399 347 q 475 263 446 283 q 530 233 503 243 l 530 766 m 987 500 q 971 606 987 561 q 932 684 956 652 q 880 736 909 716 q 826 766 852 756 l 825 233 q 880 263 852 243 q 932 315 909 283 q 971 393 956 347 q 987 500 987 438 "},"ĉ":{"x_min":51,"x_max":947.0625,"ha":993,"o":"m 535 77 q 630 126 589 88 q 698 218 671 163 q 736 336 724 272 q 744 466 748 401 l 947 366 q 915 202 948 276 q 824 77 883 129 q 689 -3 766 24 q 527 -32 612 -32 q 349 -2 435 -32 q 197 92 263 27 q 91 257 131 156 q 51 501 51 358 q 94 738 51 638 q 207 904 138 838 q 362 1000 277 969 q 533 1032 448 1032 q 627 1025 588 1032 q 694 1009 666 1019 q 742 984 721 998 q 784 955 763 970 l 824 1000 l 902 1000 l 902 610 l 756 610 q 745 713 760 658 q 701 815 730 768 q 630 893 671 862 q 542 924 589 924 q 478 903 510 924 q 418 835 445 883 q 374 705 391 786 q 358 501 358 623 q 371 309 358 387 q 407 183 384 231 q 462 110 430 134 q 535 77 495 86 m 777 1072 l 614 1072 l 540 1177 l 465 1072 l 300 1072 l 461 1280 l 618 1280 l 777 1072 "},"ï":{"x_min":25,"x_max":525,"ha":548,"o":"m 478 1000 l 478 926 l 422 926 l 422 74 l 478 74 l 478 0 l 69 0 l 69 74 l 126 74 l 126 926 l 69 926 l 69 1000 l 478 1000 m 240 1174 q 211 1098 240 1130 q 131 1066 183 1066 q 54 1098 83 1066 q 25 1174 25 1130 q 54 1247 25 1216 q 131 1279 83 1279 q 211 1247 183 1279 q 240 1174 240 1216 m 525 1174 q 497 1098 525 1130 q 418 1066 469 1066 q 339 1098 368 1066 q 310 1174 310 1130 q 339 1247 310 1216 q 418 1279 368 1279 q 497 1247 469 1279 q 525 1174 525 1216 "},"ī":{"x_min":20.671875,"x_max":530.4375,"ha":548,"o":"m 478 1000 l 478 926 l 422 926 l 422 74 l 478 74 l 478 0 l 69 0 l 69 74 l 126 74 l 126 926 l 69 926 l 69 1000 l 478 1000 m 20 1192 l 530 1192 l 530 1081 l 20 1081 l 20 1192 "},"Ò":{"x_min":51,"x_max":1015,"ha":1064,"o":"m 690 500 q 677 688 690 608 q 643 820 664 768 q 593 898 621 872 q 533 924 564 924 q 472 898 501 924 q 422 820 444 872 q 388 688 401 768 q 376 500 376 608 q 388 311 376 391 q 422 179 401 231 q 472 101 444 127 q 533 76 501 76 q 593 101 564 76 q 643 179 621 127 q 677 311 664 231 q 690 500 690 391 m 1015 500 q 976 279 1015 377 q 871 111 937 180 q 718 5 806 43 q 533 -32 630 -32 q 346 5 434 -32 q 194 111 259 43 q 89 279 128 180 q 51 500 51 377 q 89 720 51 622 q 194 888 128 819 q 346 994 259 957 q 533 1032 434 1032 q 718 994 630 1032 q 871 888 806 957 q 976 720 937 819 q 1015 500 1015 622 m 472 1072 l 249 1281 l 434 1281 l 595 1072 l 472 1072 "},"О":{"x_min":51,"x_max":1015,"ha":1067,"o":"m 690 500 q 677 688 690 608 q 643 820 664 768 q 593 898 621 872 q 533 924 564 924 q 472 898 501 924 q 422 820 444 872 q 388 688 401 768 q 376 500 376 608 q 388 311 376 391 q 422 179 401 231 q 472 101 444 127 q 533 76 501 76 q 593 101 564 76 q 643 179 621 127 q 677 311 664 231 q 690 500 690 391 m 1015 500 q 976 279 1015 377 q 871 111 937 180 q 718 5 806 43 q 533 -32 630 -32 q 346 5 434 -32 q 194 111 259 43 q 89 279 128 180 q 51 500 51 377 q 89 720 51 622 q 194 888 128 819 q 346 994 259 957 q 533 1032 434 1032 q 718 994 630 1032 q 871 888 806 957 q 976 720 937 819 q 1015 500 1015 622 "},"ξ":{"x_min":90.28125,"x_max":862.5625,"ha":953,"o":"m 493 139 q 603 147 555 139 q 685 177 651 155 q 740 238 719 200 q 769 338 761 276 l 862 338 l 862 0 l 90 0 l 90 338 l 183 338 q 212 238 191 276 q 267 177 233 200 q 349 147 301 155 q 459 139 397 139 l 493 139 m 459 861 q 349 852 397 861 q 267 822 301 844 q 212 760 233 799 q 183 662 191 721 l 90 662 l 90 1000 l 862 1000 l 862 662 l 769 662 q 740 760 761 721 q 685 822 719 799 q 603 852 651 844 q 493 861 555 861 l 459 861 m 719 372 l 641 372 l 641 413 l 308 413 l 308 372 l 230 372 l 230 628 l 308 628 l 308 588 l 641 588 l 641 628 l 719 628 l 719 372 "},"Ď":{"x_min":69.046875,"x_max":1029,"ha":1071,"o":"m 722 497 q 696 643 722 572 q 630 768 671 713 q 535 855 589 822 q 423 889 481 889 l 423 111 q 535 142 481 111 q 630 227 589 174 q 696 350 671 280 q 722 497 722 420 m 1029 501 q 981 277 1029 372 q 857 121 934 183 q 683 29 780 59 q 489 0 587 0 l 69 0 l 69 73 l 126 73 l 126 926 l 69 926 l 69 1000 l 452 1000 q 658 969 555 1000 q 843 877 760 938 q 977 721 926 815 q 1029 501 1029 627 m 243 1289 l 408 1289 l 483 1183 l 557 1289 l 721 1289 l 561 1081 l 404 1081 l 243 1289 "},"&":{"x_min":63.046875,"x_max":1093.65625,"ha":1128,"o":"m 609 209 l 362 536 q 329 493 343 519 q 309 438 315 468 q 303 376 302 408 q 313 313 304 344 q 352 245 326 275 q 410 199 377 216 q 480 177 443 181 q 555 183 518 172 q 583 193 568 186 q 609 209 598 201 m 1093 0 l 764 0 l 699 88 q 627 37 663 59 q 551 0 592 15 q 465 -24 511 -16 q 363 -32 420 -32 q 238 -11 293 -32 q 144 45 183 8 q 83 132 104 81 q 63 245 63 183 q 81 370 63 312 q 130 475 99 427 q 203 562 161 523 q 290 629 245 601 l 150 805 q 220 899 175 856 q 318 970 265 941 q 427 1016 371 1000 q 532 1032 483 1032 q 619 1028 581 1032 q 692 1016 657 1025 q 761 995 727 1008 q 833 962 795 981 l 840 1001 l 917 1001 l 917 619 l 791 619 l 791 709 q 747 813 771 771 q 693 880 722 855 q 627 915 663 905 q 550 926 592 926 q 490 900 520 926 q 450 842 461 874 l 807 373 q 831 409 822 387 q 843 456 840 431 q 842 506 846 481 q 828 552 838 531 l 1038 552 l 1038 479 l 981 479 q 960 359 985 416 q 893 270 935 302 l 1036 73 l 1093 73 l 1093 0 "},"˝":{"x_min":13.890625,"x_max":607,"ha":621,"o":"m 234 1072 l 420 1280 l 607 1280 l 363 1072 l 234 1072 m 13 1072 l 163 1280 l 338 1280 l 137 1072 l 13 1072 "},"I":{"x_min":69.046875,"x_max":478.953125,"ha":548,"o":"m 478 1000 l 478 926 l 422 926 l 422 74 l 478 74 l 478 0 l 69 0 l 69 74 l 126 74 l 126 926 l 69 926 l 69 1000 l 478 1000 "},"G":{"x_min":51,"x_max":972.71875,"ha":1017,"o":"m 972 472 l 913 472 l 913 201 q 884 117 913 159 q 805 42 856 75 q 688 -10 755 9 q 543 -31 621 -31 q 341 3 431 -31 q 186 104 251 37 q 86 271 121 171 q 51 502 51 371 q 94 740 51 640 q 208 904 138 840 q 363 1000 277 969 q 534 1032 449 1032 q 691 1008 633 1032 q 786 955 748 984 l 825 1000 l 903 1000 l 903 610 l 756 610 q 746 713 761 658 q 701 815 731 768 q 631 893 672 862 q 542 924 589 924 q 478 903 510 924 q 419 835 446 883 q 375 706 392 787 q 359 502 359 624 q 369 310 359 388 q 400 184 379 233 q 450 111 420 135 q 517 78 480 87 q 553 78 534 76 q 588 87 572 80 q 616 108 605 95 q 628 141 628 121 l 628 472 l 540 472 l 540 546 l 972 546 l 972 472 "},"`":{"x_min":106.953125,"x_max":452.8125,"ha":521,"o":"m 329 1072 l 106 1281 l 291 1281 l 452 1072 l 329 1072 "},"·":{"x_min":69,"x_max":307,"ha":376,"o":"m 307 388 l 69 388 l 69 623 l 307 623 l 307 388 "},"ŏ":{"x_min":51,"x_max":1015,"ha":1064,"o":"m 690 500 q 677 688 690 608 q 643 820 664 768 q 593 898 621 872 q 533 924 564 924 q 472 898 501 924 q 422 820 444 872 q 388 688 401 768 q 376 500 376 608 q 388 311 376 391 q 422 179 401 231 q 472 101 444 127 q 533 76 501 76 q 593 101 564 76 q 643 179 621 127 q 677 311 664 231 q 690 500 690 391 m 1015 500 q 976 279 1015 377 q 871 111 937 180 q 718 5 806 43 q 533 -32 630 -32 q 346 5 434 -32 q 194 111 259 43 q 89 279 128 180 q 51 500 51 377 q 89 720 51 622 q 194 888 128 819 q 346 994 259 957 q 533 1032 434 1032 q 718 994 630 1032 q 871 888 806 957 q 976 720 937 819 q 1015 500 1015 622 m 769 1280 q 751 1190 769 1230 q 703 1122 734 1149 q 629 1079 672 1094 q 534 1065 585 1065 q 363 1122 429 1065 q 297 1280 297 1179 l 431 1280 q 461 1200 431 1227 q 534 1173 491 1173 q 606 1200 579 1173 q 633 1280 633 1227 l 769 1280 "},"¿":{"x_min":44.15625,"x_max":834.484375,"ha":888,"o":"m 654 875 q 622 799 654 830 q 547 768 591 768 q 471 799 502 768 q 440 875 440 830 q 471 950 440 919 q 547 981 502 981 q 622 950 591 981 q 654 875 654 919 m 751 -33 l 751 15 q 699 -16 733 -1 q 624 -42 666 -31 q 535 -58 583 -52 q 440 -65 487 -65 q 304 -50 374 -65 q 176 -2 234 -35 q 81 84 119 30 q 44 215 44 137 q 94 349 44 290 q 230 451 145 408 q 300 483 262 468 q 374 515 338 498 q 438 551 409 532 q 484 592 467 569 q 500 644 501 615 q 474 710 499 673 l 646 710 q 672 566 680 632 q 631 446 665 500 q 546 353 598 393 q 438 289 494 314 q 337 213 365 257 q 333 119 309 169 q 369 82 344 96 q 428 67 395 69 q 499 72 462 65 q 570 95 537 79 q 631 135 603 111 q 670 190 658 158 l 741 362 l 834 362 l 834 -33 l 751 -33 "},"ý":{"x_min":41.078125,"x_max":1102.75,"ha":1145,"o":"m 1102 926 l 1045 926 l 743 423 l 743 74 l 799 74 l 799 0 l 373 0 l 373 74 l 430 74 l 430 423 l 98 926 l 41 926 l 41 1000 l 531 1000 l 531 926 l 474 926 l 647 550 l 840 926 l 783 926 l 783 1000 l 1102 1000 l 1102 926 m 607 1072 l 384 1281 l 569 1281 l 730 1072 l 607 1072 "},"º":{"x_min":42,"x_max":684,"ha":726,"o":"m 465 677 q 456 777 465 729 q 434 860 448 825 q 402 917 420 895 q 363 939 384 939 q 324 917 342 939 q 291 860 305 895 q 269 777 277 825 q 261 677 261 729 q 269 577 261 625 q 291 493 277 529 q 324 435 305 457 q 363 414 342 414 q 402 436 384 414 q 434 494 420 458 q 456 578 448 530 q 465 677 465 626 m 684 677 q 659 531 684 597 q 590 418 634 465 q 488 347 546 372 q 363 322 430 322 q 238 347 297 322 q 135 418 179 372 q 66 531 91 465 q 42 677 42 597 q 66 823 42 758 q 135 935 91 888 q 238 1006 179 981 q 363 1032 297 1032 q 488 1006 430 1032 q 590 934 546 980 q 659 822 634 887 q 684 677 684 756 "},"ȑ":{"x_min":69.046875,"x_max":1038.59375,"ha":1073,"o":"m 715 780 q 598 881 715 860 q 519 889 563 888 q 422 887 474 889 l 422 674 q 715 780 715 655 m 1038 0 l 659 0 l 520 532 l 422 532 l 422 74 l 478 74 l 478 0 l 69 0 l 69 74 l 126 74 l 126 926 l 69 926 l 69 1000 l 445 1000 q 723 997 614 1011 q 893 952 831 984 q 980 873 956 920 q 1005 770 1003 826 q 997 708 1005 743 q 963 641 989 673 q 887 582 937 608 q 753 548 837 557 l 981 74 l 1038 74 l 1038 0 m 345 1072 l 102 1280 l 288 1280 l 474 1072 l 345 1072 m 572 1072 l 370 1280 l 545 1280 l 695 1072 l 572 1072 "},"ź":{"x_min":32.0625,"x_max":901.125,"ha":955,"o":"m 865 0 l 32 0 l 534 889 q 416 876 473 889 q 309 832 358 864 q 225 746 261 801 q 172 607 189 691 l 79 607 l 79 1000 l 901 1000 l 398 112 q 451 111 425 109 q 493 115 477 112 q 633 186 573 126 q 732 343 693 247 q 757 426 743 375 q 771 548 771 477 l 865 548 l 865 0 m 558 1072 l 435 1072 l 596 1281 l 780 1281 l 558 1072 "},"ű":{"x_min":56.046875,"x_max":959.953125,"ha":1016,"o":"m 745 344 l 745 926 l 688 926 l 688 1000 l 959 1000 l 959 926 l 903 926 l 903 342 q 871 164 903 235 q 788 49 840 92 q 669 -13 736 5 q 530 -32 601 -32 q 358 -10 435 -32 q 226 55 281 11 q 142 167 171 99 q 113 328 113 235 l 113 926 l 56 926 l 56 1000 l 469 1000 l 469 926 l 413 926 l 413 343 q 421 275 413 307 q 449 220 429 244 q 500 184 468 197 q 579 171 532 171 q 658 184 626 171 q 710 222 690 198 q 737 277 729 245 q 745 344 745 308 m 577 1072 l 763 1280 l 950 1280 l 706 1072 l 577 1072 m 356 1072 l 506 1280 l 681 1280 l 480 1072 l 356 1072 "},"я":{"x_min":34.390625,"x_max":1003.953125,"ha":1073,"o":"m 358 780 q 429 688 358 714 q 651 674 501 662 l 651 887 q 474 882 545 895 q 358 780 358 862 m 34 74 l 91 74 q 131 203 108 137 q 184 331 155 269 q 247 448 213 393 q 319 548 281 504 q 185 582 235 557 q 109 641 135 608 q 75 708 83 673 q 68 770 68 743 q 94 873 69 826 q 183 952 119 920 q 356 997 247 984 q 634 1000 465 1011 l 1003 1000 l 1003 926 l 947 926 l 947 74 l 1003 74 l 1003 0 l 594 0 l 594 74 l 651 74 l 651 532 l 552 532 q 459 270 498 409 q 409 0 420 131 l 34 0 l 34 74 "},"Ư":{"x_min":56.046875,"x_max":1238,"ha":1280,"o":"m 745 926 l 688 926 l 688 1000 l 959 1000 l 959 926 l 903 926 l 903 698 q 971 707 934 699 q 1041 730 1008 715 q 1097 766 1073 746 q 1125 812 1121 787 l 1021 812 l 1021 1000 l 1238 1000 l 1238 861 q 1222 784 1238 825 q 1167 709 1206 744 q 1063 648 1128 673 q 903 617 998 622 l 903 343 q 871 164 903 236 q 788 49 840 93 q 669 -13 736 5 q 530 -32 601 -32 q 358 -10 435 -32 q 226 55 281 11 q 142 167 171 99 q 113 328 113 235 l 113 926 l 56 926 l 56 1000 l 469 1000 l 469 926 l 413 926 l 413 343 q 421 275 413 307 q 449 220 429 244 q 500 184 468 197 q 579 171 532 171 q 658 184 626 171 q 710 222 690 198 q 737 277 729 245 q 745 344 745 308 l 745 926 "},"φ":{"x_min":38,"x_max":1320,"ha":1358,"o":"m 883 1000 l 883 926 l 827 926 l 827 855 q 1011 823 922 851 q 1169 749 1100 795 q 1279 640 1238 703 q 1320 500 1320 576 q 1279 359 1320 422 q 1169 250 1238 296 q 1011 176 1100 204 q 827 144 922 148 l 827 74 l 883 74 l 883 0 l 474 0 l 474 74 l 531 74 l 531 144 q 346 176 435 148 q 188 250 257 204 q 78 359 119 296 q 38 500 38 422 q 78 640 38 576 q 188 749 119 703 q 346 823 257 795 q 531 855 435 851 l 531 926 l 474 926 l 474 1000 l 883 1000 m 531 766 q 476 736 504 756 q 424 684 447 716 q 385 606 400 652 q 370 500 370 561 q 385 393 370 438 q 424 315 400 347 q 476 263 447 283 q 531 233 504 243 l 531 766 m 988 500 q 972 606 988 561 q 933 684 957 652 q 881 736 910 716 q 827 766 853 756 l 826 233 q 881 263 853 243 q 933 315 910 283 q 972 393 957 347 q 988 500 988 438 "},"Ǽ":{"x_min":55.78125,"x_max":1431,"ha":1514,"o":"m 710 414 l 710 752 l 512 414 l 710 414 m 1431 0 l 1044 0 l 657 0 l 657 74 l 710 74 l 710 242 l 397 242 l 297 74 l 354 74 l 354 0 l 55 0 l 55 74 l 112 74 l 641 926 l 540 926 l 540 1000 l 1431 1000 l 1431 607 l 1337 607 q 1299 720 1329 666 q 1225 813 1269 775 q 1124 873 1181 852 q 1006 888 1068 894 l 1006 639 l 1215 639 l 1215 492 l 1006 492 l 1006 111 q 1120 132 1064 106 q 1221 204 1176 158 q 1295 311 1265 249 q 1327 441 1324 373 l 1431 441 l 1431 0 m 1030 1072 l 907 1072 l 1068 1281 l 1252 1281 l 1030 1072 "},"ń":{"x_min":69.046875,"x_max":923.953125,"ha":982,"o":"m 867 926 l 867 0 l 702 0 l 261 676 l 261 74 l 317 74 l 317 0 l 69 0 l 69 74 l 126 74 l 126 926 l 69 926 l 69 1000 l 408 1000 l 718 530 l 718 926 l 661 926 l 661 1000 l 923 1000 l 923 926 l 867 926 m 585 1072 l 462 1072 l 623 1281 l 807 1281 l 585 1072 "},"Ș":{"x_min":65,"x_max":888.484375,"ha":936,"o":"m 886 333 q 867 182 895 250 q 785 67 838 115 q 658 -6 731 19 q 505 -32 585 -32 q 385 -22 440 -32 q 287 2 331 -12 q 208 38 242 18 q 148 77 173 58 l 148 0 l 65 0 l 65 484 l 154 484 l 154 459 q 182 340 154 401 q 252 230 210 280 q 341 145 294 180 q 426 104 388 111 q 529 99 491 91 q 583 127 566 106 q 601 177 601 148 q 592 236 601 206 q 538 322 577 286 q 448 386 498 358 q 345 436 398 413 q 251 479 292 458 q 120 585 166 520 q 69 720 74 650 q 102 859 64 791 q 220 972 139 926 q 363 1020 283 1007 q 516 1032 442 1034 q 594 1023 556 1032 q 663 1003 631 1015 q 721 977 695 991 q 762 951 747 964 l 762 1000 l 844 1000 l 844 604 l 751 604 q 712 722 738 666 q 647 819 686 778 q 561 885 609 861 q 458 910 513 910 q 383 891 413 910 q 345 845 352 873 q 361 782 338 816 q 448 715 384 747 q 531 673 485 694 q 622 629 576 652 q 713 576 669 605 q 794 511 758 547 q 854 432 830 476 q 886 333 879 387 m 600 -275 l 515 -411 l 455 -411 l 490 -275 l 368 -275 l 368 -71 l 600 -71 l 600 -275 "},"Ȃ":{"x_min":41.671875,"x_max":1016.75,"ha":1058,"o":"m 612 0 l 612 74 l 669 74 l 619 242 l 320 242 l 269 74 l 326 74 l 326 0 l 41 0 l 41 74 l 98 74 l 354 926 l 280 926 l 280 1000 l 769 1000 l 769 926 l 695 926 l 959 74 l 1016 74 l 1016 0 l 612 0 m 468 752 l 370 414 l 568 414 l 468 752 m 625 1072 q 597 1151 625 1124 q 526 1179 570 1179 q 453 1151 483 1179 q 424 1072 424 1124 l 289 1072 q 354 1230 289 1173 q 526 1287 420 1287 q 620 1272 577 1287 q 695 1230 663 1257 q 743 1162 726 1202 q 761 1072 761 1121 l 625 1072 "},";":{"x_min":69,"x_max":307,"ha":376,"o":"m 307 457 l 69 457 l 69 692 l 307 692 l 307 457 m 307 0 l 222 -136 l 162 -136 l 197 0 l 69 0 l 69 235 l 307 235 l 307 0 "},"Г":{"x_min":69.046875,"x_max":851.203125,"ha":907,"o":"m 758 607 q 718 721 748 668 q 644 814 688 775 q 542 873 599 852 q 422 889 485 893 l 422 74 l 478 74 l 478 0 l 69 0 l 69 74 l 126 74 l 126 926 l 69 926 l 69 1000 l 851 1000 l 851 607 l 758 607 "},"Ġ":{"x_min":51,"x_max":972.71875,"ha":1017,"o":"m 972 472 l 913 472 l 913 201 q 884 117 913 159 q 805 42 856 75 q 688 -10 755 9 q 543 -31 621 -31 q 341 3 431 -31 q 186 104 251 37 q 86 271 121 171 q 51 502 51 371 q 94 740 51 640 q 208 904 138 840 q 363 1000 277 969 q 534 1032 449 1032 q 691 1008 633 1032 q 786 955 748 984 l 825 1000 l 903 1000 l 903 610 l 756 610 q 746 713 761 658 q 701 815 731 768 q 631 893 672 862 q 542 924 589 924 q 478 903 510 924 q 419 835 446 883 q 375 706 392 787 q 359 502 359 624 q 369 310 359 388 q 400 184 379 233 q 450 111 420 135 q 517 78 480 87 q 553 78 534 76 q 588 87 572 80 q 616 108 605 95 q 628 141 628 121 l 628 472 l 540 472 l 540 546 l 972 546 l 972 472 m 629 1072 l 440 1072 l 440 1258 l 629 1258 l 629 1072 "},"6":{"x_min":48,"x_max":910.3125,"ha":960,"o":"m 625 305 q 617 413 626 367 q 590 488 608 459 q 547 532 572 517 q 495 547 523 547 q 448 530 470 547 q 409 482 426 513 q 382 406 392 451 q 372 305 372 360 q 409 130 372 186 q 495 75 447 75 q 547 86 523 75 q 587 125 570 98 q 613 197 604 152 q 625 305 623 241 m 910 305 q 873 161 907 224 q 783 55 839 98 q 656 -9 727 12 q 505 -32 584 -32 q 308 6 394 -32 q 165 113 223 45 q 77 270 107 180 q 48 461 48 359 q 75 690 48 586 q 163 871 103 795 q 314 989 223 947 q 533 1032 405 1032 q 596 1026 562 1032 q 664 1009 630 1020 q 727 981 698 998 q 776 940 756 963 l 776 995 l 868 995 l 868 644 l 776 644 l 776 684 q 754 770 776 729 q 699 844 732 812 q 626 895 666 876 q 551 914 587 914 q 454 877 494 914 q 390 788 415 840 q 358 679 366 736 q 356 583 349 622 q 400 618 374 603 q 454 641 426 633 q 513 653 483 649 q 572 658 544 658 q 715 632 651 658 q 823 559 779 606 q 890 447 868 512 q 910 305 912 383 "},"Ь":{"x_min":69.046875,"x_max":1013,"ha":1055,"o":"m 422 607 q 652 605 556 616 q 814 569 748 594 q 919 509 880 544 q 979 434 958 473 q 1006 358 1000 395 q 1013 290 1013 320 q 976 151 1013 211 q 873 52 940 91 q 688 -2 798 9 q 449 0 577 -13 l 69 0 l 69 73 l 126 73 l 126 926 l 69 926 l 69 1000 l 478 1000 l 478 926 l 422 926 l 422 607 m 422 102 q 546 107 492 95 q 635 145 599 119 q 688 209 670 172 q 707 292 707 247 q 690 371 707 328 q 629 442 673 413 q 526 476 579 473 q 422 479 474 479 l 422 102 "},"n":{"x_min":69.046875,"x_max":923.953125,"ha":986,"o":"m 867 926 l 867 0 l 702 0 l 261 676 l 261 74 l 317 74 l 317 0 l 69 0 l 69 74 l 126 74 l 126 926 l 69 926 l 69 1000 l 408 1000 l 718 530 l 718 926 l 661 926 l 661 1000 l 923 1000 l 923 926 l 867 926 "},"ģ":{"x_min":51,"x_max":972.71875,"ha":1017,"o":"m 972 472 l 913 472 l 913 201 q 884 117 913 159 q 805 42 856 75 q 688 -10 755 9 q 543 -31 621 -31 q 341 3 431 -31 q 186 104 251 37 q 86 271 121 171 q 51 502 51 371 q 94 740 51 640 q 208 904 138 840 q 363 1000 277 969 q 534 1032 449 1032 q 691 1008 633 1032 q 786 955 748 984 l 825 1000 l 903 1000 l 903 610 l 756 610 q 746 713 761 658 q 701 815 731 768 q 631 893 672 862 q 542 924 589 924 q 478 903 510 924 q 419 835 446 883 q 375 706 392 787 q 359 502 359 624 q 369 310 359 388 q 400 184 379 233 q 450 111 420 135 q 517 78 480 87 q 553 78 534 76 q 588 87 572 80 q 616 108 605 95 q 628 141 628 121 l 628 472 l 540 472 l 540 546 l 972 546 l 972 472 m 657 -275 l 572 -411 l 512 -411 l 547 -275 l 425 -275 l 425 -71 l 657 -71 l 657 -275 "},"¤":{"x_min":37.8125,"x_max":999,"ha":1082,"o":"m 999 4 l 922 4 l 880 47 q 814 5 843 20 q 758 -17 786 -9 q 700 -26 730 -24 q 629 -29 669 -29 q 304 100 437 -29 q 172 314 211 189 l 37 314 l 37 449 l 148 449 l 148 554 l 37 554 l 37 689 l 172 689 q 304 905 212 818 q 453 1001 372 970 q 629 1032 533 1032 q 699 1029 669 1032 q 756 1020 729 1027 q 812 997 783 1013 q 880 955 842 981 l 922 1000 l 999 1000 l 999 610 l 846 610 l 849 633 q 832 741 849 689 q 786 833 815 793 q 719 899 757 874 q 637 924 680 924 q 530 861 576 924 q 468 689 483 798 l 735 689 l 735 554 l 457 554 q 457 449 444 505 l 735 449 l 735 314 l 468 314 q 530 140 483 201 q 637 79 576 79 q 720 105 682 79 q 787 173 758 131 q 832 267 815 215 q 849 369 849 319 l 846 392 l 999 392 l 999 4 "},"κ":{"x_min":69.046875,"x_max":1047.0625,"ha":1071,"o":"m 663 0 l 567 495 l 422 315 l 422 74 l 478 74 l 478 0 l 69 0 l 69 74 l 126 74 l 126 926 l 69 926 l 69 1000 l 478 1000 l 478 926 l 422 926 l 422 537 l 734 926 l 677 926 l 677 1000 l 984 1000 l 984 926 l 912 926 l 747 748 l 990 74 l 1047 74 l 1047 0 l 663 0 "},"Ĝ":{"x_min":51,"x_max":972.71875,"ha":1017,"o":"m 972 472 l 913 472 l 913 201 q 884 117 913 159 q 805 42 856 75 q 688 -10 755 9 q 543 -31 621 -31 q 341 3 431 -31 q 186 104 251 37 q 86 271 121 171 q 51 502 51 371 q 94 740 51 640 q 208 904 138 840 q 363 1000 277 969 q 534 1032 449 1032 q 691 1008 633 1032 q 786 955 748 984 l 825 1000 l 903 1000 l 903 610 l 756 610 q 746 713 761 658 q 701 815 731 768 q 631 893 672 862 q 542 924 589 924 q 478 903 510 924 q 419 835 446 883 q 375 706 392 787 q 359 502 359 624 q 369 310 359 388 q 400 184 379 233 q 450 111 420 135 q 517 78 480 87 q 553 78 534 76 q 588 87 572 80 q 616 108 605 95 q 628 141 628 121 l 628 472 l 540 472 l 540 546 l 972 546 l 972 472 m 766 1072 l 603 1072 l 529 1177 l 454 1072 l 289 1072 l 450 1280 l 607 1280 l 766 1072 "},"p":{"x_min":69.046875,"x_max":1004,"ha":1025,"o":"m 725 744 q 698 820 725 790 q 629 866 672 850 q 531 888 586 883 q 422 889 477 893 l 422 608 q 555 604 498 595 q 649 634 612 612 q 706 685 687 655 q 725 744 725 715 m 1004 740 q 957 603 1004 661 q 831 513 910 546 q 645 474 751 480 q 422 491 540 468 l 422 74 l 478 74 l 478 0 l 69 0 l 69 74 l 126 74 l 126 926 l 69 926 l 69 1000 l 433 1000 q 676 998 570 1011 q 856 952 783 986 q 966 864 928 918 q 1004 740 1004 811 "},"‡":{"x_min":55.5625,"x_max":689.6875,"ha":746,"o":"m 436 218 l 468 -112 q 373 -127 419 -127 q 277 -112 327 -127 l 311 218 l 62 180 q 56 250 56 211 q 62 326 55 290 l 312 294 l 276 468 l 312 643 l 62 611 q 55 687 55 647 q 62 755 55 727 l 311 720 l 277 1047 q 373 1062 327 1062 q 468 1047 419 1062 l 436 720 l 683 755 q 689 686 688 726 q 683 611 690 647 l 434 643 l 469 468 l 434 294 l 683 326 q 689 250 690 290 q 683 180 688 211 l 436 218 "},"ň":{"x_min":69.046875,"x_max":923.953125,"ha":982,"o":"m 867 926 l 867 0 l 702 0 l 261 676 l 261 74 l 317 74 l 317 0 l 69 0 l 69 74 l 126 74 l 126 926 l 69 926 l 69 1000 l 408 1000 l 718 530 l 718 926 l 661 926 l 661 1000 l 923 1000 l 923 926 l 867 926 m 273 1289 l 438 1289 l 513 1183 l 587 1289 l 751 1289 l 591 1081 l 434 1081 l 273 1289 "},"Ю":{"x_min":69.046875,"x_max":1557,"ha":1606,"o":"m 1557 500 q 1518 279 1557 377 q 1413 111 1479 180 q 1260 5 1348 43 q 1074 -32 1172 -32 q 903 0 984 -32 q 757 89 821 30 q 650 233 692 148 q 596 424 607 318 l 423 424 l 423 74 l 479 74 l 479 0 l 69 0 l 69 74 l 126 74 l 126 926 l 69 926 l 69 1000 l 479 1000 l 479 926 l 423 926 l 423 571 l 595 571 q 648 763 606 677 q 755 908 691 848 q 902 1000 820 968 q 1074 1032 984 1032 q 1260 994 1172 1032 q 1413 888 1348 957 q 1518 720 1479 819 q 1557 500 1557 622 m 1232 500 q 1219 688 1232 608 q 1185 819 1207 767 q 1135 897 1163 871 q 1075 923 1106 923 q 1014 897 1043 923 q 964 819 986 871 q 930 688 943 767 q 918 500 918 608 q 930 311 918 391 q 964 180 943 232 q 1014 102 986 128 q 1075 76 1043 76 q 1135 102 1106 76 q 1185 180 1163 128 q 1219 311 1207 232 q 1232 500 1232 391 "},"ę":{"x_min":69.453125,"x_max":877.84375,"ha":933,"o":"m 843 0 q 797 -11 823 -2 q 747 -36 770 -20 q 709 -77 725 -52 q 697 -134 694 -101 q 719 -181 701 -168 q 761 -194 737 -194 q 809 -182 784 -194 q 851 -154 834 -170 l 877 -212 q 827 -263 859 -243 q 758 -294 795 -284 q 682 -301 720 -304 q 613 -283 644 -298 q 562 -238 581 -268 q 543 -165 543 -209 q 577 -65 543 -105 q 663 0 612 -25 l 69 0 l 69 73 l 126 73 l 126 926 l 69 926 l 69 1000 l 843 1000 l 843 607 l 750 607 q 711 720 741 666 q 637 813 682 775 q 536 873 593 852 q 418 888 480 894 l 418 638 l 627 638 l 627 491 l 418 491 l 418 111 q 532 132 476 106 q 633 204 588 158 q 707 311 677 250 q 738 441 736 373 l 843 441 l 843 0 l 843 0 "},"ο":{"x_min":51,"x_max":1015,"ha":1067,"o":"m 690 500 q 677 688 690 608 q 643 820 664 768 q 593 898 621 872 q 533 924 564 924 q 472 898 501 924 q 422 820 444 872 q 388 688 401 768 q 376 500 376 608 q 388 311 376 391 q 422 179 401 231 q 472 101 444 127 q 533 76 501 76 q 593 101 564 76 q 643 179 621 127 q 677 311 664 231 q 690 500 690 391 m 1015 500 q 976 279 1015 377 q 871 111 937 180 q 718 5 806 43 q 533 -32 630 -32 q 346 5 434 -32 q 194 111 259 43 q 89 279 128 180 q 51 500 51 377 q 89 720 51 622 q 194 888 128 819 q 346 994 259 957 q 533 1032 434 1032 q 718 994 630 1032 q 871 888 806 957 q 976 720 937 819 q 1015 500 1015 622 "},"S":{"x_min":65,"x_max":888.484375,"ha":936,"o":"m 886 333 q 867 182 895 250 q 785 67 838 115 q 658 -6 731 19 q 505 -32 585 -32 q 385 -22 440 -32 q 287 2 331 -12 q 208 38 242 18 q 148 77 173 58 l 148 0 l 65 0 l 65 484 l 154 484 l 154 459 q 182 340 154 401 q 252 230 210 280 q 341 145 294 180 q 426 104 388 111 q 529 99 491 91 q 583 127 566 106 q 601 177 601 148 q 592 236 601 206 q 538 322 577 286 q 448 386 498 358 q 345 436 398 413 q 251 479 292 458 q 120 585 166 520 q 69 720 74 650 q 102 859 64 791 q 220 972 139 926 q 363 1020 283 1007 q 516 1032 442 1034 q 594 1023 556 1032 q 663 1003 631 1015 q 721 977 695 991 q 762 951 747 964 l 762 1000 l 844 1000 l 844 604 l 751 604 q 712 722 738 666 q 647 819 686 778 q 561 885 609 861 q 458 910 513 910 q 383 891 413 910 q 345 845 352 873 q 361 782 338 816 q 448 715 384 747 q 531 673 485 694 q 622 629 576 652 q 713 576 669 605 q 794 511 758 547 q 854 432 830 476 q 886 333 879 387 "},"/":{"x_min":0,"x_max":376.421875,"ha":376,"o":"m 376 1039 l 180 -33 l 0 -33 l 195 1039 l 376 1039 "},"į":{"x_min":39,"x_max":511,"ha":548,"o":"m 478 1000 l 478 926 l 422 926 l 422 74 l 478 74 l 478 0 l 69 0 l 69 74 l 126 74 l 126 926 l 69 926 l 69 1000 l 478 1000 m 375 1072 q 347 1151 375 1124 q 276 1179 320 1179 q 203 1151 233 1179 q 174 1072 174 1124 l 39 1072 q 104 1230 39 1173 q 276 1287 170 1287 q 370 1272 327 1287 q 445 1230 413 1257 q 493 1162 476 1202 q 511 1072 511 1121 l 375 1072 "},"Ŧ":{"x_min":58,"x_max":954,"ha":1012,"o":"m 58 1000 l 954 1000 l 954 548 l 840 548 q 829 667 840 607 q 796 774 819 727 q 737 850 773 821 q 652 876 702 878 l 652 458 l 883 458 l 883 355 l 652 355 l 652 74 l 708 74 l 708 0 l 302 0 l 302 74 l 359 74 l 359 355 l 127 355 l 127 458 l 359 458 l 359 876 q 273 850 309 878 q 215 774 238 821 q 182 667 192 727 q 172 548 172 607 l 58 548 l 58 1000 "},"Τ":{"x_min":62,"x_max":958,"ha":1021,"o":"m 62 1000 l 958 1000 l 958 548 l 844 548 q 833 667 844 607 q 800 774 823 727 q 741 850 777 821 q 656 876 706 878 l 656 74 l 712 74 l 712 0 l 306 0 l 306 74 l 363 74 l 363 876 q 277 850 313 878 q 219 774 242 821 q 186 667 196 727 q 176 548 176 607 l 62 548 l 62 1000 "},"y":{"x_min":41.078125,"x_max":1102.75,"ha":1145,"o":"m 1102 926 l 1045 926 l 743 423 l 743 74 l 799 74 l 799 0 l 373 0 l 373 74 l 430 74 l 430 423 l 98 926 l 41 926 l 41 1000 l 531 1000 l 531 926 l 474 926 l 647 550 l 840 926 l 783 926 l 783 1000 l 1102 1000 l 1102 926 "},"Π":{"x_min":69.046875,"x_max":995.9375,"ha":1065,"o":"m 423 74 l 479 74 l 479 0 l 69 0 l 69 74 l 126 74 l 126 926 l 69 926 l 69 1000 l 995 1000 l 995 926 l 939 926 l 939 74 l 995 74 l 995 0 l 585 0 l 585 74 l 642 74 l 642 926 l 423 926 l 423 74 "},"":{"x_min":55.5,"x_max":335,"ha":390,"o":"m 335 858 q 327 811 335 842 q 291 745 319 780 q 207 681 264 710 q 55 640 151 651 l 55 719 q 114 728 86 720 q 165 749 143 736 q 202 777 187 761 q 220 813 216 793 l 118 812 l 118 1000 l 335 1000 l 335 858 "},"ǿ":{"x_min":51,"x_max":1015,"ha":1064,"o":"m 914 994 l 852 907 q 971 734 927 837 q 1015 500 1015 632 q 976 279 1015 377 q 871 111 937 180 q 718 5 806 43 q 533 -32 630 -32 q 381 -8 453 -32 q 249 60 309 14 l 184 -31 l 110 17 l 184 120 q 86 285 121 189 q 51 499 51 380 q 89 720 51 622 q 194 888 128 819 q 346 994 259 956 q 533 1032 434 1032 q 663 1013 601 1032 q 781 961 726 995 l 839 1042 l 914 994 m 690 500 q 687 591 690 547 q 680 672 684 636 l 396 259 q 452 119 416 162 q 532 76 488 76 q 593 101 564 76 q 643 179 621 127 q 677 311 664 231 q 690 500 690 391 m 376 500 q 376 442 376 472 q 379 388 377 412 l 656 790 q 601 892 634 861 q 533 924 569 924 q 472 898 501 924 q 422 820 444 872 q 388 688 401 768 q 376 500 376 608 m 599 1072 l 476 1072 l 637 1281 l 821 1281 l 599 1072 "},"g":{"x_min":51,"x_max":972.71875,"ha":1017,"o":"m 972 472 l 913 472 l 913 201 q 884 117 913 159 q 805 42 856 75 q 688 -10 755 9 q 543 -31 621 -31 q 341 3 431 -31 q 186 104 251 37 q 86 271 121 171 q 51 502 51 371 q 94 740 51 640 q 208 904 138 840 q 363 1000 277 969 q 534 1032 449 1032 q 691 1008 633 1032 q 786 955 748 984 l 825 1000 l 903 1000 l 903 610 l 756 610 q 746 713 761 658 q 701 815 731 768 q 631 893 672 862 q 542 924 589 924 q 478 903 510 924 q 419 835 446 883 q 375 706 392 787 q 359 502 359 624 q 369 310 359 388 q 400 184 379 233 q 450 111 420 135 q 517 78 480 87 q 553 78 534 76 q 588 87 572 80 q 616 108 605 95 q 628 141 628 121 l 628 472 l 540 472 l 540 546 l 972 546 l 972 472 "},"ĸ":{"x_min":69.046875,"x_max":884.203125,"ha":899,"o":"m 884 0 l 498 0 l 498 74 l 555 74 l 423 355 l 380 305 l 380 74 l 436 74 l 436 0 l 69 0 l 69 74 l 126 74 l 126 708 l 69 708 l 69 782 l 435 782 l 435 708 l 380 708 l 380 469 l 602 711 l 545 711 l 545 782 l 828 782 l 828 709 l 771 709 l 607 522 l 827 74 l 884 74 l 884 0 "},"²":{"x_min":48.53125,"x_max":798,"ha":874,"o":"m 798 149 l 710 149 l 710 206 q 579 140 651 158 q 436 122 507 122 q 369 129 400 122 q 314 148 339 137 q 271 174 289 159 q 246 201 254 188 l 212 149 l 48 149 l 351 572 q 398 642 373 604 q 444 718 422 680 q 479 792 465 757 q 494 855 493 828 q 480 900 496 883 q 426 917 464 917 q 353 897 394 917 q 276 838 312 878 q 216 737 240 798 q 193 593 191 676 l 96 593 l 96 1000 l 174 1000 l 174 947 q 301 1008 226 989 q 450 1028 376 1028 q 546 1019 490 1028 q 654 990 602 1011 q 746 932 706 969 q 794 839 785 895 q 791 771 798 805 q 759 712 785 737 l 341 323 q 417 272 365 284 q 526 269 469 259 q 634 308 583 279 q 710 381 686 337 l 710 612 l 798 612 l 798 149 "},"–":{"x_min":69.453125,"x_max":770.890625,"ha":840,"o":"m 69 553 l 770 553 l 770 349 l 69 349 l 69 553 "},"ë":{"x_min":69.046875,"x_max":843,"ha":933,"o":"m 69 0 l 69 73 l 126 73 l 126 926 l 69 926 l 69 1000 l 843 1000 l 843 607 l 749 607 q 711 720 741 666 q 637 813 681 775 q 536 873 593 852 q 418 888 480 894 l 418 639 l 627 639 l 627 492 l 418 492 l 418 111 q 532 132 476 106 q 633 204 588 158 q 707 311 677 249 q 739 441 736 373 l 843 441 l 843 0 l 69 0 m 434 1173 q 405 1097 434 1129 q 325 1065 377 1065 q 248 1097 277 1065 q 219 1173 219 1129 q 248 1246 219 1215 q 325 1278 277 1278 q 405 1246 377 1278 q 434 1173 434 1215 m 719 1173 q 691 1097 719 1129 q 612 1065 663 1065 q 533 1097 562 1065 q 504 1173 504 1129 q 533 1246 504 1215 q 612 1278 562 1278 q 691 1246 663 1278 q 719 1173 719 1215 "},"б":{"x_min":69.046875,"x_max":1013,"ha":1055,"o":"m 422 102 q 546 107 492 95 q 635 145 599 119 q 688 209 670 172 q 707 292 707 247 q 690 371 707 328 q 629 442 673 413 q 526 476 579 473 q 422 479 474 479 l 422 102 m 422 607 q 652 605 556 616 q 814 569 748 594 q 919 509 880 544 q 979 434 958 473 q 1006 358 1000 395 q 1013 290 1013 320 q 976 151 1013 211 q 873 52 940 91 q 690 -4 798 9 q 454 -4 582 -18 l 69 0 l 69 73 l 126 73 l 126 926 l 69 926 l 69 1000 l 901 1000 l 901 676 l 808 676 q 760 782 798 737 q 669 856 723 827 q 550 898 615 886 q 422 907 485 911 l 422 607 "},"ƒ":{"x_min":-230.578125,"x_max":619.5,"ha":578,"o":"m 170 -8 q 131 -82 158 -49 q 58 -136 104 -115 q -54 -162 12 -157 q -213 -151 -120 -168 l -230 -93 q -131 -83 -161 -100 q -87 -19 -102 -65 l 133 658 l 73 658 l 113 740 l 159 740 q 304 952 191 888 q 619 1003 416 1016 l 602 921 q 477 879 527 921 q 411 740 426 838 l 534 740 l 470 658 l 390 658 l 170 -8 "},"ȃ":{"x_min":41.671875,"x_max":1016.75,"ha":1058,"o":"m 612 0 l 612 74 l 669 74 l 619 242 l 320 242 l 269 74 l 326 74 l 326 0 l 41 0 l 41 74 l 98 74 l 354 926 l 280 926 l 280 1000 l 769 1000 l 769 926 l 695 926 l 959 74 l 1016 74 l 1016 0 l 612 0 m 468 752 l 370 414 l 568 414 l 468 752 m 625 1072 q 597 1151 625 1124 q 526 1179 570 1179 q 453 1151 483 1179 q 424 1072 424 1124 l 289 1072 q 354 1230 289 1173 q 526 1287 420 1287 q 620 1272 577 1287 q 695 1230 663 1257 q 743 1162 726 1202 q 761 1072 761 1121 l 625 1072 "},"у":{"x_min":28.046875,"x_max":1045.953125,"ha":1074,"o":"m 135 225 l 232 225 q 263 147 233 173 q 336 122 293 122 q 388 127 362 122 q 436 148 415 133 q 475 190 458 163 q 504 260 493 217 l 85 926 l 28 926 l 28 1000 l 490 1000 l 490 926 l 434 926 l 644 570 l 788 926 l 733 926 l 733 1000 l 1045 1000 l 1045 926 l 989 926 l 677 209 q 605 88 645 134 q 519 16 565 42 q 422 -18 473 -9 q 315 -28 370 -28 q 218 -18 266 -28 q 135 9 171 -8 l 135 225 "},"J":{"x_min":65,"x_max":860.953125,"ha":917,"o":"m 187 546 q 202 361 187 444 q 247 218 218 277 q 313 127 275 159 q 392 96 350 96 q 454 120 431 96 q 489 179 477 144 q 504 254 501 215 q 508 325 508 294 l 508 926 l 451 926 l 451 1000 l 860 1000 l 860 926 l 804 926 l 804 313 q 776 165 804 230 q 699 54 748 99 q 583 -14 651 9 q 435 -39 516 -39 q 328 -27 371 -39 q 252 0 284 -16 q 196 39 220 18 q 146 82 171 61 l 146 0 l 65 0 l 65 546 l 187 546 "},"Ã":{"x_min":41.671875,"x_max":1016.75,"ha":1058,"o":"m 612 0 l 612 74 l 669 74 l 619 242 l 320 242 l 269 74 l 326 74 l 326 0 l 41 0 l 41 74 l 98 74 l 354 926 l 280 926 l 280 1000 l 769 1000 l 769 926 l 695 926 l 959 74 l 1016 74 l 1016 0 l 612 0 m 468 752 l 370 414 l 568 414 l 468 752 m 773 1288 q 782 1202 786 1242 q 761 1133 777 1162 q 720 1088 745 1104 q 661 1079 694 1073 l 379 1148 q 358 1144 365 1151 q 347 1126 351 1137 q 344 1101 344 1115 q 344 1076 344 1087 l 273 1076 q 267 1149 265 1109 q 282 1221 269 1188 q 321 1273 295 1254 q 384 1284 347 1292 l 666 1216 q 686 1220 679 1213 q 698 1237 694 1226 q 702 1262 701 1248 q 702 1288 702 1276 l 773 1288 "},"ŷ":{"x_min":41.078125,"x_max":1102.75,"ha":1145,"o":"m 1102 926 l 1045 926 l 743 423 l 743 74 l 799 74 l 799 0 l 373 0 l 373 74 l 430 74 l 430 423 l 98 926 l 41 926 l 41 1000 l 531 1000 l 531 926 l 474 926 l 647 550 l 840 926 l 783 926 l 783 1000 l 1102 1000 l 1102 926 m 859 1072 l 696 1072 l 622 1177 l 547 1072 l 382 1072 l 543 1280 l 700 1280 l 859 1072 "},"ŕ":{"x_min":69.046875,"x_max":1038.59375,"ha":1073,"o":"m 715 780 q 598 881 715 860 q 519 889 563 888 q 422 887 474 889 l 422 674 q 715 780 715 655 m 1038 0 l 659 0 l 520 532 l 422 532 l 422 74 l 478 74 l 478 0 l 69 0 l 69 74 l 126 74 l 126 926 l 69 926 l 69 1000 l 445 1000 q 723 997 614 1011 q 893 952 831 984 q 980 873 956 920 q 1005 770 1003 826 q 997 708 1005 743 q 963 641 989 673 q 887 582 937 608 q 753 548 837 557 l 981 74 l 1038 74 l 1038 0 m 585 1072 l 462 1072 l 623 1281 l 807 1281 l 585 1072 "},"©":{"x_min":42,"x_max":1061,"ha":1103,"o":"m 552 1010 q 747 971 655 1010 q 909 866 840 933 q 1020 705 979 798 q 1061 503 1061 612 q 1020 298 1061 391 q 909 136 979 204 q 747 30 840 68 q 552 -8 655 -8 q 356 30 448 -8 q 194 136 264 68 q 82 298 123 204 q 42 503 42 391 q 82 705 42 612 q 194 866 123 798 q 356 971 264 933 q 552 1010 448 1010 m 552 924 q 391 892 466 924 q 262 803 317 860 q 176 670 207 747 q 145 503 145 593 q 176 334 145 411 q 262 200 207 256 q 391 111 317 143 q 552 80 466 80 q 711 111 637 80 q 840 200 785 143 q 926 334 895 256 q 958 503 958 411 q 926 670 958 593 q 840 803 895 747 q 711 892 785 860 q 552 924 637 924 m 818 407 q 785 316 808 357 q 730 248 762 276 q 656 205 697 220 q 569 190 615 190 q 446 214 501 190 q 353 280 392 238 q 292 379 314 322 q 271 504 271 437 q 291 627 271 570 q 349 725 311 684 q 442 790 387 766 q 565 814 497 814 q 655 800 612 814 q 732 758 699 786 q 787 692 765 731 q 817 602 810 653 l 726 602 q 672 691 715 657 q 567 726 629 726 q 483 708 519 726 q 423 661 447 691 q 386 591 399 631 q 374 505 374 551 q 387 418 374 459 q 426 346 401 377 q 487 296 451 315 q 569 278 524 278 q 676 313 633 278 q 726 407 718 348 l 818 407 "},"˘":{"x_min":-6.9375,"x_max":465.3125,"ha":457,"o":"m 465 1269 q 447 1179 465 1219 q 399 1111 430 1138 q 325 1068 368 1083 q 230 1054 281 1054 q 59 1111 125 1054 q -6 1269 -6 1168 l 127 1269 q 157 1189 127 1216 q 230 1162 187 1162 q 302 1189 275 1162 q 329 1269 329 1216 l 465 1269 "},"Ă":{"x_min":41.671875,"x_max":1016.75,"ha":1058,"o":"m 612 0 l 612 74 l 669 74 l 619 242 l 320 242 l 269 74 l 326 74 l 326 0 l 41 0 l 41 74 l 98 74 l 354 926 l 280 926 l 280 1000 l 769 1000 l 769 926 l 695 926 l 959 74 l 1016 74 l 1016 0 l 612 0 m 468 752 l 370 414 l 568 414 l 468 752 m 761 1280 q 743 1190 761 1230 q 695 1122 726 1149 q 621 1079 664 1094 q 526 1065 577 1065 q 355 1122 421 1065 q 289 1280 289 1179 l 423 1280 q 453 1200 423 1227 q 526 1173 483 1173 q 598 1200 571 1173 q 625 1280 625 1227 l 761 1280 "},"D":{"x_min":69.046875,"x_max":1029,"ha":1071,"o":"m 722 497 q 696 643 722 572 q 630 768 671 713 q 535 855 589 822 q 423 889 481 889 l 423 111 q 535 142 481 111 q 630 227 589 174 q 696 350 671 280 q 722 497 722 420 m 1029 501 q 981 277 1029 372 q 857 121 934 183 q 683 29 780 59 q 489 0 587 0 l 69 0 l 69 73 l 126 73 l 126 926 l 69 926 l 69 1000 l 452 1000 q 658 969 555 1000 q 843 877 760 938 q 977 721 926 815 q 1029 501 1029 627 "},"ł":{"x_min":-31.359375,"x_max":835,"ha":904,"o":"m -31 426 l 127 516 l 127 926 l 70 926 l 70 1000 l 477 1000 l 477 926 l 421 926 l 421 683 l 625 800 l 671 725 l 421 583 l 421 118 q 541 143 483 118 q 641 227 598 169 q 706 379 683 286 q 725 606 730 472 l 835 606 l 835 0 l 70 0 l 70 73 l 127 73 l 127 415 l 13 351 l -31 426 "},"ÿ":{"x_min":41.078125,"x_max":1102.75,"ha":1145,"o":"m 1102 926 l 1045 926 l 743 423 l 743 74 l 799 74 l 799 0 l 373 0 l 373 74 l 430 74 l 430 423 l 98 926 l 41 926 l 41 1000 l 531 1000 l 531 926 l 474 926 l 647 550 l 840 926 l 783 926 l 783 1000 l 1102 1000 l 1102 926 m 615 1173 q 586 1097 615 1129 q 506 1065 558 1065 q 429 1097 458 1065 q 400 1173 400 1129 q 429 1246 400 1215 q 506 1278 458 1278 q 586 1246 558 1278 q 615 1173 615 1215 m 900 1173 q 872 1097 900 1129 q 793 1065 844 1065 q 714 1097 743 1065 q 685 1173 685 1129 q 714 1246 685 1215 q 793 1278 743 1278 q 872 1246 844 1278 q 900 1173 900 1215 "},"ĺ":{"x_min":70.046875,"x_max":835,"ha":902,"o":"m 835 0 l 70 0 l 70 73 l 127 73 l 127 926 l 70 926 l 70 1000 l 477 1000 l 477 926 l 421 926 l 421 118 q 541 143 483 118 q 641 227 598 169 q 706 379 683 286 q 725 606 730 472 l 835 606 l 835 0 m 342 1072 l 219 1072 l 380 1281 l 564 1281 l 342 1072 "},"ц":{"x_min":70.046875,"x_max":1065,"ha":1107,"o":"m 127 74 l 127 926 l 70 926 l 70 1000 l 480 1000 l 480 926 l 424 926 l 424 74 l 642 74 l 642 926 l 585 926 l 585 1000 l 995 1000 l 995 926 l 939 926 l 939 74 l 1065 74 l 1065 -252 l 951 -252 q 942 -162 951 -207 q 915 -81 934 -117 q 868 -22 896 -45 q 801 0 840 0 l 70 0 l 70 74 l 127 74 "},"Ł":{"x_min":-31.359375,"x_max":835,"ha":904,"o":"m -31 426 l 127 516 l 127 926 l 70 926 l 70 1000 l 477 1000 l 477 926 l 421 926 l 421 683 l 625 800 l 671 725 l 421 583 l 421 118 q 541 143 483 118 q 641 227 598 169 q 706 379 683 286 q 725 606 730 472 l 835 606 l 835 0 l 70 0 l 70 73 l 127 73 l 127 415 l 13 351 l -31 426 "},"Л":{"x_min":21,"x_max":1113.953125,"ha":1183,"o":"m 605 926 q 604 821 605 882 q 600 689 603 760 q 589 544 596 619 q 571 401 582 469 q 552 307 563 355 q 523 212 541 259 q 482 124 506 166 q 426 49 459 83 q 317 -12 380 3 q 172 -28 255 -28 q 133 -25 155 -28 q 89 -16 111 -22 q 49 -5 68 -11 q 21 7 30 0 l 21 172 l 104 172 q 115 127 104 140 q 152 114 127 114 q 214 150 187 114 q 261 244 241 186 q 294 377 281 302 q 317 527 308 451 q 329 675 326 603 q 333 801 333 746 q 333 854 333 831 q 327 893 334 877 q 302 917 320 909 q 246 926 284 926 l 246 1000 l 1113 1000 l 1113 926 l 1057 926 l 1057 74 l 1113 74 l 1113 0 l 703 0 l 703 74 l 760 74 l 760 926 l 605 926 l 605 926 "},"$":{"x_min":65,"x_max":762.453125,"ha":811,"o":"m 526 240 q 506 305 526 273 q 456 351 486 336 l 456 164 q 510 191 494 171 q 526 240 526 212 m 374 684 l 374 850 q 320 824 342 844 q 299 777 299 804 q 315 730 299 754 q 374 684 332 705 m 760 351 q 746 228 768 283 q 681 134 724 173 q 581 72 639 94 q 456 47 522 50 l 456 -33 l 374 -33 l 374 47 q 231 87 290 57 q 135 146 172 116 l 65 78 l 65 469 l 140 469 q 160 375 140 425 q 213 282 180 326 q 287 205 245 237 q 374 165 329 173 l 374 403 q 281 448 333 423 q 181 504 229 472 q 100 577 133 536 q 68 675 68 619 q 93 793 68 743 q 162 878 119 844 q 260 930 205 912 q 374 951 315 948 l 374 1032 l 456 1032 l 456 952 q 577 929 522 950 q 657 887 632 908 l 725 930 l 725 608 l 647 608 q 582 765 629 698 q 456 850 535 832 l 456 644 q 553 596 503 622 q 648 535 604 569 q 722 456 692 501 q 760 351 753 411 "},"w":{"x_min":45.84375,"x_max":1448.734375,"ha":1493,"o":"m 1391 926 l 1090 74 l 1163 74 l 1163 0 l 862 0 l 862 74 l 936 74 l 757 565 l 575 74 l 648 74 l 648 0 l 347 0 l 347 74 l 420 74 l 102 926 l 45 926 l 45 1000 l 479 1000 l 479 926 l 422 926 l 575 509 l 723 926 l 666 926 l 666 1000 l 1015 1000 l 1015 926 l 958 926 l 1111 509 l 1262 926 l 1205 926 l 1205 1000 l 1448 1000 l 1448 926 l 1391 926 "},"\\":{"x_min":0,"x_max":376.421875,"ha":376,"o":"m 180 1039 l 376 -33 l 195 -33 l 0 1039 l 180 1039 "},"о":{"x_min":51,"x_max":1015,"ha":1067,"o":"m 690 500 q 677 688 690 608 q 643 820 664 768 q 593 898 621 872 q 533 924 564 924 q 472 898 501 924 q 422 820 444 872 q 388 688 401 768 q 376 500 376 608 q 388 311 376 391 q 422 179 401 231 q 472 101 444 127 q 533 76 501 76 q 593 101 564 76 q 643 179 621 127 q 677 311 664 231 q 690 500 690 391 m 1015 500 q 976 279 1015 377 q 871 111 937 180 q 718 5 806 43 q 533 -32 630 -32 q 346 5 434 -32 q 194 111 259 43 q 89 279 128 180 q 51 500 51 377 q 89 720 51 622 q 194 888 128 819 q 346 994 259 957 q 533 1032 434 1032 q 718 994 630 1032 q 871 888 806 957 q 976 720 937 819 q 1015 500 1015 622 "},"Д":{"x_min":42,"x_max":1182,"ha":1224,"o":"m 268 926 l 268 1000 l 1112 1000 l 1112 926 l 1056 926 l 1056 74 l 1182 73 l 1182 -253 l 1068 -253 q 1059 -163 1068 -208 q 1032 -82 1051 -118 q 985 -22 1013 -45 q 918 0 956 0 l 305 0 q 237 -22 265 0 q 191 -82 210 -45 q 164 -163 172 -118 q 156 -253 156 -208 l 42 -253 l 42 74 l 154 74 q 203 153 179 98 q 248 278 227 207 q 286 434 269 350 q 313 605 302 519 q 329 774 325 691 q 332 926 334 856 l 268 926 m 759 74 l 759 926 l 615 926 q 605 703 612 820 q 581 473 598 587 q 536 256 565 359 q 465 74 508 153 l 759 74 "},"Ì":{"x_min":-3.046875,"x_max":478.953125,"ha":548,"o":"m 478 1000 l 478 926 l 422 926 l 422 74 l 478 74 l 478 0 l 69 0 l 69 74 l 126 74 l 126 926 l 69 926 l 69 1000 l 478 1000 m 219 1072 l -3 1281 l 181 1281 l 342 1072 l 219 1072 "},"Ç":{"x_min":51,"x_max":955.0625,"ha":1001,"o":"m 470 -29 q 310 13 386 -20 q 176 113 234 48 q 85 273 119 177 q 51 501 51 369 q 94 738 51 638 q 208 904 138 838 q 363 1000 277 969 q 533 1032 449 1032 q 628 1025 589 1032 q 695 1009 667 1019 q 744 984 723 998 q 785 955 764 970 l 826 1000 l 903 1000 l 903 610 l 751 610 q 741 713 755 658 q 698 815 727 768 q 630 893 670 862 q 543 924 590 924 q 478 903 511 924 q 418 835 445 883 q 374 705 391 786 q 358 501 358 623 q 371 309 358 387 q 407 183 384 232 q 463 110 430 134 q 536 77 495 86 q 631 126 590 88 q 699 218 672 163 q 737 336 725 272 q 745 466 749 401 l 955 363 q 928 213 956 282 q 850 95 900 145 q 733 13 800 44 q 591 -27 666 -17 l 591 -104 q 670 -108 638 -97 q 724 -141 703 -120 q 753 -187 744 -162 q 763 -230 763 -212 q 753 -285 763 -258 q 721 -335 744 -312 q 657 -372 697 -358 q 554 -386 617 -386 q 468 -370 505 -386 q 402 -334 430 -354 l 425 -252 q 496 -286 464 -279 q 551 -290 528 -294 q 586 -272 573 -286 q 599 -238 599 -258 q 569 -198 599 -211 q 470 -198 539 -186 l 470 -29 "},"ъ":{"x_min":69.03125,"x_max":1338,"ha":1380,"o":"m 747 607 q 977 605 881 616 q 1139 569 1073 594 q 1244 509 1205 544 q 1304 434 1283 473 q 1331 358 1325 395 q 1338 290 1338 320 q 1301 151 1338 211 q 1198 52 1265 91 q 1013 -2 1123 9 q 774 0 902 -13 l 394 0 l 394 73 l 451 73 l 451 906 q 356 898 403 910 q 269 856 309 885 q 200 782 230 827 q 162 676 171 737 l 69 676 l 69 1000 l 803 1000 l 803 926 l 747 926 l 747 607 m 747 102 q 871 107 817 95 q 960 145 924 119 q 1013 209 995 172 q 1032 292 1032 247 q 1015 371 1032 328 q 954 442 998 413 q 851 476 904 473 q 747 479 799 479 l 747 102 "},"Ŝ":{"x_min":65,"x_max":888.484375,"ha":936,"o":"m 886 333 q 867 182 895 250 q 785 67 838 115 q 658 -6 731 19 q 505 -32 585 -32 q 385 -22 440 -32 q 287 2 331 -12 q 208 38 242 18 q 148 77 173 58 l 148 0 l 65 0 l 65 484 l 154 484 l 154 459 q 182 340 154 401 q 252 230 210 280 q 341 145 294 180 q 426 104 388 111 q 529 99 491 91 q 583 127 566 106 q 601 177 601 148 q 592 236 601 206 q 538 322 577 286 q 448 386 498 358 q 345 436 398 413 q 251 479 292 458 q 120 585 166 520 q 69 720 74 650 q 102 859 64 791 q 220 972 139 926 q 363 1020 283 1007 q 516 1032 442 1034 q 594 1023 556 1032 q 663 1003 631 1015 q 721 977 695 991 q 762 951 747 964 l 762 1000 l 844 1000 l 844 604 l 751 604 q 712 722 738 666 q 647 819 686 778 q 561 885 609 861 q 458 910 513 910 q 383 891 413 910 q 345 845 352 873 q 361 782 338 816 q 448 715 384 747 q 531 673 485 694 q 622 629 576 652 q 713 576 669 605 q 794 511 758 547 q 854 432 830 476 q 886 333 879 387 m 719 1072 l 556 1072 l 482 1177 l 407 1072 l 242 1072 l 403 1280 l 560 1280 l 719 1072 "},"ς":{"x_min":49,"x_max":721.359375,"ha":772,"o":"m 426 -286 q 544 -96 553 -163 q 396 -5 535 -29 q 253 32 317 8 q 144 101 189 56 q 74 217 99 147 q 49 391 49 287 q 82 576 49 498 q 169 706 115 655 q 289 783 222 758 q 422 808 356 808 q 553 783 497 808 q 629 729 610 758 l 629 782 l 708 782 l 708 437 l 629 437 q 605 549 622 501 q 565 629 588 597 q 515 677 542 661 q 465 693 489 693 q 412 675 439 693 q 363 622 385 658 q 326 532 340 587 q 313 401 313 477 q 324 288 313 331 q 359 218 336 244 q 416 179 382 193 q 496 155 450 165 q 586 128 544 144 q 658 88 628 112 q 704 29 688 65 q 721 -57 721 -5 q 663 -206 721 -127 q 496 -357 604 -284 l 426 -286 "},"C":{"x_min":51,"x_max":947.0625,"ha":993,"o":"m 535 77 q 630 126 589 88 q 698 218 671 163 q 736 336 724 272 q 744 466 748 401 l 947 366 q 915 202 948 276 q 824 77 883 129 q 689 -3 766 24 q 527 -32 612 -32 q 349 -2 435 -32 q 197 92 263 27 q 91 257 131 156 q 51 501 51 358 q 94 738 51 638 q 207 904 138 838 q 362 1000 277 969 q 533 1032 448 1032 q 627 1025 588 1032 q 694 1009 666 1019 q 742 984 721 998 q 784 955 763 970 l 824 1000 l 902 1000 l 902 610 l 756 610 q 745 713 760 658 q 701 815 730 768 q 630 893 671 862 q 542 924 589 924 q 478 903 510 924 q 418 835 445 883 q 374 705 391 786 q 358 501 358 623 q 371 309 358 387 q 407 183 384 231 q 462 110 430 134 q 535 77 495 86 "},"Ē":{"x_min":69.046875,"x_max":843,"ha":933,"o":"m 69 0 l 69 73 l 126 73 l 126 926 l 69 926 l 69 1000 l 843 1000 l 843 607 l 749 607 q 711 720 741 666 q 637 813 681 775 q 536 873 593 852 q 418 888 480 894 l 418 639 l 627 639 l 627 492 l 418 492 l 418 111 q 532 132 476 106 q 633 204 588 158 q 707 311 677 249 q 739 441 736 373 l 843 441 l 843 0 l 69 0 m 227 1192 l 737 1192 l 737 1081 l 227 1081 l 227 1192 "},"!":{"x_min":69.453125,"x_max":394.46875,"ha":464,"o":"m 394 1000 l 394 926 l 333 336 l 130 336 l 69 926 l 69 1000 l 394 1000 m 350 0 l 112 0 l 112 235 l 350 235 l 350 0 "},"ç":{"x_min":51,"x_max":955.0625,"ha":1001,"o":"m 470 -29 q 310 13 386 -20 q 176 113 234 48 q 85 273 119 177 q 51 501 51 369 q 94 738 51 638 q 208 904 138 838 q 363 1000 277 969 q 533 1032 449 1032 q 628 1025 589 1032 q 695 1009 667 1019 q 744 984 723 998 q 785 955 764 970 l 826 1000 l 903 1000 l 903 610 l 751 610 q 741 713 755 658 q 698 815 727 768 q 630 893 670 862 q 543 924 590 924 q 478 903 511 924 q 418 835 445 883 q 374 705 391 786 q 358 501 358 623 q 371 309 358 387 q 407 183 384 232 q 463 110 430 134 q 536 77 495 86 q 631 126 590 88 q 699 218 672 163 q 737 336 725 272 q 745 466 749 401 l 955 363 q 928 213 956 282 q 850 95 900 145 q 733 13 800 44 q 591 -27 666 -17 l 591 -104 q 670 -108 638 -97 q 724 -141 703 -120 q 753 -187 744 -162 q 763 -230 763 -212 q 753 -285 763 -258 q 721 -335 744 -312 q 657 -372 697 -358 q 554 -386 617 -386 q 468 -370 505 -386 q 402 -334 430 -354 l 425 -252 q 496 -286 464 -279 q 551 -290 528 -294 q 586 -272 573 -286 q 599 -238 599 -258 q 569 -198 599 -211 q 470 -198 539 -186 l 470 -29 "},"Ĵ":{"x_min":65,"x_max":892.984375,"ha":917,"o":"m 187 546 q 202 361 187 444 q 247 218 218 277 q 313 127 275 159 q 392 96 350 96 q 454 120 431 96 q 489 179 477 144 q 504 254 501 215 q 508 325 508 294 l 508 926 l 451 926 l 451 1000 l 860 1000 l 860 926 l 804 926 l 804 313 q 776 165 804 230 q 699 54 748 99 q 583 -14 651 9 q 435 -39 516 -39 q 328 -27 371 -39 q 252 0 284 -16 q 196 39 220 18 q 146 82 171 61 l 146 0 l 65 0 l 65 546 l 187 546 m 892 1072 l 729 1072 l 655 1177 l 580 1072 l 415 1072 l 576 1280 l 733 1280 l 892 1072 "},"Й":{"x_min":69.453125,"x_max":1009.796875,"ha":1079,"o":"m 540 1065 q 443 1071 488 1065 q 361 1101 398 1077 q 299 1169 320 1125 q 281 1280 277 1213 l 427 1280 q 436 1211 427 1236 q 461 1174 445 1186 q 498 1159 477 1162 q 540 1157 519 1157 q 581 1159 561 1157 q 618 1174 602 1162 q 643 1211 634 1186 q 652 1280 652 1236 l 798 1280 q 781 1169 802 1213 q 719 1101 759 1125 q 636 1071 682 1077 q 540 1065 591 1065 m 423 926 l 480 926 l 480 1000 l 69 1000 l 69 926 l 126 926 l 126 73 l 69 73 l 69 0 l 480 0 l 480 73 l 423 73 l 423 155 l 655 593 l 655 73 l 598 73 l 598 0 l 1009 0 l 1009 73 l 952 73 l 952 926 l 1009 926 l 1009 1000 l 598 1000 l 598 926 l 655 926 l 655 844 l 423 406 l 423 926 "},"È":{"x_min":69.046875,"x_max":843,"ha":933,"o":"m 69 0 l 69 73 l 126 73 l 126 926 l 69 926 l 69 1000 l 843 1000 l 843 607 l 749 607 q 711 720 741 666 q 637 813 681 775 q 536 873 593 852 q 418 888 480 894 l 418 639 l 627 639 l 627 492 l 418 492 l 418 111 q 532 132 476 106 q 633 204 588 158 q 707 311 677 249 q 739 441 736 373 l 843 441 l 843 0 l 69 0 m 454 1072 l 231 1281 l 416 1281 l 577 1072 l 454 1072 "},"X":{"x_min":48.609375,"x_max":962.578125,"ha":1011,"o":"m 641 555 l 905 74 l 962 74 l 962 0 l 513 0 l 513 74 l 570 74 l 452 290 l 298 74 l 355 74 l 355 0 l 48 0 l 48 74 l 105 74 l 372 437 l 105 926 l 48 926 l 48 1000 l 497 1000 l 497 926 l 440 926 l 563 698 l 730 926 l 673 926 l 673 1000 l 962 1000 l 962 926 l 905 926 l 641 555 "},"ô":{"x_min":51,"x_max":1015,"ha":1064,"o":"m 690 500 q 677 688 690 608 q 643 820 664 768 q 593 898 621 872 q 533 924 564 924 q 472 898 501 924 q 422 820 444 872 q 388 688 401 768 q 376 500 376 608 q 388 311 376 391 q 422 179 401 231 q 472 101 444 127 q 533 76 501 76 q 593 101 564 76 q 643 179 621 127 q 677 311 664 231 q 690 500 690 391 m 1015 500 q 976 279 1015 377 q 871 111 937 180 q 718 5 806 43 q 533 -32 630 -32 q 346 5 434 -32 q 194 111 259 43 q 89 279 128 180 q 51 500 51 377 q 89 720 51 622 q 194 888 128 819 q 346 994 259 957 q 533 1032 434 1032 q 718 994 630 1032 q 871 888 806 957 q 976 720 937 819 q 1015 500 1015 622 m 767 1072 l 604 1072 l 530 1177 l 455 1072 l 290 1072 l 451 1280 l 608 1280 l 767 1072 "},"Б":{"x_min":69.046875,"x_max":1013,"ha":1055,"o":"m 422 102 q 546 107 492 95 q 635 145 599 119 q 688 209 670 172 q 707 292 707 247 q 690 371 707 328 q 629 442 673 413 q 526 476 579 473 q 422 479 474 479 l 422 102 m 422 607 q 652 605 556 616 q 814 569 748 594 q 919 509 880 544 q 979 434 958 473 q 1006 358 1000 395 q 1013 290 1013 320 q 976 151 1013 211 q 873 52 940 91 q 690 -4 798 9 q 454 -4 582 -18 l 69 0 l 69 73 l 126 73 l 126 926 l 69 926 l 69 1000 l 901 1000 l 901 676 l 808 676 q 760 782 798 737 q 669 856 723 827 q 550 898 615 886 q 422 907 485 911 l 422 607 "},"ȅ":{"x_min":69.046875,"x_max":843,"ha":933,"o":"m 69 0 l 69 73 l 126 73 l 126 926 l 69 926 l 69 1000 l 843 1000 l 843 607 l 749 607 q 711 720 741 666 q 637 813 681 775 q 536 873 593 852 q 418 888 480 894 l 418 639 l 627 639 l 627 492 l 418 492 l 418 111 q 532 132 476 106 q 633 204 588 158 q 707 311 677 249 q 739 441 736 373 l 843 441 l 843 0 l 69 0 m 330 1072 l 87 1280 l 273 1280 l 459 1072 l 330 1072 m 557 1072 l 355 1280 l 530 1280 l 680 1072 l 557 1072 "},"Ė":{"x_min":69.046875,"x_max":843,"ha":933,"o":"m 69 0 l 69 73 l 126 73 l 126 926 l 69 926 l 69 1000 l 843 1000 l 843 607 l 749 607 q 711 720 741 666 q 637 813 681 775 q 536 873 593 852 q 418 888 480 894 l 418 639 l 627 639 l 627 492 l 418 492 l 418 111 q 532 132 476 106 q 633 204 588 158 q 707 311 677 249 q 739 441 736 373 l 843 441 l 843 0 l 69 0 m 574 1072 l 385 1072 l 385 1258 l 574 1258 l 574 1072 "},"г":{"x_min":69.046875,"x_max":851.203125,"ha":907,"o":"m 758 607 q 718 721 748 668 q 644 814 688 775 q 542 873 599 852 q 422 889 485 893 l 422 74 l 478 74 l 478 0 l 69 0 l 69 74 l 126 74 l 126 926 l 69 926 l 69 1000 l 851 1000 l 851 607 l 758 607 "},"Ā":{"x_min":41.671875,"x_max":1016.75,"ha":1058,"o":"m 612 0 l 612 74 l 669 74 l 619 242 l 320 242 l 269 74 l 326 74 l 326 0 l 41 0 l 41 74 l 98 74 l 354 926 l 280 926 l 280 1000 l 769 1000 l 769 926 l 695 926 l 959 74 l 1016 74 l 1016 0 l 612 0 m 468 752 l 370 414 l 568 414 l 468 752 m 266 1192 l 776 1192 l 776 1081 l 266 1081 l 266 1192 "},"ċ":{"x_min":51,"x_max":947.0625,"ha":1006,"o":"m 535 77 q 630 126 589 88 q 698 218 671 163 q 736 336 724 272 q 744 466 748 401 l 947 366 q 915 202 948 276 q 824 77 883 129 q 689 -3 766 24 q 527 -32 612 -32 q 349 -2 435 -32 q 197 92 263 27 q 91 257 131 156 q 51 501 51 358 q 94 738 51 638 q 207 904 138 838 q 362 1000 277 969 q 533 1032 448 1032 q 627 1025 588 1032 q 694 1009 666 1019 q 742 984 721 998 q 784 955 763 970 l 824 1000 l 902 1000 l 902 610 l 756 610 q 745 713 760 658 q 701 815 730 768 q 630 893 671 862 q 542 924 589 924 q 478 903 510 924 q 418 835 445 883 q 374 705 391 786 q 358 501 358 623 q 371 309 358 387 q 407 183 384 231 q 462 110 430 134 q 535 77 495 86 m 626 1079 l 437 1079 l 437 1265 l 626 1265 l 626 1079 "},"đ":{"x_min":27.375,"x_max":1029,"ha":1071,"o":"m 1029 501 q 981 277 1029 372 q 857 121 934 183 q 683 29 780 59 q 489 0 587 0 l 69 0 l 69 73 l 126 73 l 126 432 l 27 432 l 27 554 l 126 554 l 126 926 l 69 926 l 69 1000 l 452 1000 q 658 969 555 1000 q 843 877 760 938 q 977 721 926 815 q 1029 501 1029 627 m 722 497 q 696 643 722 572 q 630 768 671 713 q 535 855 589 822 q 423 889 481 889 l 423 554 l 591 554 l 591 432 l 423 432 l 423 111 q 535 142 481 111 q 630 227 589 174 q 696 350 671 280 q 722 497 722 420 "},"Ŀ":{"x_min":70.046875,"x_max":835,"ha":902,"o":"m 835 0 l 70 0 l 70 73 l 127 73 l 127 926 l 70 926 l 70 1000 l 477 1000 l 477 926 l 421 926 l 421 118 q 541 143 483 118 q 641 227 598 169 q 706 379 683 286 q 725 606 730 472 l 835 606 l 835 0 m 700 639 l 511 639 l 511 825 l 700 825 l 700 639 "},"":{"x_min":58,"x_max":290,"ha":349,"o":"m 290 -246 l 205 -382 l 145 -382 l 180 -246 l 58 -246 l 58 -42 l 290 -42 l 290 -246 "},"х":{"x_min":48.609375,"x_max":962.578125,"ha":1011,"o":"m 641 555 l 905 74 l 962 74 l 962 0 l 513 0 l 513 74 l 570 74 l 452 290 l 298 74 l 355 74 l 355 0 l 48 0 l 48 74 l 105 74 l 372 437 l 105 926 l 48 926 l 48 1000 l 497 1000 l 497 926 l 440 926 l 563 698 l 730 926 l 673 926 l 673 1000 l 962 1000 l 962 926 l 905 926 l 641 555 "},"Δ":{"x_min":58.34375,"x_max":961.1875,"ha":1020,"o":"m 58 0 l 58 81 l 359 1000 l 657 1000 l 961 81 l 961 0 l 58 0 m 440 808 l 231 157 l 645 157 l 440 808 "},"ț":{"x_min":58,"x_max":954,"ha":1012,"o":"m 58 1000 l 954 1000 l 954 548 l 840 548 q 829 667 840 607 q 796 774 819 727 q 737 850 773 821 q 652 876 702 878 l 652 74 l 708 74 l 708 0 l 302 0 l 302 74 l 359 74 l 359 876 q 273 850 309 878 q 215 774 238 821 q 182 667 192 727 q 172 548 172 607 l 58 548 l 58 1000 m 626 -275 l 541 -411 l 481 -411 l 516 -275 l 394 -275 l 394 -71 l 626 -71 l 626 -275 "},"ŋ":{"x_min":69.046875,"x_max":923.953125,"ha":982,"o":"m 867 926 l 867 -134 q 812 -312 867 -250 q 644 -375 757 -375 q 540 -360 586 -375 q 465 -325 494 -345 l 465 -160 q 529 -231 488 -207 q 608 -256 570 -256 q 695 -221 673 -256 q 718 -104 718 -187 l 718 -20 l 261 675 l 261 74 l 317 74 l 317 0 l 69 0 l 69 74 l 126 74 l 126 926 l 69 926 l 69 1000 l 408 1000 l 718 529 l 718 926 l 661 926 l 661 1000 l 923 1000 l 923 926 l 867 926 "},"}":{"x_min":-62.5,"x_max":479.203125,"ha":521,"o":"m -62 -55 q 56 -32 20 -55 q 100 31 91 -9 q 103 133 109 73 q 97 266 97 193 q 112 343 98 305 q 150 411 126 380 q 204 466 173 443 q 273 500 236 488 q 204 532 236 509 q 150 586 173 555 q 112 654 126 618 q 97 732 98 691 q 103 865 97 805 q 100 967 109 925 q 56 1032 91 1009 q -62 1055 20 1055 l -62 1143 q 108 1148 26 1157 q 247 1099 190 1138 q 329 986 304 1059 q 330 795 354 912 q 327 696 319 738 q 356 625 334 654 q 409 581 377 597 q 479 562 441 566 l 479 436 q 409 416 441 431 q 356 372 377 401 q 327 302 334 344 q 330 202 319 259 q 329 13 354 87 q 247 -100 304 -61 q 108 -150 190 -140 q -62 -144 26 -159 l -62 -55 "},"â":{"x_min":41.671875,"x_max":1016.75,"ha":1058,"o":"m 612 0 l 612 74 l 669 74 l 619 242 l 320 242 l 269 74 l 326 74 l 326 0 l 41 0 l 41 74 l 98 74 l 354 926 l 280 926 l 280 1000 l 769 1000 l 769 926 l 695 926 l 959 74 l 1016 74 l 1016 0 l 612 0 m 468 752 l 370 414 l 568 414 l 468 752 m 763 1072 l 600 1072 l 526 1177 l 451 1072 l 286 1072 l 447 1280 l 604 1280 l 763 1072 "},"ø":{"x_min":51,"x_max":1015,"ha":1064,"o":"m 914 994 l 852 907 q 971 734 927 837 q 1015 500 1015 632 q 976 279 1015 377 q 871 111 937 180 q 718 5 806 43 q 533 -32 630 -32 q 381 -8 453 -32 q 249 60 309 14 l 184 -31 l 110 17 l 184 120 q 86 285 121 189 q 51 499 51 380 q 89 720 51 622 q 194 888 128 819 q 346 994 259 956 q 533 1032 434 1032 q 663 1013 601 1032 q 781 961 726 995 l 839 1042 l 914 994 m 690 500 q 687 591 690 547 q 680 672 684 636 l 396 259 q 452 119 416 162 q 532 76 488 76 q 593 101 564 76 q 643 179 621 127 q 677 311 664 231 q 690 500 690 391 m 376 500 q 376 442 376 472 q 379 388 377 412 l 656 790 q 601 892 634 861 q 533 924 569 924 q 472 898 501 924 q 422 820 444 872 q 388 688 401 768 q 376 500 376 608 "},"‰":{"x_min":68,"x_max":1505,"ha":1573,"o":"m 1374 198 q 1352 250 1374 228 q 1298 273 1330 273 q 1244 250 1266 273 q 1222 198 1222 228 q 1244 144 1222 166 q 1298 122 1266 122 q 1352 144 1330 122 q 1374 198 1374 166 m 1505 197 q 1488 116 1505 153 q 1445 50 1472 78 q 1379 5 1417 21 q 1299 -10 1342 -10 q 1218 5 1255 -10 q 1152 50 1180 21 q 1109 116 1125 78 q 1093 197 1093 153 q 1109 277 1093 240 q 1152 342 1125 315 q 1218 387 1180 370 q 1299 404 1255 404 q 1379 387 1342 404 q 1445 342 1417 370 q 1488 277 1472 315 q 1505 197 1505 240 m 894 198 q 872 250 894 228 q 819 273 851 273 q 765 250 787 273 q 743 198 743 228 q 765 144 743 166 q 819 122 787 122 q 872 144 851 122 q 894 198 894 166 m 350 811 q 327 864 350 842 q 273 886 305 886 q 219 864 241 886 q 197 811 197 842 q 219 758 197 780 q 273 736 241 736 q 327 758 305 736 q 350 811 350 780 m 1025 197 q 1009 116 1025 153 q 965 50 993 78 q 900 5 937 21 q 819 -10 862 -10 q 738 5 776 -10 q 673 50 701 21 q 629 116 645 78 q 614 197 614 153 q 629 277 614 240 q 673 342 645 315 q 738 387 701 370 q 819 404 776 404 q 900 387 862 404 q 965 342 937 370 q 1009 277 993 315 q 1025 197 1025 240 m 804 1015 l 446 -10 l 275 -10 l 647 1015 l 804 1015 m 479 811 q 463 730 479 767 q 419 664 447 692 q 354 621 391 637 q 273 605 316 605 q 192 621 230 605 q 127 664 155 637 q 83 730 99 692 q 68 811 68 767 q 83 891 68 854 q 127 957 99 929 q 192 1000 155 984 q 273 1017 230 1017 q 354 1000 316 1017 q 419 957 391 984 q 463 891 447 929 q 479 811 479 854 "},"Ä":{"x_min":41.671875,"x_max":1016.75,"ha":1058,"o":"m 612 0 l 612 74 l 669 74 l 619 242 l 320 242 l 269 74 l 326 74 l 326 0 l 41 0 l 41 74 l 98 74 l 354 926 l 280 926 l 280 1000 l 769 1000 l 769 926 l 695 926 l 959 74 l 1016 74 l 1016 0 l 612 0 m 468 752 l 370 414 l 568 414 l 468 752 m 489 1174 q 460 1098 489 1130 q 380 1066 432 1066 q 303 1098 332 1066 q 274 1174 274 1130 q 303 1247 274 1216 q 380 1279 332 1279 q 460 1247 432 1279 q 489 1174 489 1216 m 774 1174 q 746 1098 774 1130 q 667 1066 718 1066 q 588 1098 617 1066 q 559 1174 559 1130 q 588 1247 559 1216 q 667 1279 617 1279 q 746 1247 718 1279 q 774 1174 774 1216 "},"ř":{"x_min":69.046875,"x_max":1038.59375,"ha":1073,"o":"m 715 780 q 598 881 715 860 q 519 889 563 888 q 422 887 474 889 l 422 674 q 715 780 715 655 m 1038 0 l 659 0 l 520 532 l 422 532 l 422 74 l 478 74 l 478 0 l 69 0 l 69 74 l 126 74 l 126 926 l 69 926 l 69 1000 l 445 1000 q 723 997 614 1011 q 893 952 831 984 q 980 873 956 920 q 1005 770 1003 826 q 997 708 1005 743 q 963 641 989 673 q 887 582 937 608 q 753 548 837 557 l 981 74 l 1038 74 l 1038 0 m 277 1289 l 442 1289 l 517 1183 l 591 1289 l 755 1289 l 595 1081 l 438 1081 l 277 1289 "},"Ч":{"x_min":62.046875,"x_max":994.953125,"ha":1064,"o":"m 119 926 l 62 926 l 62 1000 l 471 1000 l 471 926 l 415 926 l 415 612 q 446 507 415 534 q 526 480 477 481 q 581 483 550 478 q 642 498 612 488 l 642 926 l 585 926 l 585 1000 l 994 1000 l 994 926 l 938 926 l 938 74 l 994 74 l 994 0 l 585 0 l 585 74 l 642 74 l 642 381 q 578 363 615 370 q 502 351 541 355 q 424 345 462 347 q 358 347 386 344 q 289 358 330 350 q 210 390 248 366 q 146 460 173 415 q 119 580 119 505 l 119 926 "},"ȗ":{"x_min":56.046875,"x_max":959.953125,"ha":1016,"o":"m 745 344 l 745 926 l 688 926 l 688 1000 l 959 1000 l 959 926 l 903 926 l 903 342 q 871 164 903 235 q 788 49 840 92 q 669 -13 736 5 q 530 -32 601 -32 q 358 -10 435 -32 q 226 55 281 11 q 142 167 171 99 q 113 328 113 235 l 113 926 l 56 926 l 56 1000 l 469 1000 l 469 926 l 413 926 l 413 343 q 421 275 413 307 q 449 220 429 244 q 500 184 468 197 q 579 171 532 171 q 658 184 626 171 q 710 222 690 198 q 737 277 729 245 q 745 344 745 308 m 638 1072 q 610 1151 638 1124 q 539 1179 583 1179 q 466 1151 496 1179 q 437 1072 437 1124 l 302 1072 q 367 1230 302 1173 q 539 1287 433 1287 q 633 1272 590 1287 q 708 1230 676 1257 q 756 1162 739 1202 q 774 1072 774 1121 l 638 1072 "},"—":{"x_min":69.453125,"x_max":1118.140625,"ha":1188,"o":"m 69 553 l 1118 553 l 1118 349 l 69 349 l 69 553 "},"N":{"x_min":69.046875,"x_max":923.953125,"ha":986,"o":"m 867 926 l 867 0 l 702 0 l 261 676 l 261 74 l 317 74 l 317 0 l 69 0 l 69 74 l 126 74 l 126 926 l 69 926 l 69 1000 l 408 1000 l 718 530 l 718 926 l 661 926 l 661 1000 l 923 1000 l 923 926 l 867 926 "},"2":{"x_min":47.140625,"x_max":928,"ha":1009,"o":"m 928 0 l 825 0 l 825 66 q 752 18 791 37 q 672 -11 713 0 q 588 -27 630 -22 q 504 -32 545 -32 q 425 -23 462 -32 q 359 -1 388 -15 q 309 29 330 12 q 279 61 288 45 l 240 0 l 47 0 l 404 496 q 458 578 429 534 q 512 668 487 623 q 554 755 537 713 q 572 829 570 796 q 555 881 573 862 q 492 901 537 901 q 405 878 454 901 q 314 809 356 856 q 243 690 272 762 q 218 520 215 619 l 104 520 l 104 1000 l 197 1000 l 197 937 q 345 1009 256 986 q 519 1032 433 1032 q 632 1022 566 1032 q 760 988 698 1012 q 867 920 821 963 q 924 811 914 877 q 921 731 929 770 q 882 661 914 691 l 393 204 q 445 156 411 173 q 522 136 480 140 q 609 140 563 133 q 697 166 655 148 q 772 211 738 184 q 825 272 806 237 l 825 530 l 928 530 l 928 0 "},"М":{"x_min":69.046875,"x_max":1142.9375,"ha":1212,"o":"m 1142 0 l 735 0 l 735 74 l 792 74 l 792 651 l 548 272 l 283 648 l 283 74 l 339 74 l 339 0 l 69 0 l 69 74 l 126 74 l 126 926 l 69 926 l 69 1000 l 389 1000 l 620 673 l 833 1000 l 1142 1000 l 1142 926 l 1086 926 l 1086 74 l 1142 74 l 1142 0 "},"ü":{"x_min":56.046875,"x_max":959.953125,"ha":1016,"o":"m 745 344 l 745 926 l 688 926 l 688 1000 l 959 1000 l 959 926 l 903 926 l 903 342 q 871 164 903 235 q 788 49 840 92 q 669 -13 736 5 q 530 -32 601 -32 q 358 -10 435 -32 q 226 55 281 11 q 142 167 171 99 q 113 328 113 235 l 113 926 l 56 926 l 56 1000 l 469 1000 l 469 926 l 413 926 l 413 343 q 421 275 413 307 q 449 220 429 244 q 500 184 468 197 q 579 171 532 171 q 658 184 626 171 q 710 222 690 198 q 737 277 729 245 q 745 344 745 308 m 518 1173 q 489 1097 518 1129 q 409 1065 461 1065 q 332 1097 361 1065 q 303 1173 303 1129 q 332 1246 303 1215 q 409 1278 361 1278 q 489 1246 461 1278 q 518 1173 518 1215 m 803 1173 q 775 1097 803 1129 q 696 1065 747 1065 q 617 1097 646 1065 q 588 1173 588 1129 q 617 1246 588 1215 q 696 1278 646 1278 q 775 1246 747 1278 q 803 1173 803 1215 "},"ь":{"x_min":69.046875,"x_max":1013,"ha":1055,"o":"m 422 607 q 652 605 556 616 q 814 569 748 594 q 919 509 880 544 q 979 434 958 473 q 1006 358 1000 395 q 1013 290 1013 320 q 976 151 1013 211 q 873 52 940 91 q 688 -2 798 9 q 449 0 577 -13 l 69 0 l 69 73 l 126 73 l 126 926 l 69 926 l 69 1000 l 478 1000 l 478 926 l 422 926 l 422 607 m 422 102 q 546 107 492 95 q 635 145 599 119 q 688 209 670 172 q 707 292 707 247 q 690 371 707 328 q 629 442 673 413 q 526 476 579 473 q 422 479 474 479 l 422 102 "},"˜":{"x_min":60,"x_max":576.09375,"ha":635,"o":"m 566 984 q 575 898 579 938 q 554 829 570 858 q 513 784 538 800 q 454 775 487 769 l 172 844 q 151 840 158 847 q 140 822 144 833 q 137 797 137 811 q 137 772 137 783 l 66 772 q 60 845 58 805 q 75 917 62 884 q 114 969 88 950 q 177 980 140 988 l 459 912 q 479 916 472 909 q 491 933 487 922 q 495 958 494 944 q 495 984 495 972 l 566 984 "},"Ó":{"x_min":51,"x_max":1015,"ha":1064,"o":"m 690 500 q 677 688 690 608 q 643 820 664 768 q 593 898 621 872 q 533 924 564 924 q 472 898 501 924 q 422 820 444 872 q 388 688 401 768 q 376 500 376 608 q 388 311 376 391 q 422 179 401 231 q 472 101 444 127 q 533 76 501 76 q 593 101 564 76 q 643 179 621 127 q 677 311 664 231 q 690 500 690 391 m 1015 500 q 976 279 1015 377 q 871 111 937 180 q 718 5 806 43 q 533 -32 630 -32 q 346 5 434 -32 q 194 111 259 43 q 89 279 128 180 q 51 500 51 377 q 89 720 51 622 q 194 888 128 819 q 346 994 259 957 q 533 1032 434 1032 q 718 994 630 1032 q 871 888 806 957 q 976 720 937 819 q 1015 500 1015 622 m 595 1072 l 472 1072 l 633 1281 l 817 1281 l 595 1072 "},"ˇ":{"x_min":55.5625,"x_max":533.375,"ha":589,"o":"m 55 1293 l 220 1293 l 295 1187 l 369 1293 l 533 1293 l 373 1085 l 216 1085 l 55 1293 "},"Ÿ":{"x_min":41.078125,"x_max":1102.75,"ha":1145,"o":"m 1102 926 l 1045 926 l 743 423 l 743 74 l 799 74 l 799 0 l 373 0 l 373 74 l 430 74 l 430 423 l 98 926 l 41 926 l 41 1000 l 531 1000 l 531 926 l 474 926 l 647 550 l 840 926 l 783 926 l 783 1000 l 1102 1000 l 1102 926 m 615 1173 q 586 1097 615 1129 q 506 1065 558 1065 q 429 1097 458 1065 q 400 1173 400 1129 q 429 1246 400 1215 q 506 1278 458 1278 q 586 1246 558 1278 q 615 1173 615 1215 m 900 1173 q 872 1097 900 1129 q 793 1065 844 1065 q 714 1097 743 1065 q 685 1173 685 1129 q 714 1246 685 1215 q 793 1278 743 1278 q 872 1246 844 1278 q 900 1173 900 1215 "},"ų":{"x_min":55.5625,"x_max":959.796875,"ha":1015,"o":"m 744 926 l 687 926 l 687 1000 l 959 1000 l 959 926 l 902 926 l 902 343 q 882 193 902 256 q 825 85 861 129 q 740 15 788 41 q 637 -20 691 -9 q 580 -63 605 -36 q 559 -134 555 -91 q 581 -181 563 -168 q 623 -194 600 -194 q 672 -182 647 -194 q 713 -154 697 -170 l 740 -212 q 690 -263 722 -243 q 620 -294 658 -284 q 545 -301 583 -304 q 475 -283 506 -298 q 425 -238 444 -268 q 405 -165 405 -209 q 425 -87 405 -120 q 477 -29 445 -54 q 325 0 393 -23 q 211 68 258 25 q 138 177 163 112 q 112 329 112 241 l 112 926 l 55 926 l 55 1000 l 469 1000 l 469 926 l 412 926 l 412 343 q 420 275 412 306 q 448 220 429 244 q 500 184 468 197 q 579 170 531 170 q 658 184 626 170 q 709 222 690 198 q 736 277 729 245 q 744 344 744 308 l 744 926 "},"€":{"x_min":37.484375,"x_max":957,"ha":1040,"o":"m 957 4 l 880 4 l 838 47 q 772 5 801 20 q 716 -17 744 -9 q 658 -26 688 -24 q 587 -29 627 -29 q 262 100 395 -29 q 183 200 216 144 q 130 321 150 257 l 37 321 l 37 456 l 106 456 q 104 503 104 483 q 106 547 104 523 l 37 547 l 37 682 l 130 682 q 183 803 150 745 q 262 905 216 861 q 411 1001 330 970 q 587 1032 491 1032 q 657 1029 627 1032 q 714 1020 687 1027 q 770 997 741 1013 q 838 955 800 981 l 880 1000 l 957 1000 l 957 610 l 804 610 l 807 633 q 790 741 807 689 q 744 833 773 793 q 677 899 715 874 q 595 924 638 924 q 488 857 534 924 q 426 682 441 791 l 706 682 l 679 547 l 415 547 q 408 503 408 523 q 415 456 408 483 l 662 456 l 634 321 l 426 321 q 488 143 441 208 q 595 79 534 79 q 678 105 640 79 q 745 173 716 131 q 790 267 773 215 q 807 369 807 319 l 804 392 l 957 392 l 957 4 "},"в":{"x_min":69.046875,"x_max":1028,"ha":1064,"o":"m 422 116 q 548 121 492 109 q 642 161 604 133 q 700 230 680 189 q 721 321 721 271 q 704 407 721 359 q 643 487 687 455 q 590 513 618 504 q 533 525 562 522 q 476 528 505 528 q 422 528 448 528 l 422 116 m 422 668 q 504 667 458 668 q 591 675 550 666 q 660 709 632 684 q 688 781 688 733 q 660 852 688 829 q 591 885 632 876 q 505 892 551 894 q 422 889 459 890 l 422 668 m 1028 322 q 983 156 1028 225 q 861 49 939 88 q 679 -2 783 9 q 454 0 574 -15 l 69 0 l 69 73 l 126 73 l 126 926 l 69 926 l 69 1000 l 602 1000 q 739 990 675 1002 q 854 952 804 977 q 935 886 904 926 q 970 795 965 847 q 962 739 971 768 q 931 684 953 711 q 876 637 910 658 q 794 604 842 616 q 889 563 846 590 q 962 499 932 536 q 1010 417 993 462 q 1028 322 1028 372 "},"Η":{"x_min":69.046875,"x_max":995.9375,"ha":1065,"o":"m 995 0 l 585 0 l 585 74 l 642 74 l 642 492 l 423 492 l 423 74 l 479 74 l 479 0 l 69 0 l 69 74 l 126 74 l 126 926 l 69 926 l 69 1000 l 479 1000 l 479 926 l 423 926 l 423 639 l 642 639 l 642 926 l 585 926 l 585 1000 l 995 1000 l 995 926 l 939 926 l 939 74 l 995 74 l 995 0 "},"Ŭ":{"x_min":56.046875,"x_max":959.953125,"ha":1016,"o":"m 745 344 l 745 926 l 688 926 l 688 1000 l 959 1000 l 959 926 l 903 926 l 903 342 q 871 164 903 235 q 788 49 840 92 q 669 -13 736 5 q 530 -32 601 -32 q 358 -10 435 -32 q 226 55 281 11 q 142 167 171 99 q 113 328 113 235 l 113 926 l 56 926 l 56 1000 l 469 1000 l 469 926 l 413 926 l 413 343 q 421 275 413 307 q 449 220 429 244 q 500 184 468 197 q 579 171 532 171 q 658 184 626 171 q 710 222 690 198 q 737 277 729 245 q 745 344 745 308 m 779 1280 q 761 1190 779 1230 q 713 1122 744 1149 q 639 1079 682 1094 q 544 1065 595 1065 q 373 1122 439 1065 q 307 1280 307 1179 l 441 1280 q 471 1200 441 1227 q 544 1173 501 1173 q 616 1200 589 1173 q 643 1280 643 1227 l 779 1280 "},"С":{"x_min":51,"x_max":902.484375,"ha":993,"o":"m 902 0 l 824 0 l 784 44 q 739 15 763 29 q 683 -9 714 1 q 609 -25 651 -19 q 512 -32 567 -32 q 344 0 427 -32 q 196 96 262 30 q 91 262 131 162 q 51 500 51 362 q 91 737 51 637 q 196 903 131 837 q 344 1000 262 969 q 512 1032 427 1032 q 609 1025 567 1032 q 683 1009 651 1019 q 739 984 714 998 q 784 955 763 970 l 824 1000 l 902 1000 l 902 614 l 749 614 q 739 717 753 662 q 697 817 726 771 q 629 893 669 862 q 542 924 589 924 q 478 900 510 924 q 418 825 445 876 q 374 694 391 775 q 358 500 358 614 q 374 296 358 377 q 418 165 391 215 q 478 96 445 116 q 542 76 510 76 q 629 107 589 76 q 697 186 669 138 q 739 289 726 234 q 749 394 753 345 l 902 394 l 902 0 "},"ĝ":{"x_min":51,"x_max":972.71875,"ha":1017,"o":"m 972 472 l 913 472 l 913 201 q 884 117 913 159 q 805 42 856 75 q 688 -10 755 9 q 543 -31 621 -31 q 341 3 431 -31 q 186 104 251 37 q 86 271 121 171 q 51 502 51 371 q 94 740 51 640 q 208 904 138 840 q 363 1000 277 969 q 534 1032 449 1032 q 691 1008 633 1032 q 786 955 748 984 l 825 1000 l 903 1000 l 903 610 l 756 610 q 746 713 761 658 q 701 815 731 768 q 631 893 672 862 q 542 924 589 924 q 478 903 510 924 q 419 835 446 883 q 375 706 392 787 q 359 502 359 624 q 369 310 359 388 q 400 184 379 233 q 450 111 420 135 q 517 78 480 87 q 553 78 534 76 q 588 87 572 80 q 616 108 605 95 q 628 141 628 121 l 628 472 l 540 472 l 540 546 l 972 546 l 972 472 m 766 1072 l 603 1072 l 529 1177 l 454 1072 l 289 1072 l 450 1280 l 607 1280 l 766 1072 "},"Ω":{"x_min":55.5625,"x_max":1157.03125,"ha":1213,"o":"m 607 1036 q 802 1011 704 1036 q 979 937 900 987 q 1107 812 1058 887 q 1157 634 1157 737 q 1127 502 1157 564 q 1047 389 1097 440 q 930 300 997 337 q 791 240 863 262 l 791 163 l 876 163 q 985 197 948 163 q 1040 307 1022 232 l 1129 307 l 1129 0 l 661 0 l 661 342 q 708 377 687 355 q 744 435 729 399 q 768 520 759 470 q 776 638 776 570 q 761 783 776 726 q 722 873 747 839 q 668 919 698 906 q 605 933 637 933 q 543 919 573 933 q 488 871 512 905 q 450 781 465 838 q 436 638 436 724 q 467 435 436 502 q 551 342 498 367 l 551 0 l 83 0 l 83 307 l 172 307 q 227 197 190 232 q 336 163 263 163 l 420 163 l 420 240 q 281 300 347 262 q 165 389 215 337 q 85 502 115 440 q 55 634 55 564 q 104 813 55 737 q 233 938 154 888 q 410 1011 312 987 q 607 1036 508 1036 "},"ß":{"x_min":69.046875,"x_max":1076.296875,"ha":1106,"o":"m 675 175 q 694 123 675 143 q 741 100 713 102 q 797 116 777 97 q 816 169 816 134 q 802 225 816 198 q 763 272 787 252 q 686 316 730 298 q 601 355 641 334 q 533 403 561 376 q 506 475 506 430 q 524 550 506 520 q 566 610 543 580 q 608 677 589 640 q 628 777 628 715 q 594 886 628 848 q 485 925 561 925 q 422 909 451 925 q 394 852 394 894 l 394 74 l 450 74 l 450 0 l 69 0 l 69 74 l 126 74 l 126 789 q 154 898 126 850 q 231 979 182 947 q 351 1023 281 1011 q 499 1035 420 1035 q 621 1023 555 1033 q 743 985 687 1012 q 838 912 800 958 q 882 793 877 865 q 871 708 884 751 q 831 622 858 665 q 800 569 815 594 q 791 518 786 544 q 813 481 795 494 q 855 458 831 469 q 917 429 883 445 q 982 389 951 413 q 1038 331 1013 365 q 1072 251 1063 298 q 1068 134 1082 184 q 1020 51 1054 84 q 934 0 986 17 q 816 -17 882 -17 q 702 -2 761 -17 q 593 50 643 12 l 559 0 l 518 0 l 518 239 l 675 239 l 675 175 "},"s":{"x_min":65,"x_max":888.484375,"ha":936,"o":"m 886 333 q 867 182 895 250 q 785 67 838 115 q 658 -6 731 19 q 505 -32 585 -32 q 385 -22 440 -32 q 287 2 331 -12 q 208 38 242 18 q 148 77 173 58 l 148 0 l 65 0 l 65 484 l 154 484 l 154 459 q 182 340 154 401 q 252 230 210 280 q 341 145 294 180 q 426 104 388 111 q 529 99 491 91 q 583 127 566 106 q 601 177 601 148 q 592 236 601 206 q 538 322 577 286 q 448 386 498 358 q 345 436 398 413 q 251 479 292 458 q 120 585 166 520 q 69 720 74 650 q 102 859 64 791 q 220 972 139 926 q 363 1020 283 1007 q 516 1032 442 1034 q 594 1023 556 1032 q 663 1003 631 1015 q 721 977 695 991 q 762 951 747 964 l 762 1000 l 844 1000 l 844 604 l 751 604 q 712 722 738 666 q 647 819 686 778 q 561 885 609 861 q 458 910 513 910 q 383 891 413 910 q 345 845 352 873 q 361 782 338 816 q 448 715 384 747 q 531 673 485 694 q 622 629 576 652 q 713 576 669 605 q 794 511 758 547 q 854 432 830 476 q 886 333 879 387 "},"Ű":{"x_min":56.046875,"x_max":959.953125,"ha":1016,"o":"m 745 344 l 745 926 l 688 926 l 688 1000 l 959 1000 l 959 926 l 903 926 l 903 342 q 871 164 903 235 q 788 49 840 92 q 669 -13 736 5 q 530 -32 601 -32 q 358 -10 435 -32 q 226 55 281 11 q 142 167 171 99 q 113 328 113 235 l 113 926 l 56 926 l 56 1000 l 469 1000 l 469 926 l 413 926 l 413 343 q 421 275 413 307 q 449 220 429 244 q 500 184 468 197 q 579 171 532 171 q 658 184 626 171 q 710 222 690 198 q 737 277 729 245 q 745 344 745 308 m 577 1072 l 763 1280 l 950 1280 l 706 1072 l 577 1072 m 356 1072 l 506 1280 l 681 1280 l 480 1072 l 356 1072 "},"?":{"x_min":69.453125,"x_max":895.90625,"ha":951,"o":"m 259 387 q 277 500 259 454 q 325 580 295 547 q 393 637 354 614 q 473 677 431 659 q 567 738 533 704 q 597 809 601 772 q 554 882 591 861 q 469 903 518 903 q 394 891 436 903 q 310 846 352 879 q 228 754 268 812 q 161 604 188 696 l 69 604 l 69 1000 l 148 1000 l 148 951 q 202 984 166 968 q 284 1011 238 999 q 381 1029 330 1022 q 483 1036 433 1036 q 624 1022 551 1036 q 757 975 697 1008 q 857 886 818 941 q 895 751 895 832 q 850 621 895 676 q 704 519 805 566 q 628 487 668 502 q 554 455 588 472 q 497 416 519 437 q 475 365 475 394 l 475 336 l 259 336 l 259 387 m 486 0 l 248 0 l 248 235 l 486 235 l 486 0 "},"Ņ":{"x_min":69.046875,"x_max":923.953125,"ha":982,"o":"m 867 926 l 867 0 l 702 0 l 261 676 l 261 74 l 317 74 l 317 0 l 69 0 l 69 74 l 126 74 l 126 926 l 69 926 l 69 1000 l 408 1000 l 718 530 l 718 926 l 661 926 l 661 1000 l 923 1000 l 923 926 l 867 926 m 633 -275 l 548 -411 l 488 -411 l 523 -275 l 401 -275 l 401 -71 l 633 -71 l 633 -275 "},"c":{"x_min":51,"x_max":947.0625,"ha":993,"o":"m 535 77 q 630 126 589 88 q 698 218 671 163 q 736 336 724 272 q 744 466 748 401 l 947 366 q 915 202 948 276 q 824 77 883 129 q 689 -3 766 24 q 527 -32 612 -32 q 349 -2 435 -32 q 197 92 263 27 q 91 257 131 156 q 51 501 51 358 q 94 738 51 638 q 207 904 138 838 q 362 1000 277 969 q 533 1032 448 1032 q 627 1025 588 1032 q 694 1009 666 1019 q 742 984 721 998 q 784 955 763 970 l 824 1000 l 902 1000 l 902 610 l 756 610 q 745 713 760 658 q 701 815 730 768 q 630 893 671 862 q 542 924 589 924 q 478 903 510 924 q 418 835 445 883 q 374 705 391 786 q 358 501 358 623 q 371 309 358 387 q 407 183 384 231 q 462 110 430 134 q 535 77 495 86 "},"¶":{"x_min":69.421875,"x_max":908.953125,"ha":978,"o":"m 908 926 l 852 926 l 852 -139 l 658 -139 l 658 926 l 539 926 l 539 -139 l 350 -139 l 350 359 q 237 374 288 359 q 148 427 186 390 q 90 524 111 463 q 69 676 69 584 q 93 837 69 774 q 154 936 116 899 q 236 986 191 972 q 325 1000 281 1000 l 908 1000 l 908 926 "},"Μ":{"x_min":69.046875,"x_max":1142.9375,"ha":1212,"o":"m 1142 0 l 735 0 l 735 74 l 792 74 l 792 651 l 548 272 l 283 648 l 283 74 l 339 74 l 339 0 l 69 0 l 69 74 l 126 74 l 126 926 l 69 926 l 69 1000 l 389 1000 l 620 673 l 833 1000 l 1142 1000 l 1142 926 l 1086 926 l 1086 74 l 1142 74 l 1142 0 "},"Ī":{"x_min":20.671875,"x_max":530.4375,"ha":548,"o":"m 478 1000 l 478 926 l 422 926 l 422 74 l 478 74 l 478 0 l 69 0 l 69 74 l 126 74 l 126 926 l 69 926 l 69 1000 l 478 1000 m 20 1192 l 530 1192 l 530 1081 l 20 1081 l 20 1192 "},"Ȕ":{"x_min":56.046875,"x_max":959.953125,"ha":1016,"o":"m 745 344 l 745 926 l 688 926 l 688 1000 l 959 1000 l 959 926 l 903 926 l 903 342 q 871 164 903 235 q 788 49 840 92 q 669 -13 736 5 q 530 -32 601 -32 q 358 -10 435 -32 q 226 55 281 11 q 142 167 171 99 q 113 328 113 235 l 113 926 l 56 926 l 56 1000 l 469 1000 l 469 926 l 413 926 l 413 343 q 421 275 413 307 q 449 220 429 244 q 500 184 468 197 q 579 171 532 171 q 658 184 626 171 q 710 222 690 198 q 737 277 729 245 q 745 344 745 308 m 369 1072 l 126 1280 l 312 1280 l 498 1072 l 369 1072 m 596 1072 l 394 1280 l 569 1280 l 719 1072 l 596 1072 "},"•":{"x_min":69.453125,"x_max":491.703125,"ha":561,"o":"m 491 484 q 475 402 491 440 q 429 336 458 365 q 361 292 400 308 q 280 276 323 276 q 197 292 236 276 q 131 336 159 308 q 86 402 102 365 q 69 484 69 440 q 86 566 69 527 q 131 633 102 604 q 197 678 159 661 q 280 695 236 695 q 361 678 323 695 q 429 633 400 661 q 475 566 458 604 q 491 484 491 527 "},"н":{"x_min":69.046875,"x_max":995.9375,"ha":1065,"o":"m 995 0 l 585 0 l 585 74 l 642 74 l 642 492 l 423 492 l 423 74 l 479 74 l 479 0 l 69 0 l 69 74 l 126 74 l 126 926 l 69 926 l 69 1000 l 479 1000 l 479 926 l 423 926 l 423 639 l 642 639 l 642 926 l 585 926 l 585 1000 l 995 1000 l 995 926 l 939 926 l 939 74 l 995 74 l 995 0 "},"(":{"x_min":68,"x_max":497.578125,"ha":524,"o":"m 497 -56 l 323 -56 q 219 69 266 3 q 138 203 172 134 q 86 343 105 271 q 68 485 68 415 q 138 767 68 630 q 323 1025 209 905 l 497 1025 q 380 750 419 883 q 342 485 342 617 q 380 219 342 352 q 497 -56 419 87 "},"γ":{"x_min":69.046875,"x_max":851.203125,"ha":907,"o":"m 758 607 q 718 721 748 668 q 644 814 688 775 q 542 873 599 852 q 422 889 485 893 l 422 74 l 478 74 l 478 0 l 69 0 l 69 74 l 126 74 l 126 926 l 69 926 l 69 1000 l 851 1000 l 851 607 l 758 607 "},"α":{"x_min":41.671875,"x_max":1016.75,"ha":1058,"o":"m 612 0 l 612 74 l 669 74 l 619 242 l 320 242 l 269 74 l 326 74 l 326 0 l 41 0 l 41 74 l 98 74 l 354 926 l 280 926 l 280 1000 l 769 1000 l 769 926 l 695 926 l 959 74 l 1016 74 l 1016 0 l 612 0 m 468 752 l 370 414 l 568 414 l 468 752 "},"Ȋ":{"x_min":39,"x_max":511,"ha":548,"o":"m 478 1000 l 478 926 l 422 926 l 422 74 l 478 74 l 478 0 l 69 0 l 69 74 l 126 74 l 126 926 l 69 926 l 69 1000 l 478 1000 m 375 1072 q 347 1151 375 1124 q 276 1179 320 1179 q 203 1151 233 1179 q 174 1072 174 1124 l 39 1072 q 104 1230 39 1173 q 276 1287 170 1287 q 370 1272 327 1287 q 445 1230 413 1257 q 493 1162 476 1202 q 511 1072 511 1121 l 375 1072 "},"м":{"x_min":69.046875,"x_max":1142.9375,"ha":1212,"o":"m 1142 0 l 735 0 l 735 74 l 792 74 l 792 651 l 548 272 l 283 648 l 283 74 l 339 74 l 339 0 l 69 0 l 69 74 l 126 74 l 126 926 l 69 926 l 69 1000 l 389 1000 l 620 673 l 833 1000 l 1142 1000 l 1142 926 l 1086 926 l 1086 74 l 1142 74 l 1142 0 "},"­":{"x_min":68.0625,"x_max":611.15625,"ha":678,"o":"m 611 410 l 68 410 l 68 596 l 611 596 l 611 410 "},"Ħ":{"x_min":55.15625,"x_max":1009.828125,"ha":1065,"o":"m 995 0 l 585 0 l 585 74 l 642 74 l 642 436 l 423 436 l 423 74 l 479 74 l 479 0 l 69 0 l 69 74 l 126 74 l 126 703 l 55 703 l 55 806 l 126 806 l 126 926 l 69 926 l 69 1000 l 479 1000 l 479 926 l 423 926 l 423 806 l 642 806 l 642 926 l 585 926 l 585 1000 l 995 1000 l 995 926 l 939 926 l 939 806 l 1009 806 l 1009 703 l 939 703 l 939 74 l 995 74 l 995 0 m 642 583 l 642 703 l 423 703 l 423 583 l 642 583 "},"ȳ":{"x_min":41.078125,"x_max":1102.75,"ha":1145,"o":"m 1102 926 l 1045 926 l 743 423 l 743 74 l 799 74 l 799 0 l 373 0 l 373 74 l 430 74 l 430 423 l 98 926 l 41 926 l 41 1000 l 531 1000 l 531 926 l 474 926 l 647 550 l 840 926 l 783 926 l 783 1000 l 1102 1000 l 1102 926 m 334 1192 l 844 1192 l 844 1081 l 334 1081 l 334 1192 "},"з":{"x_min":83,"x_max":894,"ha":943,"o":"m 208 689 l 94 689 l 94 1000 l 186 1000 l 186 941 q 325 1013 251 994 q 483 1032 399 1032 q 602 1020 538 1032 q 721 981 666 1008 q 816 907 775 954 q 864 793 856 861 q 860 705 870 746 q 825 634 849 665 q 764 582 800 603 q 685 554 728 561 q 765 531 727 550 q 832 480 803 512 q 877 405 860 448 q 894 309 894 362 q 858 150 894 215 q 761 45 823 86 q 617 -13 699 4 q 442 -32 535 -32 q 362 -27 402 -32 q 288 -11 323 -22 q 222 13 252 -1 q 174 50 192 29 l 174 0 l 83 0 l 83 416 l 181 416 q 212 270 189 333 q 268 166 235 208 q 342 103 301 125 q 430 82 384 82 q 483 97 455 82 q 535 140 512 112 q 573 208 557 168 q 587 297 588 248 q 571 381 585 346 q 537 438 557 415 q 492 472 517 461 q 444 484 467 484 l 349 484 l 349 592 l 434 592 q 544 630 512 592 q 576 751 576 669 q 563 820 576 789 q 531 874 551 851 q 488 910 512 897 q 442 924 464 924 q 353 903 392 924 q 285 850 315 883 q 238 776 256 818 q 208 689 219 734 "},":":{"x_min":69,"x_max":307,"ha":376,"o":"m 307 457 l 69 457 l 69 692 l 307 692 l 307 457 m 307 0 l 69 0 l 69 235 l 307 235 l 307 0 "},"Û":{"x_min":56.046875,"x_max":959.953125,"ha":1016,"o":"m 745 344 l 745 926 l 688 926 l 688 1000 l 959 1000 l 959 926 l 903 926 l 903 342 q 871 164 903 235 q 788 49 840 92 q 669 -13 736 5 q 530 -32 601 -32 q 358 -10 435 -32 q 226 55 281 11 q 142 167 171 99 q 113 328 113 235 l 113 926 l 56 926 l 56 1000 l 469 1000 l 469 926 l 413 926 l 413 343 q 421 275 413 307 q 449 220 429 244 q 500 184 468 197 q 579 171 532 171 q 658 184 626 171 q 710 222 690 198 q 737 277 729 245 q 745 344 745 308 m 798 1072 l 635 1072 l 561 1177 l 486 1072 l 321 1072 l 482 1280 l 639 1280 l 798 1072 "},"ȉ":{"x_min":69.046875,"x_max":478.953125,"ha":548,"o":"m 478 1000 l 478 926 l 422 926 l 422 74 l 478 74 l 478 0 l 69 0 l 69 74 l 126 74 l 126 926 l 69 926 l 69 1000 l 478 1000 m 374 1072 l 185 1072 l 185 1258 l 374 1258 l 374 1072 "},"ś":{"x_min":65,"x_max":888.484375,"ha":936,"o":"m 886 333 q 867 182 895 250 q 785 67 838 115 q 658 -6 731 19 q 505 -32 585 -32 q 385 -22 440 -32 q 287 2 331 -12 q 208 38 242 18 q 148 77 173 58 l 148 0 l 65 0 l 65 484 l 154 484 l 154 459 q 182 340 154 401 q 252 230 210 280 q 341 145 294 180 q 426 104 388 111 q 529 99 491 91 q 583 127 566 106 q 601 177 601 148 q 592 236 601 206 q 538 322 577 286 q 448 386 498 358 q 345 436 398 413 q 251 479 292 458 q 120 585 166 520 q 69 720 74 650 q 102 859 64 791 q 220 972 139 926 q 363 1020 283 1007 q 516 1032 442 1034 q 594 1023 556 1032 q 663 1003 631 1015 q 721 977 695 991 q 762 951 747 964 l 762 1000 l 844 1000 l 844 604 l 751 604 q 712 722 738 666 q 647 819 686 778 q 561 885 609 861 q 458 910 513 910 q 383 891 413 910 q 345 845 352 873 q 361 782 338 816 q 448 715 384 747 q 531 673 485 694 q 622 629 576 652 q 713 576 669 605 q 794 511 758 547 q 854 432 830 476 q 886 333 879 387 m 548 1072 l 425 1072 l 586 1281 l 770 1281 l 548 1072 "},"V":{"x_min":41.671875,"x_max":1080.640625,"ha":1122,"o":"m 1023 926 l 663 74 l 737 74 l 737 0 l 440 0 l 440 74 l 513 74 l 98 926 l 41 926 l 41 1000 l 508 1000 l 508 926 l 451 926 l 669 469 l 858 926 l 801 926 l 801 1000 l 1080 1000 l 1080 926 l 1023 926 "},"Ŗ":{"x_min":69.046875,"x_max":1038.59375,"ha":1073,"o":"m 715 780 q 598 881 715 860 q 519 889 563 888 q 422 887 474 889 l 422 674 q 715 780 715 655 m 1038 0 l 659 0 l 520 532 l 422 532 l 422 74 l 478 74 l 478 0 l 69 0 l 69 74 l 126 74 l 126 926 l 69 926 l 69 1000 l 445 1000 q 723 997 614 1011 q 893 952 831 984 q 980 873 956 920 q 1005 770 1003 826 q 997 708 1005 743 q 963 641 989 673 q 887 582 937 608 q 753 548 837 557 l 981 74 l 1038 74 l 1038 0 m 662 -275 l 577 -411 l 517 -411 l 552 -275 l 430 -275 l 430 -71 l 662 -71 l 662 -275 "}," ":{"x_min":0,"x_max":0,"ha":208},"У":{"x_min":28.046875,"x_max":1045.953125,"ha":1074,"o":"m 135 225 l 232 225 q 263 147 233 173 q 336 122 293 122 q 388 127 362 122 q 436 148 415 133 q 475 190 458 163 q 504 260 493 217 l 85 926 l 28 926 l 28 1000 l 490 1000 l 490 926 l 434 926 l 644 570 l 788 926 l 733 926 l 733 1000 l 1045 1000 l 1045 926 l 989 926 l 677 209 q 605 88 645 134 q 519 16 565 42 q 422 -18 473 -9 q 315 -28 370 -28 q 218 -18 266 -28 q 135 9 171 -8 l 135 225 "},"@":{"x_min":47,"x_max":1113,"ha":1160,"o":"m 691 646 q 640 674 677 674 q 583 661 615 674 q 526 621 551 648 q 488 555 505 597 q 464 464 472 512 q 461 372 456 417 q 484 303 465 328 q 516 283 497 287 q 554 282 534 279 q 593 294 575 286 q 623 314 612 303 l 691 646 m 1113 573 q 1086 430 1113 499 q 1012 306 1060 360 q 895 219 964 252 q 743 186 826 186 q 709 190 726 186 q 675 201 691 194 q 644 219 658 209 q 623 240 630 229 q 564 203 604 220 q 473 186 523 186 q 370 209 415 186 q 305 281 325 233 q 283 391 283 334 q 298 502 283 448 q 341 603 314 555 q 402 683 369 650 q 500 750 447 726 q 609 774 554 774 q 667 762 639 774 q 709 729 696 750 l 715 763 l 886 763 l 803 319 q 800 301 801 310 q 799 285 798 292 q 803 273 800 278 q 816 269 807 269 q 894 297 861 269 q 949 366 928 325 q 981 453 971 407 q 992 535 992 499 q 961 699 992 631 q 877 809 930 766 q 752 872 823 852 q 597 893 680 893 q 434 860 508 893 q 307 771 361 827 q 225 640 254 715 q 196 480 196 564 q 227 320 196 393 q 312 193 258 246 q 439 108 366 139 q 593 77 511 78 q 682 79 636 74 q 771 100 728 85 q 853 138 815 114 q 919 197 892 162 l 1033 197 q 839 32 954 89 q 598 -24 725 -24 q 393 10 493 -24 q 217 110 294 44 q 93 274 140 177 q 47 498 47 371 q 90 719 47 620 q 208 887 133 817 q 386 994 284 956 q 607 1033 488 1033 q 807 997 715 1033 q 967 900 900 962 q 1074 754 1035 838 q 1113 573 1113 670 "},"¾":{"x_min":78,"x_max":2016.515625,"ha":2054,"o":"m 1550 347 l 1550 680 l 1315 355 q 1370 346 1340 348 q 1431 341 1399 343 q 1493 341 1462 340 q 1550 347 1523 343 m 764 412 q 733 278 764 333 q 650 187 702 222 q 529 137 598 153 q 380 122 459 122 q 249 139 312 122 q 155 191 186 157 l 155 148 l 78 148 l 78 563 l 161 563 q 179 412 161 476 q 226 304 197 347 q 293 239 255 261 q 369 218 330 218 q 415 231 391 218 q 459 268 439 244 q 491 325 479 291 q 503 401 504 359 q 490 473 501 443 q 461 522 479 503 q 423 550 444 541 q 381 560 402 560 l 306 560 l 306 652 l 373 652 q 466 685 440 652 q 493 788 493 718 q 482 846 493 819 q 455 891 472 872 q 418 921 438 910 q 380 933 398 933 q 275 899 317 933 q 208 819 233 866 q 172 721 183 771 q 161 635 162 670 l 78 635 l 78 998 l 155 998 l 155 948 q 275 1010 211 994 q 411 1026 340 1026 q 513 1016 458 1026 q 615 983 568 1006 q 697 919 663 959 q 738 822 731 880 q 734 748 744 782 q 704 687 725 714 q 654 643 684 661 q 587 619 623 625 q 654 601 622 617 q 711 558 687 585 q 749 494 734 531 q 764 412 764 457 m 1216 1039 l 923 -33 l 757 -33 l 1050 1039 l 1216 1039 m 2016 234 l 1944 208 l 1930 248 l 1797 214 l 1797 62 l 1845 62 l 1845 0 l 1501 0 l 1501 62 l 1550 62 l 1550 200 q 1484 202 1522 200 q 1404 212 1445 204 q 1324 236 1363 220 q 1259 277 1286 252 l 1209 207 l 1109 277 l 1525 850 l 1852 850 l 1852 788 l 1804 788 l 1804 376 l 1877 404 l 1866 440 l 1934 461 l 2016 234 "},"ŉ":{"x_min":46,"x_max":1029,"ha":1075,"o":"m 536 4 q 345 42 435 4 q 189 148 255 81 q 84 304 122 215 q 46 496 46 394 q 84 687 46 597 q 189 843 122 776 q 345 949 255 910 q 536 988 435 988 q 727 949 638 988 q 884 843 817 910 q 990 687 951 776 q 1029 496 1029 597 q 990 304 1029 394 q 884 148 951 215 q 727 42 817 81 q 536 4 638 4 m 536 71 q 702 104 625 71 q 836 196 779 137 q 926 331 893 254 q 960 496 960 408 q 926 660 960 583 q 836 795 893 737 q 702 886 779 853 q 536 920 625 920 q 371 886 448 920 q 236 795 294 853 q 144 660 177 737 q 111 496 111 583 q 144 331 111 408 q 236 196 177 254 q 371 104 294 137 q 536 71 448 71 m 536 100 q 382 131 454 100 q 256 216 311 162 q 171 341 202 269 q 140 496 140 414 q 171 648 140 576 q 256 773 202 719 q 382 857 311 826 q 536 887 454 887 q 688 857 616 887 q 814 773 761 826 q 899 648 868 719 q 930 496 930 576 q 899 341 930 414 q 814 216 868 269 q 688 131 761 162 q 536 100 616 100 m 536 161 q 611 175 577 161 q 674 211 646 190 q 723 259 702 233 q 759 309 745 286 q 537 281 648 280 q 314 309 426 281 q 349 259 328 286 q 398 211 369 233 q 461 175 426 190 q 536 161 495 161 m 300 330 q 774 330 535 276 l 849 450 l 223 450 l 300 330 m 591 496 l 538 622 l 485 496 l 591 496 m 408 593 q 418 592 411 590 q 434 598 426 594 q 448 606 443 602 q 454 612 454 611 q 422 693 434 651 q 386 768 409 734 q 368 768 381 773 q 339 752 354 762 q 313 733 325 743 q 305 720 302 723 l 408 593 m 766 720 q 759 733 769 723 q 734 752 748 743 q 705 768 719 762 q 687 768 691 773 q 650 693 661 734 q 622 612 638 651 q 625 606 619 611 q 638 598 630 602 q 654 592 645 594 q 666 593 662 590 l 766 720 m 895 70 l 875 70 l 875 85 l 932 85 l 932 70 l 911 70 l 911 17 l 895 17 l 895 70 m 939 84 l 960 84 l 972 31 l 985 84 l 1004 84 l 1004 16 l 992 16 l 992 69 l 978 16 l 966 16 l 952 69 l 952 16 l 939 16 l 939 84 "},"i":{"x_min":69.046875,"x_max":478.953125,"ha":548,"o":"m 478 1000 l 478 926 l 422 926 l 422 74 l 478 74 l 478 0 l 69 0 l 69 74 l 126 74 l 126 926 l 69 926 l 69 1000 l 478 1000 "},"υ":{"x_min":27.796875,"x_max":1103.359375,"ha":1145,"o":"m 1103 812 l 1046 812 q 1024 843 1036 834 q 996 853 1011 853 q 896 803 942 853 q 817 681 850 754 q 764 524 783 608 q 745 371 745 440 l 745 74 l 801 74 l 801 0 l 375 0 l 375 74 l 432 74 l 432 359 q 420 497 432 426 q 386 633 408 568 q 332 754 363 698 q 261 845 301 809 q 172 891 220 880 q 70 880 125 902 l 27 958 q 106 1006 56 987 q 211 1029 156 1026 q 507 914 395 1035 q 650 544 618 792 q 708 767 671 676 q 792 917 746 859 q 890 1001 839 974 q 992 1029 942 1027 q 1048 1025 1020 1030 q 1103 999 1076 1020 l 1103 812 "},"Ģ":{"x_min":51,"x_max":972.71875,"ha":1017,"o":"m 972 472 l 913 472 l 913 201 q 884 117 913 159 q 805 42 856 75 q 688 -10 755 9 q 543 -31 621 -31 q 341 3 431 -31 q 186 104 251 37 q 86 271 121 171 q 51 502 51 371 q 94 740 51 640 q 208 904 138 840 q 363 1000 277 969 q 534 1032 449 1032 q 691 1008 633 1032 q 786 955 748 984 l 825 1000 l 903 1000 l 903 610 l 756 610 q 746 713 761 658 q 701 815 731 768 q 631 893 672 862 q 542 924 589 924 q 478 903 510 924 q 419 835 446 883 q 375 706 392 787 q 359 502 359 624 q 369 310 359 388 q 400 184 379 233 q 450 111 420 135 q 517 78 480 87 q 553 78 534 76 q 588 87 572 80 q 616 108 605 95 q 628 141 628 121 l 628 472 l 540 472 l 540 546 l 972 546 l 972 472 m 657 -275 l 572 -411 l 512 -411 l 547 -275 l 425 -275 l 425 -71 l 657 -71 l 657 -275 "},"m":{"x_min":69.046875,"x_max":1142.9375,"ha":1212,"o":"m 1142 0 l 735 0 l 735 74 l 792 74 l 792 651 l 548 272 l 283 648 l 283 74 l 339 74 l 339 0 l 69 0 l 69 74 l 126 74 l 126 926 l 69 926 l 69 1000 l 389 1000 l 620 673 l 833 1000 l 1142 1000 l 1142 926 l 1086 926 l 1086 74 l 1142 74 l 1142 0 "},"ĕ":{"x_min":69.046875,"x_max":843,"ha":933,"o":"m 69 0 l 69 73 l 126 73 l 126 926 l 69 926 l 69 1000 l 843 1000 l 843 607 l 749 607 q 711 720 741 666 q 637 813 681 775 q 536 873 593 852 q 418 888 480 894 l 418 639 l 627 639 l 627 492 l 418 492 l 418 111 q 532 132 476 106 q 633 204 588 158 q 707 311 677 249 q 739 441 736 373 l 843 441 l 843 0 l 69 0 m 719 1280 q 701 1190 719 1230 q 653 1122 684 1149 q 579 1079 622 1094 q 484 1065 535 1065 q 313 1122 379 1065 q 247 1280 247 1179 l 381 1280 q 411 1200 381 1227 q 484 1173 441 1173 q 556 1200 529 1173 q 583 1280 583 1227 l 719 1280 "},"ż":{"x_min":32.0625,"x_max":901.125,"ha":955,"o":"m 865 0 l 32 0 l 534 889 q 416 876 473 889 q 309 832 358 864 q 225 746 261 801 q 172 607 189 691 l 79 607 l 79 1000 l 901 1000 l 398 112 q 451 111 425 109 q 493 115 477 112 q 633 186 573 126 q 732 343 693 247 q 757 426 743 375 q 771 548 771 477 l 865 548 l 865 0 m 586 1072 l 397 1072 l 397 1258 l 586 1258 l 586 1072 "},"Е":{"x_min":69.046875,"x_max":843,"ha":933,"o":"m 69 0 l 69 73 l 126 73 l 126 926 l 69 926 l 69 1000 l 843 1000 l 843 607 l 749 607 q 711 720 741 666 q 637 813 681 775 q 536 873 593 852 q 418 888 480 894 l 418 639 l 627 639 l 627 492 l 418 492 l 418 111 q 532 132 476 106 q 633 204 588 158 q 707 311 677 249 q 739 441 736 373 l 843 441 l 843 0 l 69 0 "},"Э":{"x_min":90.28125,"x_max":942,"ha":993,"o":"m 470 -32 q 378 -24 418 -30 q 308 -7 338 -18 q 253 15 277 2 q 208 44 229 29 l 168 0 l 90 0 l 90 385 l 243 385 q 252 282 238 337 q 295 182 266 228 q 363 106 323 137 q 450 76 402 76 q 509 92 479 76 q 564 149 538 109 q 608 256 590 190 q 632 424 626 323 l 323 424 l 323 571 l 632 571 q 608 732 626 665 q 564 842 590 798 q 509 904 538 885 q 450 924 479 924 q 363 893 402 924 q 295 817 323 862 q 252 717 266 771 q 243 614 238 662 l 90 614 l 90 1000 l 168 1000 l 208 955 q 254 984 229 970 q 313 1009 280 998 q 388 1025 345 1019 q 487 1032 430 1032 q 653 1000 572 1032 q 798 903 734 969 q 902 737 862 837 q 942 500 942 637 q 899 265 942 363 q 789 100 857 166 q 638 2 722 34 q 470 -32 554 -30 "},"ő":{"x_min":51,"x_max":1015,"ha":1064,"o":"m 690 500 q 677 688 690 608 q 643 820 664 768 q 593 898 621 872 q 533 924 564 924 q 472 898 501 924 q 422 820 444 872 q 388 688 401 768 q 376 500 376 608 q 388 311 376 391 q 422 179 401 231 q 472 101 444 127 q 533 76 501 76 q 593 101 564 76 q 643 179 621 127 q 677 311 664 231 q 690 500 690 391 m 1015 500 q 976 279 1015 377 q 871 111 937 180 q 718 5 806 43 q 533 -32 630 -32 q 346 5 434 -32 q 194 111 259 43 q 89 279 128 180 q 51 500 51 377 q 89 720 51 622 q 194 888 128 819 q 346 994 259 957 q 533 1032 434 1032 q 718 994 630 1032 q 871 888 806 957 q 976 720 937 819 q 1015 500 1015 622 m 577 1072 l 763 1280 l 950 1280 l 706 1072 l 577 1072 m 356 1072 l 506 1280 l 681 1280 l 480 1072 l 356 1072 "},"ž":{"x_min":27.390625,"x_max":815.234375,"ha":843,"o":"m 815 782 l 369 89 q 497 103 439 89 q 596 153 555 118 q 660 247 637 189 q 683 391 683 305 l 683 445 l 768 445 l 768 0 l 27 0 l 478 693 q 396 689 442 693 q 307 668 351 686 q 227 615 263 651 q 176 512 191 579 l 163 397 l 74 397 l 74 782 l 815 782 m 195 1063 l 361 1063 l 436 957 l 509 1063 l 673 1063 l 513 854 l 356 854 l 195 1063 "},"ю":{"x_min":69.046875,"x_max":1557,"ha":1606,"o":"m 1557 500 q 1518 279 1557 377 q 1413 111 1479 180 q 1260 5 1348 43 q 1074 -32 1172 -32 q 903 0 984 -32 q 757 89 821 30 q 650 233 692 148 q 596 424 607 318 l 423 424 l 423 74 l 479 74 l 479 0 l 69 0 l 69 74 l 126 74 l 126 926 l 69 926 l 69 1000 l 479 1000 l 479 926 l 423 926 l 423 571 l 595 571 q 648 763 606 677 q 755 908 691 848 q 902 1000 820 968 q 1074 1032 984 1032 q 1260 994 1172 1032 q 1413 888 1348 957 q 1518 720 1479 819 q 1557 500 1557 622 m 1232 500 q 1219 688 1232 608 q 1185 819 1207 767 q 1135 897 1163 871 q 1075 923 1106 923 q 1014 897 1043 923 q 964 819 986 871 q 930 688 943 767 q 918 500 918 608 q 930 311 918 391 q 964 180 943 232 q 1014 102 986 128 q 1075 76 1043 76 q 1135 102 1106 76 q 1185 180 1163 128 q 1219 311 1207 232 q 1232 500 1232 391 "},"Ŏ":{"x_min":51,"x_max":1015,"ha":1064,"o":"m 690 500 q 677 688 690 608 q 643 820 664 768 q 593 898 621 872 q 533 924 564 924 q 472 898 501 924 q 422 820 444 872 q 388 688 401 768 q 376 500 376 608 q 388 311 376 391 q 422 179 401 231 q 472 101 444 127 q 533 76 501 76 q 593 101 564 76 q 643 179 621 127 q 677 311 664 231 q 690 500 690 391 m 1015 500 q 976 279 1015 377 q 871 111 937 180 q 718 5 806 43 q 533 -32 630 -32 q 346 5 434 -32 q 194 111 259 43 q 89 279 128 180 q 51 500 51 377 q 89 720 51 622 q 194 888 128 819 q 346 994 259 957 q 533 1032 434 1032 q 718 994 630 1032 q 871 888 806 957 q 976 720 937 819 q 1015 500 1015 622 m 769 1280 q 751 1190 769 1230 q 703 1122 734 1149 q 629 1079 672 1094 q 534 1065 585 1065 q 363 1122 429 1065 q 297 1280 297 1179 l 431 1280 q 461 1200 431 1227 q 534 1173 491 1173 q 606 1200 579 1173 q 633 1280 633 1227 l 769 1280 "},"á":{"x_min":41.671875,"x_max":1016.75,"ha":1058,"o":"m 612 0 l 612 74 l 669 74 l 619 242 l 320 242 l 269 74 l 326 74 l 326 0 l 41 0 l 41 74 l 98 74 l 354 926 l 280 926 l 280 1000 l 769 1000 l 769 926 l 695 926 l 959 74 l 1016 74 l 1016 0 l 612 0 m 468 752 l 370 414 l 568 414 l 468 752 m 599 1072 l 476 1072 l 637 1281 l 821 1281 l 599 1072 "},"×":{"x_min":68.0625,"x_max":701.4375,"ha":770,"o":"m 583 188 l 383 386 l 186 188 l 68 307 l 265 507 l 72 703 l 194 820 l 386 623 l 576 817 l 697 697 l 502 507 l 701 308 l 583 188 "},"İ":{"x_min":69.046875,"x_max":478.953125,"ha":548,"o":"m 478 1000 l 478 926 l 422 926 l 422 74 l 478 74 l 478 0 l 69 0 l 69 74 l 126 74 l 126 926 l 69 926 l 69 1000 l 478 1000 m 374 1072 l 185 1072 l 185 1258 l 374 1258 l 374 1072 "},"Ě":{"x_min":69.046875,"x_max":843,"ha":933,"o":"m 69 0 l 69 73 l 126 73 l 126 926 l 69 926 l 69 1000 l 843 1000 l 843 607 l 749 607 q 711 720 741 666 q 637 813 681 775 q 536 873 593 852 q 418 888 480 894 l 418 639 l 627 639 l 627 492 l 418 492 l 418 111 q 532 132 476 106 q 633 204 588 158 q 707 311 677 249 q 739 441 736 373 l 843 441 l 843 0 l 69 0 m 244 1289 l 409 1289 l 484 1183 l 558 1289 l 722 1289 l 562 1081 l 405 1081 l 244 1289 "},"п":{"x_min":69.046875,"x_max":995.9375,"ha":1065,"o":"m 423 74 l 479 74 l 479 0 l 69 0 l 69 74 l 126 74 l 126 926 l 69 926 l 69 1000 l 995 1000 l 995 926 l 939 926 l 939 74 l 995 74 l 995 0 l 585 0 l 585 74 l 642 74 l 642 926 l 423 926 l 423 74 "},"Ǻ":{"x_min":41.671875,"x_max":1016.75,"ha":1058,"o":"m 589 1316 l 468 1316 l 607 1450 l 789 1450 l 589 1316 m 628 1162 q 597 1087 628 1117 q 522 1058 566 1058 q 447 1087 478 1058 q 417 1162 417 1117 q 447 1237 417 1206 q 522 1268 478 1268 q 597 1237 566 1268 q 628 1162 628 1206 m 612 0 l 612 74 l 669 74 l 619 242 l 320 242 l 269 74 l 326 74 l 326 0 l 41 0 l 41 74 l 98 74 l 354 926 l 280 926 l 280 1000 l 769 1000 l 769 926 l 695 926 l 959 74 l 1016 74 l 1016 0 l 612 0 m 468 752 l 371 414 l 568 414 l 468 752 "},"K":{"x_min":69.046875,"x_max":1047.0625,"ha":1071,"o":"m 663 0 l 567 495 l 422 315 l 422 74 l 478 74 l 478 0 l 69 0 l 69 74 l 126 74 l 126 926 l 69 926 l 69 1000 l 478 1000 l 478 926 l 422 926 l 422 537 l 734 926 l 677 926 l 677 1000 l 984 1000 l 984 926 l 912 926 l 747 748 l 990 74 l 1047 74 l 1047 0 l 663 0 "},"7":{"x_min":61,"x_max":955.8125,"ha":949,"o":"m 955 965 q 913 929 939 961 q 859 852 887 898 q 801 753 830 806 q 750 652 772 700 l 478 68 l 568 68 l 568 0 l 72 0 l 658 856 q 563 898 614 893 q 461 888 512 904 q 359 842 409 873 q 268 773 309 811 q 197 697 228 736 q 153 631 166 659 l 153 548 l 61 548 l 61 998 l 145 998 l 144 951 q 307 1016 227 1000 q 461 1032 386 1032 q 555 1025 504 1030 q 658 1002 607 1019 q 698 988 682 995 q 728 973 715 980 l 765 1019 q 828 997 798 1005 q 882 985 858 990 q 924 976 905 980 q 955 965 943 972 "},"Ȉ":{"x_min":-153.28125,"x_max":478.953125,"ha":548,"o":"m 478 1000 l 478 926 l 422 926 l 422 74 l 478 74 l 478 0 l 69 0 l 69 74 l 126 74 l 126 926 l 69 926 l 69 1000 l 478 1000 m 89 1072 l -153 1280 l 32 1280 l 218 1072 l 89 1072 m 316 1072 l 114 1280 l 289 1280 l 439 1072 l 316 1072 "},"¨":{"x_min":136,"x_max":636,"ha":697,"o":"m 351 870 q 322 794 351 826 q 242 762 294 762 q 165 794 194 762 q 136 870 136 826 q 165 943 136 912 q 242 975 194 975 q 322 943 294 975 q 351 870 351 912 m 636 870 q 608 794 636 826 q 529 762 580 762 q 450 794 479 762 q 421 870 421 826 q 450 943 421 912 q 529 975 479 975 q 608 943 580 975 q 636 870 636 912 "},"Y":{"x_min":41.078125,"x_max":1102.75,"ha":1145,"o":"m 1102 926 l 1045 926 l 743 423 l 743 74 l 799 74 l 799 0 l 373 0 l 373 74 l 430 74 l 430 423 l 98 926 l 41 926 l 41 1000 l 531 1000 l 531 926 l 474 926 l 647 550 l 840 926 l 783 926 l 783 1000 l 1102 1000 l 1102 926 "},"E":{"x_min":69.046875,"x_max":843,"ha":933,"o":"m 69 0 l 69 73 l 126 73 l 126 926 l 69 926 l 69 1000 l 843 1000 l 843 607 l 749 607 q 711 720 741 666 q 637 813 681 775 q 536 873 593 852 q 418 888 480 894 l 418 639 l 627 639 l 627 492 l 418 492 l 418 111 q 532 132 476 106 q 633 204 588 158 q 707 311 677 249 q 739 441 736 373 l 843 441 l 843 0 l 69 0 "},"Ô":{"x_min":51,"x_max":1015,"ha":1064,"o":"m 690 500 q 677 688 690 608 q 643 820 664 768 q 593 898 621 872 q 533 924 564 924 q 472 898 501 924 q 422 820 444 872 q 388 688 401 768 q 376 500 376 608 q 388 311 376 391 q 422 179 401 231 q 472 101 444 127 q 533 76 501 76 q 593 101 564 76 q 643 179 621 127 q 677 311 664 231 q 690 500 690 391 m 1015 500 q 976 279 1015 377 q 871 111 937 180 q 718 5 806 43 q 533 -32 630 -32 q 346 5 434 -32 q 194 111 259 43 q 89 279 128 180 q 51 500 51 377 q 89 720 51 622 q 194 888 128 819 q 346 994 259 957 q 533 1032 434 1032 q 718 994 630 1032 q 871 888 806 957 q 976 720 937 819 q 1015 500 1015 622 m 767 1072 l 604 1072 l 530 1177 l 455 1072 l 290 1072 l 451 1280 l 608 1280 l 767 1072 "},"Ț":{"x_min":58,"x_max":954,"ha":1012,"o":"m 58 1000 l 954 1000 l 954 548 l 840 548 q 829 667 840 607 q 796 774 819 727 q 737 850 773 821 q 652 876 702 878 l 652 74 l 708 74 l 708 0 l 302 0 l 302 74 l 359 74 l 359 876 q 273 850 309 878 q 215 774 238 821 q 182 667 192 727 q 172 548 172 607 l 58 548 l 58 1000 m 626 -275 l 541 -411 l 481 -411 l 516 -275 l 394 -275 l 394 -71 l 626 -71 l 626 -275 "},"‹":{"x_min":55.5625,"x_max":395.859375,"ha":465,"o":"m 55 481 l 395 783 l 395 574 l 201 419 l 201 366 l 395 214 l 395 6 l 55 307 l 55 481 "}}}
